<?xml version="1.0" encoding="UTF-8"?>
<svg width="40px" height="40px" viewBox="0 0 40 40" version="1.1" xmlns="http://www.w3.org/2000/svg" xmlns:xlink="http://www.w3.org/1999/xlink">
    <!-- Generator: Sketch 63.1 (92452) - https://sketch.com -->
    <title>ic-menu-discovery</title>
    <desc>Created with Sketch.</desc>
    <g id="Page-1" stroke="none" stroke-width="1" fill="none" fill-rule="evenodd">
        <g id="Methodology-6" transform="translate(-409.000000, -2662.000000)" fill="#F13C31" fill-rule="nonzero">
            <g id="menu/discovery" transform="translate(405.000000, 2658.000000)">
                <path d="M24,12.7863159 C24.3918457,12.7863159 24.7577515,12.9822388 24.9750366,13.3081665 L24.9750366,13.3081665 L37.5272217,32.1362915 C37.9398194,32.7548828 37.6785889,33.5980835 36.9873657,33.8745727 C35.3458252,34.531311 33.9542236,35.6519165 32.9630127,37.1158447 C31.9718017,38.579773 31.4481202,40.288147 31.4481202,42.0560303 L31.4481202,42.0560303 L31.4481202,42.828125 C31.4481202,43.4754028 30.9232178,44 30.2762452,44 L30.2762452,44 L17.7240601,44 C17.0767822,44 16.5521851,43.4754028 16.5521851,42.828125 L16.5521851,42.828125 L16.5521851,42.0560303 C16.5521851,40.288147 16.0281983,38.579773 15.0369873,37.1158447 C14.0460816,35.6519165 12.65448,34.531311 11.0126343,33.8745727 C10.3226319,33.5983887 10.0598755,32.7557984 10.4727783,32.1362915 L10.4727783,32.1362915 L23.0249634,13.3081665 C23.2422485,12.9822388 23.6081543,12.7863159 24,12.7863159 Z M25.171875,17.8287353 L25.171875,28.0411377 C26.6293945,28.5318603 27.6822509,29.9106445 27.6822509,31.531128 C27.6822509,33.5617676 26.0303345,35.2133789 24,35.2133789 C21.9696655,35.2133789 20.3177491,33.5617676 20.3177491,31.531128 C20.3177491,29.9103394 21.3706055,28.5318603 22.828125,28.0411377 L22.828125,28.0411377 L22.828125,17.8287353 L13.1726684,32.3117676 C14.6927491,33.1574097 15.9915772,34.345459 16.9779053,35.802063 C18.1577148,37.5446167 18.8147583,39.5609131 18.8886109,41.65625 L18.8886109,41.65625 L29.1113891,41.65625 C29.1852417,39.5609131 29.8422852,37.5446167 31.0220947,35.802063 C32.0084228,34.345459 33.3072509,33.1574097 34.8273316,32.3117676 L34.8273316,32.3117676 L25.171875,17.8287353 Z M24,30.192627 C23.262085,30.192627 22.6614991,30.7932129 22.6614991,31.531128 C22.6614991,32.2693481 23.262085,32.8696289 24,32.8696289 C24.737915,32.8696289 25.3385009,32.2693481 25.3385009,31.531128 C25.3385009,30.7932129 24.737915,30.192627 24,30.192627 Z M26.5103759,4 C27.1576538,4 27.6822509,4.52459719 27.6822509,5.171875 L27.6822509,5.171875 L27.6822509,6.55615234 C35.0696411,7.13049313 40.9696045,13.0872192 41.4560547,20.4987183 C42.9306641,20.9793702 44,22.3666992 44,24 C44,26.0303345 42.3480835,27.6822509 40.3177491,27.6822509 C38.2874145,27.6822509 36.635498,26.0303345 36.635498,24 C36.635498,22.3929444 37.6709595,21.0236206 39.109253,20.522522 C38.6432495,14.3930664 33.7842407,9.4730225 27.6825562,8.90905766 L27.6825562,8.90905766 L27.6825562,10.192627 C27.6825562,10.8399048 27.1576538,11.364502 26.5106812,11.364502 L26.5106812,11.364502 L21.4896241,11.364502 C20.8423462,11.364502 20.3177491,10.8399048 20.3177491,10.192627 L20.3177491,10.192627 L20.3177491,8.90905766 C14.2151489,9.47271727 9.35644531,14.3930664 8.89074703,20.522522 C10.3293457,21.0236206 11.364502,22.3929444 11.364502,24 C11.364502,26.0303345 9.71258547,27.6822509 7.68225094,27.6822509 C5.65191648,27.6822509 4,26.0303345 4,24 C4,22.3666992 5.06903078,20.9793702 6.54394531,20.4987183 C7.02978516,13.0872192 12.9300537,7.12988281 20.3177491,6.55584719 L20.3177491,6.55584719 L20.3177491,5.171875 C20.3177491,4.52459719 20.8423462,4 21.4896241,4 L21.4896241,4 Z M7.68225094,22.6614991 C6.94433594,22.6614991 6.34375,23.262085 6.34375,24 C6.34375,24.737915 6.94433594,25.3385009 7.68225094,25.3385009 C8.42047117,25.3385009 9.02075195,24.737915 9.02075195,24 C9.02075195,23.262085 8.42047117,22.6614991 7.68225094,22.6614991 Z M40.3177491,22.6614991 C39.5795288,22.6614991 38.979248,23.262085 38.979248,24 C38.979248,24.737915 39.5795288,25.3385009 40.3177491,25.3385009 C41.0556641,25.3385009 41.65625,24.737915 41.65625,24 C41.65625,23.262085 41.0556641,22.6614991 40.3177491,22.6614991 Z M25.3385009,6.34375 L22.6614991,6.34375 L22.6614991,9.02075195 L25.3385009,9.02075195 L25.3385009,6.34375 Z" id="Combined-Shape"></path>
            </g>
        </g>
    </g>
</svg>