<?xml version="1.0" encoding="UTF-8"?>
<svg width="40px" height="40px" viewBox="0 0 40 40" version="1.1" xmlns="http://www.w3.org/2000/svg" xmlns:xlink="http://www.w3.org/1999/xlink">
    <!-- Generator: Sketch 63.1 (92452) - https://sketch.com -->
    <title>ic-menu-project-execution</title>
    <desc>Created with Sketch.</desc>
    <g id="Page-1" stroke="none" stroke-width="1" fill="none" fill-rule="evenodd">
        <g id="Methodology-6" transform="translate(-994.000000, -2662.000000)" fill="#F13C31" fill-rule="nonzero">
            <g id="menu/project-execution" transform="translate(990.000000, 2658.000000)">
                <path d="M27.320831,4 C27.9354607,4 28.4499918,4.46478699 28.5125534,5.07636485 L28.5125534,5.07636485 L28.9251548,9.11479289 C28.9721523,9.57530734 29.2751946,9.97417576 29.7158725,10.1563673 L29.7158725,10.1563673 L29.7439489,10.1679642 C30.1870682,10.352292 30.6848145,10.2845423 31.0437045,9.99218131 L31.0437045,9.99218131 L34.1907059,7.42837606 C34.6670897,7.04018891 35.3598451,7.07528447 35.7944194,7.50985876 L35.7944194,7.50985876 L40.4905072,12.2059466 C40.9250815,12.6405209 40.9604822,13.3332763 40.5722951,13.8096601 L40.5722951,13.8096601 L37.5202042,17.5560322 C37.7439001,18.0250917 37.9434868,18.5066635 38.1171334,18.9967803 L38.1171334,18.9967803 L42.9240012,19.4878126 C43.5352739,19.550069 44.000061,20.0649053 44.000061,20.679535 L44.000061,20.679535 L44.000061,27.320831 C44.000061,27.9354607 43.5352739,28.450297 42.9240012,28.5125534 L42.9240012,28.5125534 L38.8855731,28.9251548 C38.4250587,28.9721523 38.0261902,29.2751946 37.8439987,29.7158725 L37.8439987,29.7158725 L37.8324018,29.7436438 C37.6483791,30.1870682 37.7158237,30.6845093 38.0081847,31.0433993 L38.0081847,31.0433993 L40.5719899,34.1907059 C40.9601771,34.6670897 40.9247763,35.3598451 40.4905072,35.7944194 L40.4905072,35.7944194 L35.7941142,40.4905072 C35.3598451,40.9250815 34.6667845,40.9601771 34.1904008,40.5722951 L34.1904008,40.5722951 L31.0433993,38.0081847 C30.6845093,37.7158237 30.1870682,37.648074 29.7451696,37.8320967 L29.7451696,37.8320967 L29.7164829,37.8436934 C29.2748895,38.0261902 28.9718472,38.4250587 28.9248496,38.8855731 L28.9248496,38.8855731 L28.5125534,42.9240012 C28.4499918,43.5352739 27.9351556,44.000366 27.320831,44.000366 L27.320831,44.000366 L20.6792298,44.000366 C20.0649053,44.000366 19.550069,43.5352739 19.4875074,42.9240012 L19.4875074,42.9240012 L19.0752112,38.8855731 C19.0282137,38.4250587 18.7251714,38.0261902 18.2844935,37.8439987 L18.2844935,37.8439987 L18.2548912,37.8317915 C17.8129926,37.6483791 17.3155515,37.7158237 16.9566615,38.0081847 L16.9566615,38.0081847 L13.8096601,40.5722951 C13.3329712,40.9601771 12.6405209,40.9250815 12.2059466,40.4905072 L12.2059466,40.4905072 L7.50985876,35.7944194 C7.07528447,35.3598451 7.03988375,34.6670897 7.4280709,34.1907059 L7.4280709,34.1907059 L9.99187608,31.0433993 C10.2842372,30.6845093 10.3519869,30.1870682 10.1682693,29.7451696 L10.1682693,29.7451696 L10.1563673,29.716788 C9.97417576,29.2751946 9.57500218,28.9721523 9.11479289,28.9251548 L9.11479289,28.9251548 L5.07605969,28.5125534 C4.46478699,28.450297 4,27.9354607 4,27.320831 L4,27.320831 L4,20.679535 C4,20.0649053 4.46478699,19.550069 5.07605969,19.4878126 L5.07605969,19.4878126 L9.11448773,19.0752112 C9.57500218,19.0282137 9.97417576,18.7251714 10.1560622,18.2844935 L10.1560622,18.2844935 L10.1691849,18.2533653 C10.3519869,17.8132978 10.2842372,17.3158567 9.99187608,16.9569667 L9.99187608,16.9569667 L7.4280709,13.8096601 C7.03988375,13.3332763 7.07528447,12.6405209 7.50985876,12.2059466 L7.50985876,12.2059466 L12.2059466,7.50985876 C12.6405209,7.07528447 13.3332763,7.04018891 13.8096601,7.4280709 L13.8096601,7.4280709 L16.9569667,9.99218131 C17.3155515,10.2842372 17.8129926,10.3519869 18.2551964,10.1682693 L18.2551964,10.1682693 L18.2820521,10.1572829 C18.7251714,9.97417576 19.0282137,9.57530734 19.0752112,9.11479289 L19.0752112,9.11479289 L19.4878126,5.07636485 C19.550069,4.46478699 20.0649053,4 20.679535,4 L20.679535,4 Z M26.238973,6.395957 L21.761393,6.395957 L21.4586558,9.35832543 C21.3219358,10.6974489 20.455839,11.8516343 19.1988085,12.3707431 L19.1988085,12.3707431 L19.174089,12.3811192 C17.9167533,12.9032797 16.4872969,12.6997256 15.4435861,11.8498032 L15.4435861,11.8498032 L13.1352155,9.96898774 L9.96898774,13.1352155 L11.8494981,15.4438914 C12.6997256,16.4872969 12.9032797,17.9167533 12.380814,19.1743942 L12.380814,19.1743942 L12.3701328,19.1997241 C11.8516343,20.4561442 10.6971438,21.3219358 9.3580202,21.458961 L9.3580202,21.458961 L6.395957,21.761393 L6.395957,26.238973 L9.3580202,26.541405 C10.6971438,26.6784302 11.8516343,27.5442218 12.3707431,28.8015575 L12.3707431,28.8015575 L12.3814243,28.8278029 C12.9032797,30.0836127 12.6997256,31.5130691 11.8494981,32.5567799 L11.8494981,32.5567799 L9.96898774,34.8651505 L13.1352155,38.0313783 L15.4435861,36.1508679 C16.4872969,35.3006404 17.9167533,35.0970863 19.174089,35.6192468 L19.174089,35.6192468 L19.2012499,35.6308436 C20.4561442,36.1487317 21.3219358,37.3029171 21.4586558,38.6423458 L21.4586558,38.6423458 L21.761393,41.604409 L26.238973,41.604409 L26.5417102,38.6420406 C26.6784302,37.3029171 27.5442218,36.1487317 28.8015575,35.6296229 L28.8015575,35.6296229 L28.8278029,35.6186365 C30.0836127,35.0970863 31.5130691,35.3006404 32.5567799,36.1508679 L32.5567799,36.1508679 L34.8651505,38.0313783 L38.0313783,34.8651505 L36.1508679,32.5567799 C35.3006404,31.5130691 35.0970863,30.0836127 35.619552,28.8259718 L35.619552,28.8259718 L35.6299281,28.8006419 C36.1487317,27.5442218 37.3032222,26.6784302 38.6423458,26.541405 L38.6423458,26.541405 L41.604409,26.238973 L41.604409,21.761393 L37.0969215,21.3008785 C36.6126031,21.2514396 36.2064104,20.9139121 36.0690801,20.4469888 C35.8176129,19.590963 35.4736767,18.7605721 35.0467318,17.9793149 C34.8132702,17.5520649 34.8617936,17.0259371 35.1694136,16.6484312 L35.1694136,16.6484312 L38.0313783,13.1352155 L34.8651505,9.96898774 L32.5567799,11.8494981 C31.5130691,12.6997256 30.0836127,12.9032797 28.826277,12.3811192 L28.826277,12.3811192 L28.8006419,12.3704379 C27.5442218,11.8516343 26.6784302,10.6971438 26.5417102,9.3580202 L26.5417102,9.3580202 L26.238973,6.395957 Z M24.0004882,14.4294778 C29.2779413,14.4294778 33.5714986,18.7230351 33.5714986,24.0004882 C33.5714986,29.2779413 29.2779413,33.5718038 24.0004882,33.5718038 C18.7230351,33.5718038 14.4294778,29.2779413 14.4294778,24.0004882 C14.4294778,18.7230351 18.7230351,14.4294778 24.0004882,14.4294778 Z M24.0004882,16.8251295 C20.0441531,16.8251295 16.8251295,20.043848 16.8251295,24.0004882 C16.8251295,27.9568232 20.0441531,31.1758468 24.0004882,31.1758468 C27.9568232,31.1758468 31.1755416,27.9568232 31.1755416,24.0004882 C31.1755416,20.043848 27.9568232,16.8251295 24.0004882,16.8251295 Z M26.5218736,20.9993621 C26.9897123,20.5315233 27.748081,20.5315233 28.2156146,20.9993621 C28.6834534,21.4672008 28.6834534,22.2255696 28.2156146,22.6934084 L28.2156146,22.6934084 L23.9074087,27.0016143 C23.6736419,27.235381 23.3669374,27.3525696 23.0605382,27.3525696 C22.7538337,27.3525696 22.4474344,27.2356862 22.2133624,27.0016143 L22.2133624,27.0016143 L19.7847514,24.5730032 C19.3169126,24.1051644 19.3169126,23.3464905 19.7847514,22.878957 C20.2525901,22.4111181 21.0112641,22.4111181 21.4791028,22.878957 L21.4791028,22.878957 L23.0605382,24.4603923 Z" id="Combined-Shape"></path>
            </g>
        </g>
    </g>
</svg>