<?xml version="1.0" encoding="UTF-8"?>
<svg width="40px" height="40px" viewBox="0 0 40 40" version="1.1" xmlns="http://www.w3.org/2000/svg" xmlns:xlink="http://www.w3.org/1999/xlink">
    <!-- Generator: Sketch 63.1 (92452) - https://sketch.com -->
    <title>ic-menu-b2c</title>
    <desc>Created with Sketch.</desc>
    <g id="Page-1" stroke="none" stroke-width="1" fill="none" fill-rule="evenodd">
        <g id="Methodology-6" transform="translate(-409.000000, -2935.000000)" fill="#F13C31" fill-rule="nonzero">
            <g id="menu/b2c" transform="translate(405.000000, 2931.000000)">
                <path d="M34.6060511,12 C37.5700027,12 39.9813691,14.416 39.9813691,17.3856471 C39.9813691,18.6675294 39.5314102,19.8456471 38.7822615,20.7713725 C41.8047673,21.7373333 44,24.5773333 44,27.9217255 L44,27.9217255 L44,34.5883922 C44,35.2381176 43.4742651,35.7648627 42.8257857,35.7648627 L42.8257857,35.7648627 L33.393714,35.7648627 L33.393714,42.0025098 C33.393714,42.6522353 32.8679792,43.1789804 32.2194998,43.1789804 L32.2194998,43.1789804 L15.7805002,43.1789804 C15.1320208,43.1789804 14.606286,42.6522353 14.606286,42.0025098 L14.606286,42.0025098 L14.606286,35.7648627 L5.17421425,35.7648627 C4.52573486,35.7648627 4,35.2381176 4,34.5883922 L4,34.5883922 L4,27.9217255 C4,24.5773333 6.19523269,21.7373333 9.21773846,20.7713725 C8.46866805,19.8455686 8.01863087,18.6675294 8.01863087,17.3856471 C8.01863087,14.416 10.4299973,12 13.3939489,12 C16.3578222,12 18.7691886,14.416 18.7691886,17.3856471 C18.7691886,18.6683137 18.3186035,19.8470588 17.568672,20.773098 C18.2786802,20.9999216 18.9527574,21.3320784 19.5669498,21.7584314 C20.5366942,20.3440784 22.1617284,19.4142745 24,19.4142745 C25.8382716,19.4142745 27.4633841,20.3440784 28.4330502,21.7584314 C29.0472426,21.3321569 29.7213198,20.9999216 30.431328,20.773098 C29.6813965,19.8470588 29.2308114,18.6683137 29.2308114,17.3856471 C29.2308114,14.416 31.6421778,12 34.6060511,12 Z M25.9048104,30.1854902 L22.0951896,30.1854902 C19.251321,30.1854902 16.9547145,32.5071373 16.9547145,35.3358431 L16.9547145,35.3358431 L16.9547145,40.8260392 L19.303143,40.8260392 L19.303143,37.3489412 C19.303143,36.6992157 19.8288778,36.1724706 20.4773572,36.1724706 C21.1258366,36.1724706 21.6515715,36.6992157 21.6515715,37.3489412 L21.6515715,37.3489412 L21.6515715,40.8260392 L26.3484285,40.8260392 L26.3484285,37.3489412 C26.3484285,36.6992157 26.8741634,36.1724706 27.5226428,36.1724706 C28.1711222,36.1724706 28.696857,36.6992157 28.696857,37.3489412 L28.696857,37.3489412 L28.696857,40.8260392 L31.0452855,40.8260392 L31.0452855,35.3358431 C31.0452855,32.5029804 28.7448432,30.1854902 25.9048104,30.1854902 L25.9048104,30.1854902 Z M15.2990724,22.7711373 L11.4891385,22.7711373 C8.65450703,22.7711373 6.34842851,25.0816471 6.34842851,27.9217255 L6.34842851,27.9217255 L6.34842851,33.4119216 L9.00919801,33.4119216 L9.00919801,29.0090196 C9.00919801,28.3592941 9.53493287,27.832549 10.1834123,27.832549 C10.8318917,27.832549 11.3576265,28.3592941 11.3576265,29.0090196 L11.3576265,29.0090196 L11.3576265,33.4119216 L14.8556108,33.4119216 C15.5059689,30.9483922 17.3871384,28.9628235 19.8204235,28.1858039 C18.8901327,27.0330196 18.4676504,25.526902 18.6778347,24.0409412 C17.7468394,23.2282353 16.543896,22.7711373 15.2990724,22.7711373 L15.2990724,22.7711373 Z M36.5108615,22.7711373 L32.7009276,22.7711373 C31.456104,22.7711373 30.2532389,23.2282353 29.3221653,24.0409412 C29.5394732,25.5774902 29.0773807,27.0732549 28.1795765,28.1858039 C30.6287526,28.9679216 32.4983365,30.9646275 33.1443892,33.4119216 L33.1443892,33.4119216 L36.6423735,33.4119216 L36.6423735,29.0090196 C36.6423735,28.3592941 37.1681083,27.832549 37.8165877,27.832549 C38.4650671,27.832549 38.990802,28.3592941 38.990802,29.0090196 L38.990802,29.0090196 L38.990802,33.4119216 L41.6515715,33.4119216 L41.6515715,27.9217255 C41.6515715,25.0816471 39.345493,22.7711373 36.5108615,22.7711373 L36.5108615,22.7711373 Z M23.999,21.767 L23.8204096,21.772456 C22.2170069,21.866324 20.9731105,23.208888 20.9731105,24.7999216 C20.9731105,26.464 22.3255705,27.832549 24,27.832549 C25.648362,27.832549 27.0013699,26.5023529 27.0257936,24.844549 C27.0496693,23.1483137 25.6805354,21.7672157 24,21.7672157 L23.999,21.767 Z M34.6061294,14.3529412 C32.9371013,14.3529412 31.5793182,15.7134118 31.5793965,17.3856471 C31.5793965,19.0567843 32.9355356,20.416549 34.6031547,20.4181961 L34.6031547,20.4181961 C36.2768014,20.416549 37.6330189,19.0567843 37.6330189,17.3856471 C37.6330189,15.7134118 36.2751575,14.3529412 34.6061294,14.3529412 Z M13.3939489,14.3529412 C11.7249207,14.3529412 10.3670594,15.7134118 10.3671377,17.3856471 C10.3671377,19.0567843 11.7232768,20.416549 13.3909742,20.4181961 L13.3909742,20.4181961 C15.0645426,20.416549 16.4207601,19.0567843 16.4207601,17.3856471 C16.4207601,15.7134118 15.0628987,14.3529412 13.3939489,14.3529412 Z M15.211429,5.14352941 C15.9196211,4.82070588 16.755098,5.13468235 17.0772085,5.84451765 L17.0772085,5.84451765 L18.9559513,9.98569412 C19.2780618,10.6955294 18.9647814,11.5324235 18.2563075,11.8550588 C17.5477396,12.1778824 16.7124506,11.8637176 16.390528,11.1540706 L16.390528,11.1540706 L14.5117852,7.01289412 C14.1896747,6.30305882 14.5029551,5.46616471 15.211429,5.14352941 Z M30.9227915,5.84451765 C31.2447141,5.13468235 32.0800031,4.8208 32.788571,5.14352941 C33.4970449,5.46607059 33.8103253,6.30305882 33.4882148,7.01289412 L33.4882148,7.01289412 L31.609472,11.1540706 C31.2878312,11.8631529 30.4530119,12.1779765 29.7436925,11.8550588 C29.0352186,11.5324235 28.7219382,10.6955294 29.0440487,9.98569412 L29.0440487,9.98569412 Z M24,4 C24.7781753,4 25.4090571,4.63209412 25.4090571,5.41176471 L25.4090571,5.41176471 L25.4090571,9.53722353 C25.4090571,10.3168941 24.7781753,10.9489882 24,10.9489882 C23.2218247,10.9489882 22.5909429,10.3168941 22.5909429,9.53722353 L22.5909429,9.53722353 L22.5909429,5.41176471 C22.5909429,4.63209412 23.2218247,4 24,4 Z" id="Combined-Shape"></path>
            </g>
        </g>
    </g>
</svg>