<?xml version="1.0" encoding="UTF-8"?>
<svg width="48px" height="48px" viewBox="0 0 48 48" version="1.1" xmlns="http://www.w3.org/2000/svg" xmlns:xlink="http://www.w3.org/1999/xlink">
	<g id="Page-1" stroke="none" stroke-width="1" fill="none" fill-rule="evenodd">
		<g id="Services-Black-White" transform="translate(-1160.000000, -7168.000000)" fill="#007AFE" fill-rule="nonzero">
			<path d="M1201.73871,7189.11087 C1205.36572,7190.27002 1208,7193.67802 1208,7197.69129 L1208,7205.69129 C1208,7206.47096 1207.36912,7207.10306 1206.59094,7207.10306 L1195.27246,7207.10306 L1195.27246,7214.58824 C1195.27246,7215.36791 1194.64158,7216 1193.8634,7216 L1174.1366,7216 C1173.35842,7216 1172.72754,7215.36791 1172.72754,7214.58824 L1172.72754,7207.10306 L1161.40906,7207.10306 C1160.63088,7207.10306 1160,7206.47096 1160,7205.69129 L1160,7197.69129 C1160,7193.67802 1162.63428,7190.27002 1166.26129,7189.11087 C1165.3624,7187.99991 1164.82236,7186.58626 1164.82236,7185.048 C1164.82236,7181.48442 1167.716,7178.58522 1171.27274,7178.58522 C1174.82939,7178.58522 1177.72303,7181.48442 1177.72303,7185.048 C1177.72303,7186.5872 1177.18232,7188.00169 1176.28241,7189.11294 C1177.13442,7189.38513 1177.94331,7189.78372 1178.68034,7190.29534 C1179.84403,7188.59812 1181.79407,7187.48235 1184,7187.48235 C1186.20593,7187.48235 1188.15606,7188.59812 1189.31966,7190.29534 C1190.05669,7189.78381 1190.86558,7189.38513 1191.71759,7189.11294 C1190.81768,7188.00169 1190.27697,7186.5872 1190.27697,7185.048 C1190.27697,7181.48442 1193.17061,7178.58522 1196.72726,7178.58522 C1200.284,7178.58522 1203.17764,7181.48442 1203.17764,7185.048 C1203.17764,7186.58626 1202.63769,7188 1201.73871,7189.11087 Z M1196.72736,7181.40875 C1194.72452,7181.40875 1193.09518,7183.04132 1193.09528,7185.048 C1193.09528,7187.05336 1194.72264,7188.68508 1196.72379,7188.68706 L1196.73102,7188.68706 C1198.73216,7188.68508 1200.35962,7187.05336 1200.35962,7185.048 C1200.35962,7183.04132 1198.73019,7181.40875 1196.72736,7181.40875 Z M1184,7190.30588 C1181.97302,7190.30588 1180.36773,7191.96518 1180.36773,7193.94513 C1180.36773,7195.94202 1181.99068,7197.58428 1184,7197.58428 C1185.97803,7197.58428 1187.60164,7195.98805 1187.63095,7193.99868 C1187.6596,7191.9632 1186.01664,7190.30588 1184,7190.30588 Z M1171.27274,7181.40875 C1169.2699,7181.40875 1167.64047,7183.04132 1167.64057,7185.048 C1167.64057,7187.05336 1169.26793,7188.68508 1171.26917,7188.68706 L1171.2764,7188.68706 C1173.27745,7188.68508 1174.90491,7187.05336 1174.90491,7185.048 C1174.90491,7183.04132 1173.27548,7181.40875 1171.27274,7181.40875 Z M1162.81811,7197.69129 L1162.81811,7204.27953 L1166.01104,7204.27953 L1166.01104,7198.99605 C1166.01104,7198.21638 1166.64192,7197.58428 1167.42009,7197.58428 C1168.19827,7197.58428 1168.82915,7198.21638 1168.82915,7198.99605 L1168.82915,7204.27953 L1173.02673,7204.27953 C1173.80716,7201.32329 1176.06457,7198.94061 1178.98451,7198.00819 C1177.86816,7196.62485 1177.36118,7194.81751 1177.6134,7193.03435 C1176.49621,7192.05911 1175.05268,7191.51059 1173.55889,7191.51059 L1168.98697,7191.51059 C1165.58541,7191.51059 1162.81811,7194.2832 1162.81811,7197.69129 Z M1192.45434,7213.17647 L1192.45434,7206.58824 C1192.45434,7203.1888 1189.69381,7200.40781 1186.28577,7200.40781 L1181.71423,7200.40781 C1178.30159,7200.40781 1175.54566,7203.19379 1175.54566,7206.58824 L1175.54566,7213.17647 L1178.36377,7213.17647 L1178.36377,7209.00395 C1178.36377,7208.22428 1178.99465,7207.59219 1179.77283,7207.59219 C1180.551,7207.59219 1181.18189,7208.22428 1181.18189,7209.00395 L1181.18189,7213.17647 L1186.81811,7213.17647 L1186.81811,7209.00395 C1186.81811,7208.22428 1187.449,7207.59219 1188.22717,7207.59219 C1189.00535,7207.59219 1189.63623,7208.22428 1189.63623,7209.00395 L1189.63623,7213.17647 L1192.45434,7213.17647 Z M1205.18189,7204.27953 L1205.18189,7197.69129 C1205.18189,7194.2832 1202.41459,7191.51059 1199.01303,7191.51059 L1194.44111,7191.51059 C1192.94732,7191.51059 1191.50389,7192.05911 1190.3866,7193.03435 C1190.64737,7194.87821 1190.09286,7196.67313 1189.01549,7198.00819 C1191.9545,7198.94673 1194.198,7201.34278 1194.97327,7204.27953 L1199.17085,7204.27953 L1199.17085,7198.99605 C1199.17085,7198.21638 1199.80173,7197.58428 1200.57991,7197.58428 C1201.35808,7197.58428 1201.98896,7198.21638 1201.98896,7198.99605 L1201.98896,7204.27953 L1205.18189,7204.27953 Z M1176.39053,7175.15407 L1174.51179,7171.01289 C1174.18967,7170.30306 1174.50296,7169.46616 1175.21143,7169.14353 C1175.91962,7168.82071 1176.7551,7169.13468 1177.07721,7169.84452 L1178.95595,7173.98569 C1179.27806,7174.69553 1178.96478,7175.53242 1178.25631,7175.85506 C1177.54774,7176.17788 1176.71245,7175.86372 1176.39053,7175.15407 Z M1189.74369,7175.85506 C1189.03522,7175.53242 1188.72194,7174.69553 1189.04405,7173.98569 L1190.92279,7169.84452 C1191.24471,7169.13468 1192.08,7168.8208 1192.78857,7169.14353 C1193.49704,7169.46607 1193.81033,7170.30306 1193.48821,7171.01289 L1191.60947,7175.15407 C1191.28783,7175.86315 1190.45301,7176.17798 1189.74369,7175.85506 Z M1184,7174.94899 C1183.22182,7174.94899 1182.59094,7174.31689 1182.59094,7173.53722 L1182.59094,7169.41176 C1182.59094,7168.63209 1183.22182,7168 1184,7168 C1184.77818,7168 1185.40906,7168.63209 1185.40906,7169.41176 L1185.40906,7173.53722 C1185.40906,7174.31689 1184.77818,7174.94899 1184,7174.94899 Z" id="ic-consumers"></path>
		</g>
	</g>
</svg>