<?xml version="1.0" encoding="UTF-8"?>
<svg width="48px" height="48px" viewBox="0 0 48 48" version="1.1" xmlns="http://www.w3.org/2000/svg" xmlns:xlink="http://www.w3.org/1999/xlink">
    <!-- Generator: Sketch 61.2 (89653) - https://sketch.com -->
    <title>ic-mobile-app-development-enterprise</title>
    <desc>Created with Sketch.</desc>
    <g id="Page-1" stroke="none" stroke-width="1" fill="none" fill-rule="evenodd">
        <g id="Feature-icons" transform="translate(-400.000000, -282.000000)" fill="#FF9400" fill-rule="nonzero">
            <path d="M446.59375,327.187503 L444.987549,327.187503 L444.987549,306.000027 C444.987549,305.223295 444.358032,304.593779 443.581299,304.593779 L438.962646,304.593779 L438.962646,296.962684 C438.962646,296.589515 438.814331,296.232094 438.550659,295.968056 L434.031982,291.449384 C433.767944,291.185713 433.410522,291.037397 433.037354,291.037397 C432.664551,291.037397 432.306763,291.185713 432.043091,291.449384 L427.524414,295.968056 C427.260742,296.232094 427.112427,296.589515 427.112427,296.962684 L427.112427,301.581331 L423.900024,301.581331 L423.900024,283.406302 C423.900024,282.918876 423.647705,282.46624 423.233154,282.209893 C422.818604,281.953911 422.300781,281.930474 421.86499,282.148369 L412.827271,286.667041 C412.35083,286.905444 412.049805,287.392504 412.049805,287.924974 L412.049805,297.062293 L407.431152,297.062293 C406.654785,297.062293 406.024902,297.692175 406.024902,298.468541 L406.024902,307.606226 L404.418701,307.606226 C403.641968,307.606226 403.012451,308.235742 403.012451,309.012475 L403.012451,327.187503 L401.40625,327.187503 C400.629517,327.187503 400,327.817019 400,328.593752 C400,329.370484 400.629517,330 401.40625,330 L446.59375,330 C447.370483,330 448,329.370484 448,328.593752 C448,327.817019 447.370483,327.187503 446.59375,327.187503 L446.59375,327.187503 Z M429.924927,297.544958 L433.037354,294.432535 L436.150146,297.544958 L436.150146,310.618674 L432.937378,310.618674 L432.937378,302.987579 C432.937378,302.210847 432.307861,301.581331 431.531128,301.581331 L429.924927,301.581331 L429.924927,297.544958 Z M405.824951,310.418723 L409.037354,310.418723 L409.037354,327.187503 L405.824951,327.187503 L405.824951,310.418723 Z M410.443604,307.606226 L408.837402,307.606226 L408.837402,299.87479 L415.062622,299.87479 L415.062622,327.187503 L411.849854,327.187503 L411.849854,309.012475 C411.849854,308.235742 411.220337,307.606226 410.443604,307.606226 Z M416.468872,297.062293 L414.862671,297.062293 L414.862671,288.793992 L421.087524,285.681568 L421.087524,327.187503 L417.875122,327.187503 L417.875122,298.468541 C417.875122,297.692175 417.245239,297.062293 416.468872,297.062293 Z M423.900024,304.393828 L430.124878,304.393828 L430.124878,310.618674 L428.518677,310.618674 C427.741943,310.618674 427.112427,311.24819 427.112427,312.024923 L427.112427,327.187503 L423.900024,327.187503 L423.900024,304.393828 Z M429.924927,313.431171 L436.150146,313.431171 L436.150146,327.187503 L429.924927,327.187503 L429.924927,313.431171 Z M438.962646,327.187503 L438.962646,307.406275 L442.175049,307.406275 L442.175049,327.187503 L438.962646,327.187503 Z" id="ic-mobile-app-development-enterprise"></path>
        </g>
    </g>
</svg>