<svg width="84" height="77" xmlns="http://www.w3.org/2000/svg"><defs><linearGradient x1="0%" y1="50.015%" x2="99.993%" y2="50.015%" id="a"><stop stop-color="#FF585D" offset="0%"/><stop stop-color="#FD575C" offset="49%"/><stop stop-color="#F55259" offset="76%"/><stop stop-color="#E74955" offset="97%"/><stop stop-color="#E54854" offset="99%"/></linearGradient></defs><g fill-rule="nonzero" fill="none"><path d="M24.413 0a24.28 24.28 0 00-17.24 7.138A24.584 24.584 0 000 24.452h13.95c0-5.814 4.684-10.528 10.463-10.528 5.778 0 10.462 4.714 10.462 10.528h13.95a24.581 24.581 0 00-7.172-17.315A24.277 24.277 0 0024.413 0z" fill="url(#a)"/><path d="M76.548 7.162c-9.553-9.548-24.974-9.548-34.527 0a24.405 24.405 0 00-7.146 17.293c0 5.814-4.684 10.528-10.462 10.528-5.779 0-10.463-4.714-10.463-10.528a10.413 10.413 0 012.361-6.625l-11.606-7.8A24.36 24.36 0 000 24.454C0 38.022 10.93 49.02 24.413 49.02c13.482 0 24.412-10.997 24.412-24.564a10.455 10.455 0 013.062-7.411 10.455 10.455 0 0114.794 0 10.486 10.486 0 013.06 7.385 10.487 10.487 0 01-3.025 7.399l-.035.035-24.83 24.876-6.407-6.425-9.867 9.882L41.85 76.499l34.698-34.74a24.457 24.457 0 007.156-17.216 24.46 24.46 0 00-7.038-17.265l-.118-.116z" fill="#FF585D"/></g></svg>