<svg width="51" height="55" viewBox="0 0 51 55" fill="none" xmlns="http://www.w3.org/2000/svg">
<path d="M35.9895 21.502C35.285 21.4339 34.5749 21.4128 33.8664 21.4082C32.3282 21.3988 30.7901 21.5012 29.266 21.7132C28.4943 21.8204 27.7255 21.9563 26.9631 22.1191C26.3595 22.2489 25.7518 22.3897 25.1396 22.3709C24.5273 22.3897 23.9197 22.2489 23.3161 22.1191C22.5537 21.9565 21.7849 21.8204 21.0131 21.7132C19.4891 21.5013 17.9509 21.3988 16.4128 21.4082C15.7044 21.4128 14.9943 21.434 14.2896 21.502L14.2568 21.5051C14.2592 21.5246 14.2607 21.5442 14.2631 21.5637C14.2983 21.8952 14.3358 22.2268 14.3757 22.5583C14.4062 22.814 14.4398 23.0689 14.4718 23.3247V23.3271L14.4742 23.3481C14.5016 23.3607 14.5282 23.3747 14.5539 23.3896C14.9317 23.6054 15.1765 24.0089 15.3531 24.3991C15.5519 24.8379 15.716 25.282 16.0109 25.6699C16.5106 26.3267 17.2284 26.7912 17.9924 27.0852C18.9691 27.4606 20.0286 27.5552 21.0648 27.6099C21.5395 27.6357 22.0493 27.6921 22.5091 27.5372C22.897 27.4066 23.1879 27.1173 23.4013 26.7763C23.6596 26.3638 23.7962 25.8865 23.9941 25.4447C24.2378 24.9001 24.5055 24.4029 25.1397 24.3288C25.774 24.4029 26.0416 24.9001 26.2854 25.4447C26.4832 25.8866 26.6198 26.3638 26.8781 26.7763C27.0916 27.1173 27.3824 27.4066 27.7703 27.5372C28.2301 27.6921 28.7399 27.6357 29.2147 27.6099C30.2508 27.5552 31.3104 27.4606 32.2872 27.0852C33.0512 26.7912 33.769 26.3267 34.2687 25.6699C34.5634 25.282 34.7277 24.8379 34.9263 24.3991C35.1029 24.0089 35.3477 23.6054 35.7255 23.3896C35.7513 23.3747 35.7778 23.3607 35.8052 23.3481L35.8076 23.3271V23.3247C35.8397 23.0691 35.8733 22.8141 35.9038 22.5583C35.9436 22.2268 35.9811 21.8952 36.0164 21.5637C36.0188 21.5442 36.0203 21.5246 36.0227 21.5051L35.9895 21.502ZM23.52 24.8528C23.404 25.3695 23.2568 26.129 22.914 26.5428C22.499 27.0438 21.7758 27.0287 21.1854 26.9986C19.961 26.936 18.5939 26.8966 17.4909 26.3033C16.8083 25.9365 16.307 25.3547 16.038 24.6283C15.9028 24.2639 15.8207 23.8815 15.7636 23.4975C15.7354 23.3083 15.7135 23.1183 15.694 22.9274C15.6682 22.6694 15.5892 22.416 15.8699 22.2682C16.0482 22.1736 16.2585 22.1791 16.4548 22.1924C16.8372 22.2189 17.2196 22.2573 17.6012 22.2894C18.3723 22.3542 19.144 22.4169 19.9151 22.488C20.69 22.5591 21.4658 22.6388 22.2375 22.7436C22.9155 22.8352 23.6631 23.0337 23.6685 23.8587C23.6709 24.1919 23.5928 24.529 23.52 24.8528ZM34.5851 22.9274C34.5655 23.1183 34.5436 23.3082 34.5155 23.4975C34.4584 23.8815 34.3762 24.2639 34.241 24.6283C33.9721 25.3547 33.4707 25.9365 32.7881 26.3033C31.6852 26.8966 30.318 26.936 29.0936 26.9986C28.5033 27.0287 27.7799 27.0438 27.3649 26.5428C27.0221 26.129 26.8749 25.3695 26.7589 24.8528C26.6861 24.529 26.608 24.1919 26.6103 23.8589C26.6158 23.0339 27.3633 22.8353 28.0413 22.7438C28.813 22.639 29.5888 22.5592 30.3637 22.4881C31.1347 22.417 31.9065 22.3544 32.6775 22.2895C33.0592 22.2575 33.4416 22.2191 33.8239 22.1925C34.0203 22.1792 34.2306 22.1737 34.4089 22.2684C34.6899 22.4161 34.6109 22.6694 34.5851 22.9274Z" fill="black"/>
<path d="M50.2723 53.5316C50.1923 52.8699 49.9931 52.2326 49.6978 51.6309C49.6108 51.4535 49.5157 51.2792 49.4127 51.1083C49.2586 50.8518 49.0873 50.6028 48.9011 50.3623C47.8464 48.9994 46.3147 47.9075 44.7074 47.2544C44.4238 47.1391 44.1379 47.0375 43.8518 46.9505C42.9073 46.6633 41.9248 46.4855 40.9307 46.3915C40.8328 46.3759 40.7325 46.3639 40.6312 46.3534C40.6119 46.3514 40.5928 46.3493 40.5734 46.3474C40.4762 46.3382 40.3777 46.331 40.2777 46.3256C40.2562 46.3245 40.2344 46.3236 40.2129 46.3226C40.1163 46.3181 40.0191 46.3148 39.9205 46.3132C39.9088 46.3129 39.897 46.3127 39.8852 46.3126C39.7871 46.3113 39.6878 46.3114 39.5879 46.3123C39.5563 46.3126 39.5247 46.3128 39.4931 46.3133C39.4009 46.3147 39.3081 46.3167 39.2149 46.3193C39.1609 46.3208 39.1068 46.3226 39.0525 46.3245C39.0184 46.3256 38.9844 46.3268 38.9503 46.3281C37.6498 46.3759 36.2769 46.4882 35.1506 46.1245C35.1272 46.1524 35.1021 46.1786 35.0783 46.2063C33.039 49.8517 29.0735 52.3501 25.1448 53.9477C25.1433 53.9483 25.1418 53.949 25.1402 53.9496C21.2101 52.3521 17.2421 49.8531 15.2021 46.2063C15.1783 46.1786 15.1533 46.1524 15.1298 46.1245C15.1205 46.1275 15.1109 46.1299 15.1016 46.1328C15.0501 46.1489 14.9982 46.1642 14.9457 46.1785C14.9256 46.184 14.9053 46.1894 14.8849 46.1946C14.8365 46.207 14.7877 46.2187 14.7385 46.2296C14.7137 46.2351 14.689 46.2406 14.6641 46.2458C14.6201 46.255 14.5755 46.2632 14.5309 46.2713C14.5004 46.2768 14.4699 46.2824 14.4392 46.2874C14.4019 46.2934 14.3643 46.2988 14.3267 46.3042C14.288 46.3097 14.2494 46.3155 14.2105 46.3202C14.1856 46.3233 14.1603 46.3258 14.1351 46.3286C13.2422 46.4295 12.2677 46.3625 11.3304 46.328C11.2963 46.3267 11.2621 46.3255 11.2282 46.3243C11.1738 46.3225 11.1198 46.3207 11.0658 46.3192C10.9725 46.3166 10.8797 46.3146 10.7876 46.3132C10.7559 46.3127 10.7244 46.3126 10.6929 46.3122C10.593 46.3113 10.4937 46.3111 10.3956 46.3124C10.3838 46.3126 10.372 46.3129 10.3601 46.3131C10.2616 46.3147 10.1642 46.318 10.0678 46.3225C10.0461 46.3235 10.0244 46.3243 10.0029 46.3255C9.903 46.3309 9.80447 46.3381 9.70718 46.3473C9.68777 46.349 9.66861 46.3513 9.64945 46.3533C9.54803 46.3638 9.44787 46.3758 9.34996 46.3913C8.35569 46.4854 7.37332 46.6631 6.42876 46.9504C6.2879 46.9932 6.14716 47.0398 6.00668 47.0895C6.00217 47.0911 5.9978 47.0926 5.99329 47.0942C5.85281 47.1442 5.71269 47.1974 5.57308 47.2543C5.1728 47.4169 4.77715 47.6068 4.39239 47.8214C4.38701 47.8244 4.38174 47.8276 4.37636 47.8306C4.28771 47.8802 4.19969 47.9311 4.11229 47.9833C4.10052 47.9903 4.08876 47.9977 4.07699 48.0047C3.99623 48.0533 3.91611 48.103 3.8366 48.1537C3.82057 48.164 3.80466 48.1744 3.78876 48.1847C3.71376 48.2331 3.63927 48.2826 3.5654 48.3329C3.54687 48.3456 3.52846 48.3582 3.51006 48.371C3.43919 48.4201 3.36883 48.4699 3.29921 48.5206C3.2793 48.535 3.25952 48.5495 3.23986 48.5642C3.17225 48.6141 3.10525 48.665 3.03889 48.7165C3.01836 48.7324 2.99783 48.7485 2.97742 48.7645C2.91244 48.8158 2.8482 48.8679 2.7846 48.9208C2.76406 48.9378 2.74341 48.9548 2.723 48.972C2.66002 49.0251 2.59792 49.079 2.53644 49.1336C2.51666 49.1511 2.49663 49.1685 2.47697 49.1862C2.41512 49.2419 2.35439 49.2985 2.29416 49.3556C2.27601 49.3729 2.25761 49.3898 2.23958 49.4072C2.17773 49.4668 2.11725 49.5273 2.05727 49.5884C2.042 49.6039 2.02634 49.6192 2.01119 49.6348C1.94684 49.7012 1.88398 49.7687 1.82201 49.8368C1.81224 49.8475 1.80211 49.8581 1.79234 49.8688C1.64785 50.029 1.51 50.1934 1.37941 50.3621C1.29502 50.4712 1.21463 50.5825 1.1365 50.6949C1.12072 50.7177 1.10495 50.7406 1.08943 50.7636C1.01242 50.8769 0.937922 50.9914 0.867807 51.108C0.765011 51.2789 0.669732 51.4533 0.582713 51.6306C0.576202 51.644 0.570314 51.6575 0.563929 51.6709C0.530498 51.7403 0.497954 51.8099 0.467028 51.8802C0.452879 51.9125 0.439851 51.9453 0.426204 51.9778C0.403917 52.0308 0.381756 52.0839 0.360972 52.1375C0.347074 52.1734 0.334046 52.2096 0.320774 52.2458C0.302119 52.2967 0.283718 52.3478 0.26644 52.3993C0.253919 52.4365 0.242019 52.4739 0.230125 52.5113C0.213973 52.5628 0.198451 52.6145 0.183676 52.6665C0.173034 52.7036 0.162645 52.7408 0.152879 52.7783C0.13873 52.8321 0.12571 52.8862 0.113064 52.9403C0.1048 52.976 0.0961553 53.0117 0.0885177 53.0476C0.0757466 53.1076 0.0647282 53.1679 0.0539604 53.2284C0.0485765 53.2588 0.0423214 53.2891 0.0374383 53.3195C0.0227891 53.4106 0.0100166 53.502 0 53.5939C0 53.594 0 53.5941 0 53.5941C0 53.5942 0 53.5944 0 53.5944C1.24894 54.4787 2.77284 55.0001 4.41956 55.0001H4.42044H25.1403H25.145H45.7642H45.8611C47.5078 55.0001 49.0317 54.4787 50.2807 53.5945C50.2783 53.5733 50.2748 53.5525 50.2723 53.5316Z" fill="black"/>
<path d="M11.1814 14.2044C11.1816 14.2091 11.1817 14.2139 11.1818 14.2186C11.1866 14.3892 11.1926 14.5593 11.1996 14.7292C11.1999 14.7364 11.2002 14.7435 11.2005 14.7506C11.2335 15.5386 11.2861 16.3165 11.31 17.0596C11.3163 17.259 11.3215 17.4589 11.3266 17.6592C11.3316 17.8594 11.3362 18.06 11.3412 18.2608C11.3512 18.6624 11.3625 19.0647 11.3803 19.4663C11.3892 19.6672 11.3997 19.868 11.4125 20.0684C11.4508 20.6698 11.5094 21.2687 11.6056 21.8609C11.7449 22.7118 12.0559 23.5751 12.6623 24.1454C12.8604 23.987 13.125 23.9105 13.4689 23.9638C13.5176 24.2097 13.5752 24.4562 13.6433 24.7005C13.7884 25.2212 13.9831 25.7303 14.2478 26.1966C14.3325 26.3458 14.4236 26.4913 14.5235 26.6307C14.5525 26.6712 14.6307 26.6888 14.6553 26.6307C14.6563 26.6282 14.6572 26.6257 14.6582 26.6232C14.9234 25.994 14.9795 25.3324 14.9836 24.6623C14.9861 24.2509 14.9692 23.8363 14.9691 23.4241C14.9687 22.2012 14.9862 20.9816 14.9727 19.7583C14.9607 18.6691 14.8562 17.4805 15.1285 16.4153C15.3793 15.434 16.0629 14.8265 16.8898 14.3017C17.7423 13.7605 18.6506 13.2281 19.584 12.8405C20.049 12.6474 20.4992 12.5283 20.954 12.4778C21.0902 12.5349 21.2298 12.5786 21.3732 12.615C21.8675 12.8909 22.3897 13.1197 22.9126 13.2992C23.3948 13.4648 23.8923 13.589 24.3922 13.694C24.6108 13.7404 24.8234 13.7595 25.035 13.7661C25.0714 13.7734 25.1084 13.7778 25.1449 13.7844C25.6172 13.8693 26.0996 13.9016 26.5767 13.8744C27.8635 13.8011 29.0482 13.3364 30.0272 12.6089C30.2514 12.6687 30.4767 12.7455 30.7057 12.8405C31.6392 13.2281 32.5474 13.7605 33.3999 14.3017C34.2268 14.8265 34.9104 15.434 35.1612 16.4153C35.4334 17.4805 35.329 18.6691 35.317 19.7583C35.3035 20.9816 35.321 22.2012 35.3205 23.4241C35.3204 23.8363 35.3035 24.2509 35.306 24.6623C35.3101 25.3324 35.3661 25.994 35.6314 26.6232C35.6324 26.6257 35.6333 26.6282 35.6343 26.6307C35.6589 26.6888 35.7369 26.6712 35.766 26.6307C35.8659 26.4913 35.957 26.3458 36.0418 26.1966C36.3066 25.7303 36.5012 25.2212 36.6463 24.7005C36.7144 24.4562 36.7719 24.2097 36.8206 23.9639C37.1643 23.9105 37.4291 23.9872 37.6272 24.1456C38.2337 23.5754 38.5447 22.7121 38.6839 21.8612C38.7802 21.2689 38.8388 20.6701 38.877 20.0687C38.9153 19.4673 38.9332 18.8633 38.9482 18.2611C38.9533 18.0602 38.9579 17.8597 38.9629 17.6595C38.9679 17.4593 38.9732 17.2593 38.9794 17.0598C39.0032 16.3166 39.0559 15.5387 39.089 14.7509C39.0892 14.7438 39.0896 14.7366 39.0899 14.7295C39.0969 14.5597 39.103 14.3894 39.1076 14.2189C39.1078 14.2141 39.1079 14.2094 39.108 14.2046C39.1126 14.0311 39.1159 13.8573 39.1172 13.6836C39.1178 13.5941 39.1179 13.5046 39.1174 13.4152C39.1174 13.4129 39.1174 13.4108 39.1174 13.4086C39.1089 11.9972 38.9506 10.5987 38.3674 9.35272C38.2944 9.19671 38.2147 9.04308 38.1278 8.89221C38.0875 8.82209 38.045 8.7531 38.0014 8.68474C36.826 6.80801 34.6216 5.37877 32.371 4.45712C32.254 4.09427 32.1061 3.74206 31.9231 3.40826C31.5177 2.66779 30.9038 1.9779 30.251 1.44727C29.5653 0.889972 28.8616 0.638681 28.0368 0.366982C28.0242 0.36285 28.016 0.382132 28.0278 0.388392C28.9354 0.879079 29.7474 1.67715 30.3473 2.57601C30.3146 2.54972 30.2828 2.52255 30.2496 2.49675C29.9257 2.24559 25.9559 0.0687387 26.001 0C25.4415 0.85241 24.6337 1.30316 23.7298 1.7544C23.5643 1.83704 23.3978 1.91755 23.2311 1.99755C23.6186 1.65236 23.9929 1.28988 24.3512 0.904871C24.4213 0.829497 24.3305 0.697529 24.2374 0.757378C22.8266 1.66363 21.4295 2.60331 19.9807 3.4487C19.5891 3.67721 19.1965 3.90283 18.8003 4.12232C16.2611 5.01317 13.6171 6.5631 12.2883 8.68486C12.2447 8.7531 12.2023 8.82209 12.1619 8.89233C12.075 9.04321 11.9953 9.19684 11.9223 9.35284C11.416 10.4344 11.2301 11.6312 11.1843 12.8514C11.1836 12.87 11.1828 12.8886 11.1822 12.9072C11.1766 13.074 11.1733 13.2413 11.1723 13.4087C11.1723 13.4109 11.1722 13.4131 11.1722 13.4153C11.1717 13.5047 11.1718 13.5942 11.1724 13.6838C11.1736 13.857 11.1768 14.0307 11.1814 14.2044Z" fill="black"/>
<path d="M34.6828 30.0257C34.5974 30.1713 34.4803 30.2441 34.4096 30.3874C33.9507 31.3167 33.9283 32.2623 33.2687 33.1328C32.7036 33.8785 31.917 34.5183 31.2216 35.0753C30.8745 35.3532 30.4851 35.5855 30.0907 35.7953C30.0896 35.7459 30.0886 35.6965 30.0856 35.6474C30.0337 34.8096 29.7654 33.5346 29.0688 33.0038C28.2319 32.3663 26.8462 32.3968 25.8468 32.3852C25.6163 32.3825 25.3814 32.381 25.1453 32.381C24.909 32.381 24.6741 32.3825 24.4436 32.3852C23.4442 32.3968 22.0585 32.3663 21.2216 33.0038C20.525 33.5346 20.2567 34.8094 20.2048 35.6474C20.2018 35.6964 20.201 35.7459 20.1997 35.7953C19.8052 35.5855 19.4158 35.3531 19.0688 35.0753C18.3734 34.5185 17.5868 33.8785 17.0217 33.1329C16.3621 32.2625 16.3397 31.3168 15.8808 30.3875C15.8101 30.2443 15.693 30.1714 15.6076 30.0258C15.5791 29.9769 15.5056 29.9885 15.4896 30.0412C15.4375 30.2128 15.3832 30.2858 15.3467 30.3886C15.3482 30.3955 15.3498 30.4024 15.3513 30.4093C15.4231 30.7262 15.4944 31.0458 15.5683 31.367C15.5707 31.3773 15.5731 31.3875 15.5754 31.3977C15.5985 31.498 15.6219 31.5985 15.6456 31.6989C15.6529 31.7302 15.6606 31.7616 15.668 31.7929C15.6869 31.8728 15.706 31.9526 15.7254 32.0325C15.7352 32.0723 15.7451 32.112 15.755 32.1518C15.7728 32.2235 15.7905 32.2954 15.8088 32.3671C15.82 32.4108 15.8314 32.4545 15.8426 32.4982C15.8602 32.5661 15.8779 32.6338 15.896 32.7017C15.9082 32.7478 15.9209 32.7937 15.9334 32.8397C15.9513 32.905 15.9693 32.9703 15.9877 33.0355C16.0011 33.0828 16.0147 33.13 16.0284 33.1772C16.0468 33.241 16.0657 33.3047 16.0848 33.3682C16.0992 33.416 16.1137 33.4638 16.1285 33.5115C16.1479 33.5744 16.1678 33.6371 16.1879 33.6996C16.2033 33.7473 16.2188 33.795 16.2345 33.8426C16.2553 33.9052 16.2767 33.9677 16.2983 34.03C16.3144 34.0769 16.3304 34.1237 16.3471 34.1703C16.3696 34.2335 16.393 34.2965 16.4165 34.3593C16.4332 34.4044 16.4498 34.4496 16.467 34.4945C16.4922 34.5598 16.5184 34.6246 16.5445 34.6895C16.5614 34.7313 16.5778 34.7734 16.5951 34.8151C16.6247 34.8861 16.6556 34.9563 16.6865 35.0267C16.7018 35.0616 16.7166 35.0968 16.7322 35.1315C16.7794 35.236 16.8281 35.3399 16.8786 35.443C17.3111 36.3243 17.8735 37.0567 18.5173 37.78C18.5601 37.8281 18.6021 37.8761 18.6455 37.9242C18.7319 38.0196 18.8163 38.117 18.8994 38.2158C19.4811 38.9071 20.0009 39.6615 20.7199 40.2211C21.5303 40.8518 22.4484 41.0446 23.403 41.104C23.5939 41.1159 23.7863 41.1224 23.9796 41.126C24.3661 41.1333 24.7562 41.129 25.1453 41.1326C25.5343 41.129 25.9244 41.1333 26.311 41.126C26.5041 41.1224 26.6966 41.1157 26.8875 41.104C27.8421 41.0445 28.7602 40.8517 29.5706 40.2211C30.2896 39.6616 30.8094 38.9071 31.3911 38.2158C31.4742 38.117 31.5586 38.0196 31.645 37.9242C31.6885 37.8763 31.7305 37.8281 31.7732 37.78C32.417 37.0567 32.9795 36.3243 33.4119 35.443C33.4132 35.4405 33.4142 35.438 33.4154 35.4355C33.4647 35.3351 33.5121 35.2338 33.5582 35.1318C33.5743 35.0962 33.5895 35.0598 33.6051 35.0239C33.6356 34.9547 33.666 34.8854 33.695 34.8156C33.7128 34.773 33.7296 34.7299 33.7469 34.6872C33.7727 34.6234 33.7984 34.5595 33.8232 34.4952C33.8408 34.4497 33.8574 34.404 33.8745 34.3584C33.8977 34.296 33.921 34.2334 33.9434 34.1705C33.9601 34.1238 33.9761 34.077 33.9924 34.03C34.0139 33.9677 34.0354 33.9052 34.0561 33.8425C34.0719 33.7949 34.0873 33.7473 34.1026 33.6996C34.1227 33.637 34.1425 33.5744 34.1621 33.5117C34.1768 33.4638 34.1915 33.4159 34.2059 33.3679C34.2249 33.3047 34.2436 33.2415 34.262 33.178C34.2759 33.1302 34.2895 33.0823 34.3032 33.0345C34.3213 32.9703 34.3391 32.906 34.3566 32.8417C34.3695 32.7946 34.3824 32.7475 34.3949 32.7003C34.4127 32.6338 34.4301 32.5672 34.4473 32.5006C34.4589 32.4559 34.4706 32.4112 34.482 32.3664C34.4999 32.296 34.5174 32.2255 34.5348 32.1552C34.5451 32.114 34.5553 32.0727 34.5653 32.0315C34.5842 31.9538 34.6028 31.8763 34.6212 31.7987C34.6292 31.765 34.6373 31.7313 34.6454 31.6975C34.6685 31.5991 34.6913 31.5008 34.714 31.4027C34.7167 31.3907 34.7196 31.3786 34.7224 31.3666C34.7975 31.0398 34.8701 30.7145 34.9431 30.3921C34.9434 30.391 34.9436 30.3899 34.9439 30.3888C34.9073 30.286 34.8531 30.213 34.801 30.0413C34.7848 29.9883 34.7115 29.9768 34.6828 30.0257ZM21.8511 34.0904C22.6413 33.6565 23.9366 33.9148 24.7982 33.9557C24.914 33.9612 25.0297 33.9692 25.1453 33.9779C25.2608 33.9692 25.3765 33.9612 25.4923 33.9557C26.3538 33.9147 27.6493 33.6565 28.4393 34.0904C29.1528 34.4821 29.5214 36.3161 29.3651 37.3742C29.3319 37.599 29.2756 37.7896 29.1932 37.923C28.7561 38.631 27.4131 38.7865 26.6595 38.9444C26.3414 39.011 26.0166 39.0498 25.6904 39.068C25.5087 39.0781 25.3268 39.0836 25.1451 39.0798C24.9635 39.0836 24.7814 39.0781 24.5999 39.068C24.2737 39.0498 23.9489 39.011 23.6309 38.9444C22.8773 38.7865 21.5343 38.631 21.0972 37.923C21.0148 37.7895 20.9585 37.5989 20.9253 37.3742C20.769 36.3159 21.1375 34.482 21.8511 34.0904Z" fill="black"/>
</svg>
