<svg width="41" height="55" viewBox="0 0 41 55" fill="none" xmlns="http://www.w3.org/2000/svg">
<path d="M25.7195 22.9174C24.8529 23.1643 24.0102 23.4873 23.1822 23.8411C22.1793 24.2696 21.108 24.8192 19.9799 24.7219C19.0782 24.644 18.2363 24.1906 17.4181 23.8411C16.5902 23.4873 15.7474 23.1643 14.8809 22.9174C13.0518 22.3962 11.2105 22.7184 9.46191 23.3603C9.47977 23.4155 9.4639 24.0315 9.47866 24.2608C9.64023 26.7833 10.7329 29.4576 13.1709 30.4915C14.4983 31.0545 16.0779 30.961 17.3457 30.2824C17.9706 29.948 18.5198 29.468 18.903 28.8691C19.3562 28.1605 19.3924 27.4387 19.5558 26.6432C19.582 26.5158 19.6157 26.3862 19.6922 26.2808C19.8935 26.0038 20.707 26.0041 20.908 26.281C20.9844 26.3862 21.0182 26.5158 21.0444 26.6432C21.2078 27.4387 21.244 28.1605 21.6973 28.8691C22.0803 29.468 22.6296 29.948 23.2545 30.2824C24.5223 30.961 26.102 31.0545 27.4293 30.4915C29.8674 29.4574 30.9601 26.7833 31.1217 24.2608C31.1363 24.0315 31.1206 23.4155 31.1383 23.3603C29.3898 22.7186 27.5485 22.3963 25.7195 22.9174ZM18.4796 28.5567C17.7932 29.7413 16.239 30.2708 14.9368 30.2083C13.3948 30.1343 12.0483 29.2422 11.2421 27.9492C10.7643 27.1828 10.4289 26.0804 10.5329 25.1756C10.6567 24.0985 11.7898 23.8671 12.6928 23.8724C14.4754 23.883 17.1618 23.9777 18.4796 25.3734C19.2014 26.138 18.9497 27.7453 18.4796 28.5567ZM29.3583 27.9492C28.5523 29.2422 27.2056 30.1344 25.6636 30.2083C24.3614 30.2708 22.8072 29.7413 22.1207 28.5567C21.6505 27.7452 21.3989 26.138 22.1209 25.3734C23.4386 23.9777 26.1251 23.883 27.9076 23.8724C28.8106 23.8671 29.9438 24.0985 30.0675 25.1756C30.1716 26.0804 29.836 27.1828 29.3583 27.9492Z" fill="black"/>
<path d="M40.5934 54.0304C40.5895 53.3154 40.5035 52.6175 40.3005 51.9217C40.2106 51.6162 40.0957 51.3162 39.9536 51.0267C39.8115 50.7371 39.642 50.4577 39.4428 50.1935C39.2039 49.8764 38.9222 49.5813 38.5939 49.3162C38.2033 49.0003 37.7663 48.7426 37.2984 48.5277C37.1376 48.4538 36.9732 48.385 36.8057 48.3207C36.6383 48.2562 36.4678 48.1963 36.2951 48.1401C36.1224 48.0839 35.9471 48.0315 35.7703 47.9823C35.0629 47.7853 34.3279 47.639 33.6061 47.5031C33.4256 47.4691 33.2461 47.4358 33.0679 47.4025C32.9383 47.3783 32.8096 47.3542 32.6817 47.3297C32.2621 47.2495 31.8426 47.1669 31.4256 47.0768C31.1476 47.0166 30.8707 46.9531 30.5954 46.8847C30.1826 46.782 29.7737 46.6682 29.3712 46.538C29.2198 46.4889 29.071 46.436 28.9247 46.3797C28.9124 46.375 28.9007 46.3695 28.8885 46.3646C28.4615 46.1976 28.0574 45.9997 27.683 45.769C26.8417 46.4714 25.8908 47.0551 24.9396 47.5904C23.5402 48.3778 22.1321 49.1505 20.7208 49.9175C20.5807 49.9936 20.4404 50.0697 20.3003 50.1459C20.4404 50.0697 20.5807 49.9936 20.7208 49.9175C20.5793 49.8381 20.4402 49.755 20.3003 49.6728C19.5495 49.232 18.82 48.7543 18.1154 48.2456C16.6849 47.213 15.3541 46.0563 14.0232 44.9009C13.9343 44.9893 13.8419 45.0745 13.747 45.1573C13.7395 45.1639 13.7322 45.1705 13.7246 45.177C13.6349 45.2544 13.5426 45.3291 13.4479 45.4013C13.4324 45.4131 13.417 45.4249 13.4014 45.4367C13.3121 45.5035 13.2211 45.5684 13.1276 45.6309C13.1028 45.6475 13.0777 45.6636 13.0527 45.68C12.9655 45.7367 12.8773 45.792 12.7869 45.8449C12.7508 45.8661 12.7139 45.8863 12.6772 45.907C12.5945 45.9535 12.5116 45.9995 12.4264 46.0431C12.3757 46.0691 12.3236 46.0933 12.272 46.1183C12.1973 46.1544 12.123 46.191 12.0466 46.2249C11.9737 46.2574 11.8988 46.2871 11.8244 46.3176C11.7654 46.3417 11.7075 46.3671 11.6476 46.39C11.5103 46.4425 11.371 46.4921 11.2294 46.5381C10.8269 46.6684 10.4181 46.7821 10.0051 46.8848C9.72984 46.9533 9.45282 47.0168 9.17455 47.0769C8.75728 47.167 8.33728 47.2496 7.91691 47.3299C7.78931 47.3543 7.6606 47.3785 7.53114 47.4026C7.35319 47.4359 7.17363 47.4692 6.99333 47.5032C6.27212 47.639 5.53739 47.7853 4.82995 47.9824C4.65312 48.0316 4.47791 48.0841 4.30517 48.1402C4.13243 48.1964 3.96192 48.2564 3.79452 48.3208C3.62711 48.3851 3.46256 48.454 3.30173 48.5279C2.83386 48.7428 2.39662 49.0004 2.00576 49.3163C1.67776 49.5814 1.39629 49.8765 1.15733 50.1936C0.958304 50.4577 0.788664 50.7371 0.646555 51.0268C0.504447 51.3165 0.389614 51.6164 0.299959 51.9218C0.0969643 52.6176 0.0111542 53.3155 0.00607002 54.0305C0.00408595 54.3537 0.00917629 54.6768 0 55H7.72632H11.3718H12.6847H20.3002H20.3043H40.5994C40.5914 54.6767 40.5965 54.3536 40.5934 54.0304Z" fill="black"/>
<path d="M21.999 34.6724C21.7092 34.465 21.391 34.2613 21.0336 34.1819C20.7632 34.1215 20.518 34.2206 20.3001 34.3725C20.0824 34.2206 19.8371 34.1215 19.5668 34.1819C19.2093 34.2613 18.8912 34.4649 18.6013 34.6724C18.3276 34.8694 17.6984 35.4976 17.249 35.5902C17.265 35.6045 17.281 35.6186 17.296 35.6327C18.2113 36.4974 19.0416 37.1601 20.3001 37.3605C21.5587 37.1601 22.389 36.4974 23.3043 35.6327C23.3193 35.6187 23.3353 35.6045 23.3513 35.5902C22.9019 35.4976 22.2727 34.8694 21.999 34.6724Z" fill="black"/>
<path d="M29.3049 8.66668C29.323 8.65143 29.3413 8.63654 29.3591 8.62116C30.5661 7.56738 30.9983 5.778 30.4834 4.30347C29.9615 2.8086 28.6721 1.65363 27.2007 1.00546C26.1122 0.526063 24.7832 0.325922 23.673 0.720875C22.6209 0.266028 21.3673 -0.0526625 20.2135 0.00723143C19.1035 -0.0267457 17.9109 0.279171 16.9 0.711573C15.7951 0.329145 14.4786 0.529907 13.3988 1.00546C11.9273 1.65351 10.6379 2.8086 10.116 4.30347C9.60127 5.778 10.0334 7.5675 11.2405 8.62116C11.2582 8.63666 11.2766 8.65155 11.2947 8.66668C7.0618 11.3082 4.6049 16.4913 6.18794 21.3169C6.44425 22.0983 6.7715 22.8114 7.26839 23.461C7.6182 24.1506 8.12761 24.6828 8.64941 25.2799C8.81062 25.4644 8.97295 25.6545 9.13229 25.858C9.13589 25.8627 9.14011 25.8665 9.14383 25.871C9.2403 25.9876 9.36442 26.0579 9.47206 26.1551C9.51087 26.1901 9.54758 26.2286 9.57982 26.2744C9.59049 26.2895 9.61244 26.2801 9.60922 26.2621C9.56631 26.0203 9.58441 25.853 9.54956 25.6604C9.16019 23.5134 10.7199 21.2088 12.0809 19.6827C12.2435 19.5003 12.4145 19.3168 12.5924 19.1356C12.704 19.0271 12.8163 18.9195 12.929 18.8132C13.0837 18.6674 13.2448 18.5176 13.4119 18.3714C13.6998 18.1286 14.0009 17.9026 14.3128 17.7046C14.6552 17.5047 15.0221 17.3575 15.4181 17.3098C16.5755 17.1701 17.2945 17.9769 18.2306 18.4732C18.6789 18.8799 19.1718 19.2386 19.6906 19.5593C19.8889 19.6819 20.0931 19.795 20.3 19.9033C21.11 20.3271 21.9764 20.6517 22.8401 20.9418C24.0717 21.3556 25.593 21.7092 26.5178 22.6443C26.523 22.6495 26.531 22.6415 26.5258 22.6362C26.1378 22.2411 25.7471 21.7448 25.3058 21.4192C24.8183 21.0596 24.3449 20.7772 23.7924 20.5208C23.7064 20.4809 23.6208 20.4411 23.5351 20.4013C24.7422 20.7453 25.948 21.0888 27.1173 21.5575C28.9037 22.2735 30.8655 23.4287 30.9002 25.5395C30.8653 25.732 30.8835 25.8991 30.8406 26.1411C30.8375 26.1589 30.8589 26.1684 30.8697 26.1537C30.9586 26.0331 31.0589 25.9182 31.1652 25.8061C31.2793 25.6858 31.4007 25.5692 31.5253 25.4543C31.5373 25.4433 31.5489 25.432 31.561 25.421C31.6281 25.3782 31.6915 25.3326 31.7531 25.2857C32.073 25.0428 32.3264 24.749 32.5678 24.4386C32.7526 24.2235 32.9284 24.0005 33.0868 23.7663C33.1144 23.7322 33.1421 23.6982 33.1705 23.6643C33.7607 22.9615 34.1284 22.1804 34.4116 21.3168C35.9947 16.4913 33.5378 11.3083 29.3049 8.66668Z" fill="black"/>
</svg>
