<svg width="45" height="55" viewBox="0 0 45 55" fill="none" xmlns="http://www.w3.org/2000/svg">
<path d="M34.4114 18.5101C33.6705 17.9374 32.8697 17.7086 31.9318 17.767C31.1487 17.8153 30.3745 17.8359 29.5984 18.0027C28.7096 18.1919 27.7893 18.2384 26.8866 18.3742C26.2935 18.4637 25.6918 18.5548 25.1216 18.725C23.2439 19.2874 21.0706 19.2891 19.1929 18.725C18.621 18.5548 18.021 18.4635 17.4279 18.3742C16.5251 18.2383 15.6047 18.1919 14.7143 18.0027C13.9382 17.8359 13.1639 17.8153 12.3827 17.767C11.4448 17.7086 10.6423 17.9374 9.90134 18.5101C9.46841 18.8438 9.23787 19.2307 9.26254 19.7467C9.28372 20.206 9.35411 20.6618 9.42088 21.1176C9.43315 21.2053 9.52639 21.2828 9.5933 21.3791C9.90831 21.2999 10.2058 21.2225 10.5243 21.1417C10.6122 21.257 10.7055 21.3481 10.7601 21.4582C10.9853 21.9192 11.2 22.3836 11.4165 22.8497C11.6858 23.4294 11.9162 24.0313 12.2277 24.5904C12.6201 25.2922 13.2254 25.7789 14.0578 25.9079C15.3003 26.1005 16.5532 26.2261 17.7991 25.9681C18.9957 25.7222 19.8914 25.1029 20.3139 23.9059C20.5638 23.1972 20.687 22.4731 20.7943 21.7404C20.8207 21.5632 20.8154 21.3809 20.8541 21.2072C21.1551 19.919 23.1576 19.9137 23.4586 21.2072C23.499 21.3809 23.4938 21.5632 23.5184 21.7404C23.6257 22.4731 23.7489 23.1972 23.9988 23.9059C24.423 25.1029 25.3187 25.7222 26.5153 25.9681C27.7594 26.2261 29.0142 26.1005 30.2565 25.9079C31.0871 25.7788 31.6925 25.292 32.085 24.5904C32.3982 24.0314 32.6287 23.4294 32.898 22.8497C33.1128 22.3836 33.3275 21.9192 33.5545 21.4582C33.6074 21.3481 33.7024 21.257 33.7886 21.1417C34.1089 21.2225 34.4063 21.2999 34.7195 21.3791C34.7864 21.2828 34.8814 21.2054 34.8938 21.1176C34.9607 20.6618 35.0311 20.206 35.0521 19.7467C35.0747 19.2309 34.846 18.8438 34.4114 18.5101ZM19.5694 22.3767C19.3828 23.0698 19.177 23.8884 18.6262 24.3994C17.998 24.9825 16.9385 25.0014 16.1273 24.9567C15.2861 24.9103 14.3622 24.6867 13.7094 24.1397C13.1867 23.7029 10.5647 19.9688 11.9074 19.6953C12.7486 19.5251 13.6073 19.4356 14.4661 19.4253C15.7719 19.4098 17.0811 19.5802 18.3411 19.9258C19.5746 20.2662 19.8738 21.2467 19.5694 22.3767ZM30.6049 24.1396C29.952 24.6866 29.0263 24.9101 28.1851 24.9565C27.3757 25.0013 26.3144 24.9823 25.6862 24.3993C25.1355 23.8884 24.9295 23.0697 24.743 22.3765C24.4404 21.2465 24.7395 20.2661 25.9731 19.9256C27.2331 19.5799 28.5406 19.4095 29.8481 19.425C30.7069 19.4353 31.564 19.5248 32.4068 19.695C33.7479 19.9686 31.1258 23.7028 30.6049 24.1396Z" fill="black"/>
<path d="M25.5832 32.2563C25.3923 32.1986 25.2164 32.1073 25.0508 31.9992C24.8765 31.8856 24.7136 31.7534 24.5568 31.6204C24.1736 31.2962 23.8091 30.9887 23.3144 30.8476C23.0514 30.7729 22.7683 30.7814 22.5195 30.8942C22.3485 30.9728 22.2466 31.1069 22.157 31.2528C22.1557 31.2509 22.1543 31.2489 22.1531 31.247C22.0643 31.1033 21.963 30.9717 21.7944 30.8942C21.5456 30.7814 21.2627 30.7729 20.9995 30.8476C20.5048 30.9887 20.1403 31.2962 19.7572 31.6204C19.7137 31.6573 19.6695 31.6941 19.6249 31.7305C19.3563 31.9503 19.0667 32.1548 18.7307 32.2563C18.6421 32.283 18.4291 32.3535 18.2461 32.3775C18.8711 32.7235 19.3962 33.2853 19.9428 33.7354C19.9801 33.7661 20.0171 33.7977 20.0546 33.8273C20.4349 34.1263 20.848 34.4124 21.3098 34.5747C21.5143 34.6466 21.7243 34.7072 21.9388 34.7368C22.0042 34.7449 22.0696 34.7489 22.135 34.7525C22.135 34.7534 22.135 34.7542 22.135 34.755C22.141 34.7547 22.1471 34.7543 22.1531 34.7539C22.1543 34.7538 22.1557 34.7538 22.157 34.7536C22.1642 34.754 22.1716 34.7546 22.179 34.7549C22.179 34.754 22.179 34.7532 22.179 34.7524C22.2444 34.7488 22.3097 34.7447 22.3753 34.7366C22.5896 34.7071 22.7998 34.6463 23.0043 34.5745C23.4661 34.4123 23.8792 34.1261 24.2595 33.8271C24.4532 33.6746 24.6432 33.505 24.8349 33.3333C25.2244 32.9841 25.6204 32.6252 26.068 32.3775C25.885 32.3535 25.6719 32.283 25.5832 32.2563Z" fill="black"/>
<path d="M40.9816 36.9839C40.4096 35.9502 39.8649 34.8873 39.9355 33.6718C39.9474 33.4683 39.9744 33.2657 40.0126 33.0644C40.2571 32.5737 40.515 32.0966 40.7303 31.6389C41.2851 30.4573 41.6981 29.2297 41.9634 27.9542C42.511 25.3295 42.3303 22.6456 41.7349 20.0448C41.1064 17.2983 39.9562 14.6938 38.5829 12.2422C37.8899 11.0055 37.1341 9.80369 36.3452 8.62393C35.7969 7.80518 35.2428 6.69693 34.4791 5.98132C33.1237 3.85611 30.7692 2.40538 28.4515 1.48543C27.6353 1.1608 26.7884 0.872416 25.9391 0.645357C24.7755 0.333133 23.5666 0.110672 22.3463 0C21.1258 0.110115 19.9168 0.332707 18.7532 0.644931C15.2945 1.5745 11.627 3.47474 9.68839 6.60869C9.19455 7.25516 8.78587 8.01858 8.3804 8.62393C7.59147 9.80369 6.83572 11.0055 6.1427 12.2422C4.76947 14.6938 3.61926 17.2983 2.99077 20.0448C2.39545 22.6456 2.21481 25.3295 2.76218 27.9542C3.02757 29.2297 3.44057 30.4573 3.99532 31.6389C4.21067 32.0966 4.46854 32.5737 4.71302 33.0644C4.75135 33.2658 4.77839 33.4683 4.7901 33.6718C4.86063 34.8873 4.31591 35.9502 3.74401 36.9839C3.17657 38.0094 2.5984 39.0287 2.10971 40.0951C1.14879 42.1921 0.339095 44.1704 0.000108365 46.4691C-0.00142488 46.4799 0.0137686 46.4847 0.016835 46.4737C0.677802 44.1044 2.08156 41.9576 3.58511 40.0433C4.38755 39.0216 5.38876 37.9623 6.14451 36.8012C6.12221 36.8596 6.10158 36.9187 6.0783 36.9767C5.98617 37.1076 5.89403 37.2348 5.79995 37.3582C4.71427 38.7941 3.62484 40.1673 2.80274 41.7746C2.73458 41.8649 2.66628 41.9534 2.59993 42.0456C1.90691 43.0115 1.44052 44.121 1.20273 45.2842C1.0147 46.2076 0.928139 47.2141 0.952113 48.2279C0.925351 48.5733 0.911133 48.9199 0.907091 49.2674C1.11199 49.0347 1.33947 48.8146 1.59189 48.6105C3.34927 47.1903 5.94115 46.8167 8.23669 46.3774C9.49688 46.1367 10.7536 45.8778 11.9604 45.4874C13.3 45.0527 14.4727 44.3647 15.339 43.4031C16.6329 41.9668 17.047 40.1445 17.077 38.3516C17.0796 37.9883 17.0704 37.6268 17.052 37.2688C17.0399 37.0659 17.0241 36.8645 17.0052 36.6651C16.5899 36.3255 16.19 35.9651 15.809 35.5821C14.0788 33.8441 12.772 31.7245 11.7912 29.4857C11.2569 28.2683 10.818 27.0124 10.4564 25.7324C9.28264 25.0613 8.50194 24.0495 8.31949 22.9935C8.18679 22.2253 8.47783 21.0683 9.53145 21.454C9.30899 20.0289 9.16138 18.5924 9.06883 17.1616C9.9588 17.7511 11.1405 18.0171 12.1467 18.1128C12.7157 18.1668 13.2897 18.1529 13.8576 18.0815C13.9595 18.096 14.0613 18.1112 14.1632 18.1222C14.4374 18.1515 14.7152 18.1687 14.9943 18.1786C17.4134 18.2637 19.9762 17.6239 21.9999 16.3435C22.0515 16.3109 22.1022 16.2757 22.1531 16.2408C23.2607 15.4806 24.206 14.1896 24.9649 12.8992C24.8632 13.2911 24.744 13.679 24.6215 14.0593C24.1695 15.4632 23.4419 16.8317 22.1531 17.6327C22.0964 17.668 22.0402 17.7037 21.9812 17.7367L21.9863 17.7485C22.0429 17.7292 22.0978 17.7063 22.1532 17.6843C23.4835 17.1566 24.4895 15.883 25.1931 14.6701C25.5623 14.0336 25.841 13.3608 26.0577 12.6622C26.5806 13.6229 27.7092 14.5339 28.3259 15.0139C28.8958 15.4575 29.7708 15.9811 30.7331 16.3947C32.3393 17.0849 34.1884 17.4675 35.2674 16.6552C35.1784 18.2533 35.0233 19.8607 34.7746 21.454C35.8282 21.0682 36.1193 22.2253 35.9866 22.9935C35.8041 24.0496 35.0234 25.0613 33.8497 25.7324C33.488 27.0123 33.049 28.2683 32.5149 29.4857C31.534 31.7245 30.2273 33.844 28.4971 35.5821C28.1187 35.9625 27.7216 36.3206 27.3095 36.6582C27.2892 36.8726 27.2725 37.0893 27.2599 37.3079C27.2581 37.3448 27.2557 37.3816 27.2541 37.4185C27.2535 37.4287 27.2531 37.4389 27.2527 37.4491C27.2418 37.705 27.2361 37.9628 27.2359 38.2214C27.2484 40.056 27.6509 41.932 28.9762 43.4031C29.8425 44.3647 31.0129 45.0527 32.3547 45.4874C33.5616 45.878 34.8183 46.1368 36.0762 46.3774C38.374 46.8167 40.9659 47.1902 42.7221 48.6105C43.1571 48.9618 43.5189 49.36 43.8153 49.7898C43.827 49.2674 43.8138 48.7461 43.7737 48.2279C43.7976 47.2141 43.7109 46.2076 43.523 45.2842C43.2852 44.121 42.8189 43.0115 42.1258 42.0456C42.0595 41.9534 41.9913 41.8649 41.923 41.7746C41.1009 40.1673 40.0115 38.7941 38.926 37.3582C38.832 37.2347 38.7397 37.1076 38.6476 36.9767C38.6243 36.9185 38.6037 36.8596 38.5814 36.8012C39.3371 37.9621 40.3383 39.0216 41.1408 40.0433C42.6442 41.9575 44.048 44.1044 44.7089 46.4737C44.712 46.4847 44.7272 46.4799 44.7257 46.4691C44.3867 44.1702 43.5768 42.1921 42.6161 40.0951C42.1271 39.0287 41.5489 38.0092 40.9816 36.9839Z" fill="black"/>
<path d="M37.1407 46.4454C34.9147 47.5299 32.788 48.9028 30.5397 49.9099C27.9421 51.0733 25.1743 51.9683 22.3626 52.4974C19.5511 51.9683 16.7832 51.0733 14.1856 49.9099C11.9373 48.9028 9.81053 47.5299 7.58454 46.4454C6.74669 46.6018 5.88766 46.7659 5.05566 46.9851C5.80333 48.2113 6.53747 49.4574 7.18144 50.7412C7.88282 52.1395 8.42127 53.5559 8.88055 55H22.3626H35.8447C36.304 53.5559 36.8424 52.1395 37.5438 50.7412C38.1877 49.4574 38.9218 48.2113 39.6695 46.9851C38.8376 46.7659 37.9786 46.6018 37.1407 46.4454Z" fill="black"/>
</svg>
