<?xml version="1.0" encoding="UTF-8"?>
<svg width="36px" height="48px" viewBox="0 0 36 48" version="1.1" xmlns="http://www.w3.org/2000/svg" xmlns:xlink="http://www.w3.org/1999/xlink">
	<g id="Page-1" stroke="none" stroke-width="1" fill="none" fill-rule="evenodd">
		<g id="Services-Black-White" transform="translate(-770.000000, -7168.000000)" fill="#4BD965" fill-rule="nonzero">
			<path d="M800.820999,7174.02503 C803.676744,7174.02503 806,7176.34516 806,7179.19694 L806,7214.59375 C806,7215.37038 805.3695,7216 804.591795,7216 L771.408205,7216 C770.6305,7216 770,7215.37038 770,7214.59375 L770,7179.19694 C770,7176.34516 772.32335,7174.02503 775.179095,7174.02503 L776.0335,7174.02503 L776.0335,7173.17181 C776.0335,7170.32003 778.356756,7168 781.212501,7168 L794.787687,7168 C797.643432,7168 799.966688,7170.32003 799.966594,7173.17181 L799.966594,7174.02503 L800.820999,7174.02503 Z M778.849909,7173.17181 L778.849909,7174.02503 L797.150279,7174.02503 L797.150279,7173.17181 C797.150279,7171.87084 796.090464,7170.8125 794.787687,7170.8125 L781.212501,7170.8125 C779.909724,7170.8125 778.849909,7171.87084 778.849909,7173.17181 Z M790.262656,7206.9625 L789.408252,7206.9625 L789.408252,7213.1875 L792.625248,7213.1875 L792.625248,7209.32191 C792.625248,7208.02094 791.565433,7206.9625 790.262656,7206.9625 Z M786.591842,7213.1875 L786.591842,7206.9625 L785.737532,7206.9625 C784.434754,7206.9625 783.374846,7208.02094 783.374846,7209.32191 L783.374846,7213.1875 L786.591842,7213.1875 Z M803.183685,7213.1875 L803.183685,7179.19694 C803.183685,7177.89597 802.12387,7176.83753 800.821093,7176.83753 L775.179189,7176.83753 C773.876412,7176.83753 772.816503,7177.89597 772.816503,7179.19694 L772.816503,7213.1875 L780.558437,7213.1875 L780.558437,7209.32191 C780.558437,7206.47013 782.881786,7204.15 785.737532,7204.15 L790.262562,7204.15 C793.118307,7204.15 795.441563,7206.47013 795.441563,7209.32191 L795.441563,7213.1875 L803.183685,7213.1875 Z M779.043866,7180.04959 C779.439415,7180.04959 779.825951,7180.20969 780.10634,7180.48869 C780.385728,7180.76859 780.54595,7181.15569 780.54595,7181.54959 C780.54595,7181.94459 780.385728,7182.33159 780.10634,7182.61059 C779.826051,7182.88959 779.439415,7183.04959 779.043866,7183.04959 C778.648317,7183.04959 778.26188,7182.88959 777.981491,7182.61059 C777.702103,7182.33069 777.541781,7181.94459 777.541781,7181.54959 C777.541781,7181.15569 777.702103,7180.76869 777.981491,7180.48869 C778.26178,7180.20969 778.648317,7180.04959 779.043866,7180.04959 Z M785.077553,7180.04959 C785.472101,7180.04959 785.859639,7180.20969 786.139026,7180.48869 C786.419315,7180.76859 786.579638,7181.15569 786.579638,7181.54959 C786.579638,7181.94459 786.419415,7182.33059 786.139026,7182.61059 C785.859639,7182.88959 785.473002,7183.04959 785.077553,7183.04959 C784.682004,7183.04959 784.294466,7182.88959 784.015078,7182.61059 C783.73569,7182.33069 783.575468,7181.94459 783.575468,7181.54959 C783.575468,7181.15569 783.73569,7180.76869 784.015078,7180.48869 C784.294466,7180.20969 784.682004,7180.04959 785.077553,7180.04959 Z M779.043866,7186.075 C779.439415,7186.075 779.825951,7186.2349 780.10634,7186.514 C780.385728,7186.794 780.54595,7187.18 780.54595,7187.575 C780.54595,7187.97 780.385728,7188.357 780.10634,7188.636 C779.826051,7188.915 779.439415,7189.075 779.043866,7189.075 C778.648317,7189.075 778.26188,7188.915 777.981491,7188.636 C777.702103,7188.357 777.541781,7187.97 777.541781,7187.575 C777.541781,7187.18 777.702103,7186.7941 777.981491,7186.514 C778.26178,7186.235 778.648317,7186.075 779.043866,7186.075 Z M785.077553,7186.075 C785.472101,7186.075 785.859639,7186.2349 786.139928,7186.514 C786.419315,7186.794 786.579638,7187.18 786.579638,7187.575 C786.579638,7187.97 786.419315,7188.357 786.139928,7188.636 C785.859639,7188.915 785.472,7189.075 785.077553,7189.075 C784.682004,7189.075 784.294466,7188.915 784.015078,7188.636 C783.73569,7188.357 783.575468,7187.97 783.575468,7187.575 C783.575468,7187.18 783.73569,7186.7941 784.015078,7186.514 C784.294466,7186.235 784.682004,7186.075 785.077553,7186.075 Z M779.043866,7192.10022 C779.439415,7192.10022 779.825951,7192.26032 780.10634,7192.53932 C780.385728,7192.81832 780.54595,7193.20532 780.54595,7193.60022 C780.54595,7193.99432 780.385728,7194.38132 780.10634,7194.66032 C779.826051,7194.94022 779.439415,7195.10022 779.043866,7195.10022 C778.648317,7195.10022 778.26188,7194.94032 777.981491,7194.66032 C777.702103,7194.38132 777.541781,7193.99422 777.541781,7193.60022 C777.541781,7193.20532 777.702103,7192.81832 777.981491,7192.53932 C778.26178,7192.26032 778.648317,7192.10022 779.043866,7192.10022 Z M785.077553,7192.10022 C785.472101,7192.10022 785.859639,7192.26032 786.139928,7192.53932 C786.419315,7192.81832 786.579638,7193.20532 786.579638,7193.60022 C786.579638,7193.99432 786.419315,7194.38132 786.139928,7194.66032 C785.859639,7194.94022 785.472,7195.10022 785.077553,7195.10022 C784.682004,7195.10022 784.294466,7194.94032 784.015078,7194.66032 C783.73569,7194.38132 783.575468,7193.99422 783.575468,7193.60022 C783.575468,7193.20532 783.73569,7192.81832 784.015078,7192.53932 C784.294466,7192.26032 784.682004,7192.10022 785.077553,7192.10022 Z M779.043866,7198.12469 C779.439415,7198.12469 779.826953,7198.28469 780.10634,7198.56459 C780.385728,7198.84359 780.54595,7199.22969 780.54595,7199.62469 C780.54595,7200.01959 780.385728,7200.40659 780.10634,7200.68559 C779.826953,7200.96459 779.439415,7201.12469 779.043866,7201.12469 C778.648317,7201.12469 778.26188,7200.96459 777.981491,7200.68559 C777.702103,7200.40659 777.541781,7200.01959 777.541781,7199.62469 C777.541781,7199.22959 777.702103,7198.84359 777.981491,7198.56459 C778.26178,7198.28469 778.648317,7198.12469 779.043866,7198.12469 Z M785.077553,7198.12469 C785.473002,7198.12469 785.859639,7198.28469 786.139026,7198.56459 C786.419315,7198.84359 786.579638,7199.22969 786.579638,7199.62469 C786.579638,7200.01959 786.419415,7200.40659 786.139026,7200.68559 C785.859639,7200.96459 785.473002,7201.12469 785.077553,7201.12469 C784.682004,7201.12469 784.294466,7200.96459 784.015078,7200.68559 C783.73569,7200.40659 783.575468,7200.01959 783.575468,7199.62469 C783.575468,7199.22959 783.73569,7198.84359 784.015078,7198.56459 C784.294466,7198.28469 784.682004,7198.12469 785.077553,7198.12469 Z M791.110696,7180.04959 C791.506363,7180.04959 791.894018,7180.20969 792.173489,7180.48869 C792.452961,7180.76859 792.613231,7181.15569 792.613231,7181.54959 C792.613231,7181.94459 792.452961,7182.33159 792.173489,7182.61059 C791.894018,7182.88959 791.506363,7183.04959 791.110696,7183.04959 C790.714928,7183.04959 790.328275,7182.88959 790.048904,7182.61059 C789.769432,7182.33159 789.609062,7181.94459 789.609062,7181.54959 C789.609062,7181.15469 789.769432,7180.76869 790.048904,7180.48869 C790.328275,7180.20969 790.71603,7180.04959 791.110696,7180.04959 Z M797.143895,7180.04959 C797.539544,7180.04959 797.926081,7180.20969 798.20637,7180.48869 C798.485758,7180.76859 798.64598,7181.15469 798.64598,7181.54959 C798.64598,7181.94459 798.485758,7182.33159 798.20637,7182.61059 C797.926081,7182.88959 797.539444,7183.04959 797.143895,7183.04959 C796.748446,7183.04959 796.360908,7182.88959 796.08152,7182.61059 C795.802133,7182.33159 795.64181,7181.94459 795.64181,7181.54959 C795.64181,7181.15569 795.802133,7180.76869 796.08152,7180.48869 C796.361809,7180.20969 796.748446,7180.04959 797.143895,7180.04959 Z M791.110302,7186.075 C791.505851,7186.075 791.892387,7186.2349 792.172776,7186.514 C792.452164,7186.794 792.612386,7187.18 792.612386,7187.575 C792.612386,7187.97 792.452164,7188.357 792.172776,7188.636 C791.892387,7188.915 791.505851,7189.075 791.110302,7189.075 C790.715654,7189.075 790.328116,7188.915 790.048828,7188.636 C789.768439,7188.357 789.608217,7187.97 789.608217,7187.575 C789.608217,7187.18 789.768339,7186.7941 790.048828,7186.514 C790.328116,7186.235 790.715754,7186.075 791.110302,7186.075 Z M797.143895,7186.075 C797.539544,7186.075 797.926081,7186.2349 798.20637,7186.514 C798.485758,7186.794 798.64598,7187.18 798.64598,7187.575 C798.64598,7187.97 798.485758,7188.3559 798.20637,7188.636 C797.926081,7188.915 797.539444,7189.075 797.143895,7189.075 C796.748446,7189.075 796.36191,7188.915 796.08152,7188.636 C795.802133,7188.356 795.64181,7187.97 795.64181,7187.575 C795.64181,7187.18 795.802133,7186.7941 796.08152,7186.514 C796.361809,7186.235 796.748446,7186.075 797.143895,7186.075 Z M791.110696,7192.10022 C791.506363,7192.10022 791.894018,7192.26032 792.173489,7192.53932 C792.452961,7192.81832 792.613231,7193.20532 792.613231,7193.60022 C792.613231,7193.99432 792.452961,7194.38132 792.173489,7194.66032 C791.894018,7194.94022 791.506363,7195.10022 791.110696,7195.10022 C790.715929,7195.10022 790.328275,7194.94032 790.048904,7194.66032 C789.769432,7194.38132 789.609062,7193.99522 789.609062,7193.60022 C789.609062,7193.20532 789.769432,7192.81832 790.048904,7192.53932 C790.328275,7192.26032 790.71603,7192.10022 791.110696,7192.10022 Z M797.143895,7192.10022 C797.539544,7192.10022 797.926081,7192.26032 798.20637,7192.53932 C798.485758,7192.81832 798.64598,7193.20532 798.64598,7193.60022 C798.64598,7193.99432 798.485758,7194.38132 798.20637,7194.66032 C797.926081,7194.94022 797.539444,7195.10022 797.143895,7195.10022 C796.748446,7195.10022 796.36191,7194.94032 796.08152,7194.66032 C795.802133,7194.38132 795.64181,7193.99422 795.64181,7193.60022 C795.64181,7193.20532 795.802133,7192.81832 796.08152,7192.53932 C796.361809,7192.26032 796.748446,7192.10022 797.143895,7192.10022 Z M791.110302,7198.12469 C791.505851,7198.12469 791.893388,7198.28469 792.172776,7198.56459 C792.452164,7198.84359 792.612386,7199.22969 792.612386,7199.62469 C792.612386,7200.01959 792.452164,7200.40659 792.172776,7200.68559 C791.893388,7200.96459 791.505851,7201.12469 791.110302,7201.12469 C790.715654,7201.12469 790.328116,7200.96459 790.048828,7200.68559 C789.768439,7200.40659 789.608217,7200.01959 789.608217,7199.62469 C789.608217,7199.22959 789.768339,7198.84359 790.048828,7198.56459 C790.328116,7198.28469 790.715754,7198.12469 791.110302,7198.12469 Z M797.143895,7198.12469 C797.539544,7198.12469 797.926081,7198.28469 798.20637,7198.56459 C798.485758,7198.84359 798.64598,7199.22969 798.64598,7199.62469 C798.64598,7200.01959 798.485758,7200.40659 798.20637,7200.68559 C797.926081,7200.96459 797.539444,7201.12469 797.143895,7201.12469 C796.748446,7201.12469 796.36191,7200.96459 796.08152,7200.68559 C795.802133,7200.40659 795.64181,7200.01959 795.64181,7199.62469 C795.64181,7199.22959 795.802133,7198.84359 796.08152,7198.56459 C796.361809,7198.28469 796.748446,7198.12469 797.143895,7198.12469 Z" id="ic-business"></path>
		</g>
	</g>
</svg>