<?xml version="1.0" encoding="utf-8"?>
<!-- Generator: Adobe Illustrator 23.0.5, SVG Export Plug-In . SVG Version: 6.00 Build 0)  -->
<svg version="1.1" id="Layer_1" xmlns="http://www.w3.org/2000/svg" xmlns:xlink="http://www.w3.org/1999/xlink" x="0px" y="0px"
	 viewBox="0 0 500 500" style="enable-background:new 0 0 500 500;" xml:space="preserve">
<style type="text/css">
	.st0{fill:#035898;}
	.st1{opacity:0.7;fill:#FFFFFF;enable-background:new    ;}
	.st2{fill:#263238;}
	.st3{fill:#263238;stroke:#263238;stroke-linecap:round;stroke-linejoin:round;}
	.st4{fill:#FFFFFF;stroke:#263238;stroke-linecap:round;stroke-linejoin:round;}
	.st5{fill:#035898;stroke:#263238;stroke-linecap:round;stroke-linejoin:round;}
	.st6{fill:none;stroke:#FFFFFF;stroke-linecap:round;stroke-linejoin:round;}
	.st7{fill:#FFFFFF;}
	.st8{fill:#FFFFFF;stroke:#FFFFFF;stroke-miterlimit:10;}
</style>
<path class="st0" d="M209,96.1c-19.8,8.5-39.1,21.8-55.3,34.2c-28.2,21.6-54,48-71.9,77.6c-21.7,35.9-22.1,77.5-8.2,109.1
	c7.1,16.1,18.1,30.2,33.1,39.9c19.5,12.6,42.9,9.3,67.4,10.4c44.7,2,63.2,46.8,97.7,64.5c45.3,23.3,108.6-1.9,148.1-44.5
	c20.5-22.2,32.9-49.8,29-75.6c-4.1-27.4-26.1-46.3-46.7-61.7c-17.8-13.1-33.3-29.1-46-47.2c-12.2-17.5-19.1-37.9-29.5-56.4
	c-17-30.3-41.6-62-84.7-59C231,88.2,219.9,91.4,209,96.1z"/>
<path class="st1" d="M209,96.1c-19.8,8.5-39.1,21.8-55.3,34.2c-28.2,21.6-54,48-71.9,77.6c-21.7,35.9-22.1,77.5-8.2,109.1
	c7.1,16.1,18.1,30.2,33.1,39.9c19.5,12.6,42.9,9.3,67.4,10.4c44.7,2,63.2,46.8,97.7,64.5c45.3,23.3,108.6-1.9,148.1-44.5
	c20.5-22.2,32.9-49.8,29-75.6c-4.1-27.4-26.1-46.3-46.7-61.7c-17.8-13.1-33.3-29.1-46-47.2c-12.2-17.5-19.1-37.9-29.5-56.4
	c-17-30.3-41.6-62-84.7-59C231,88.2,219.9,91.4,209,96.1z"/>
<g id="freepik--character-3--inject-106">
	<path class="st2" d="M439.7,328.6c0,1.6-16.3,2.9-36.3,2.9s-36.3-1.3-36.3-2.9s16.3-2.9,36.3-2.9S439.7,327,439.7,328.6z"/>
	<path class="st3" d="M365.2,176.4c0,0-3.9-2-3.9-5.6s8.5-6.9,15.8-5.9s10.7,9.8,10.1,14.9s-0.1,8.5,4.6,11.9s13.4,13.6,10,18.8
		s-7.7,6.9-4.5,11s3.8,8.7-0.4,11.9c-3.9,3.2-9.3,3.8-13.9,1.6c-4.8-2.3-9.7-10.7-8.4-16.9s-2.9-24.4-4-30.9
		S368.1,176.7,365.2,176.4z"/>
	<path class="st4" d="M370,225.8c0,0-6.6,5.9-9.1,7.7c-1.4,1.1-3.1,1.7-4.9,1.6c-0.9,0-3-1-4.2,0.1s-2.9,4.5-2.5,4.8s4-2.3,4.5-2.3
		s1.6-0.1,1.6-0.1s-3.2,2.3-2.5,2.7s2.6-0.9,3.3-1.3c1.1-0.9,2.2-1.9,3.2-2.9c0,0,8.1-4.3,10-4.8s3.6-3.6,3.5-4.6
		c-0.3-1-1.4-1.5-2.4-1.2C370.3,225.6,370.2,225.7,370,225.8z"/>
	<path class="st5" d="M368.1,190c1.1,1.4,1.8,3.2,1.9,5c0,2.8-4.2,7.8-5.6,12.1s-0.3,7.2,0.9,8.8s3.2,4.2,3.3,5.6s0.7,4,0.7,4
		s4.9,1.4,14.6-2.4c0,0,1-22.3,0.7-25.1s-4.2-4.8-6.1-5.1s-4-1.4-4.8-2.9c-0.4-0.9-0.8-1.8-1-2.8L368.1,190z"/>
	<path class="st4" d="M377.4,192.7c-1.5-0.4-2.8-1.3-3.7-2.6c-0.4-0.9-0.8-1.8-1-2.8l-4.6,2.6c1.1,1.4,1.8,3.2,1.9,5
		c0,1.3-0.9,3-2,4.9c0.8,1.8,2.4,3.8,4.9,1.9S376.8,195.8,377.4,192.7z"/>
	<path class="st4" d="M367.8,170.5c0,0-3,2.4-3.6,4.6s-2.4,7-2,8.8s0.7,7.2,2.8,7.7s8.8-3.7,9.8-5.6s1.9-6.9-0.4-11.6
		S368.7,168.8,367.8,170.5z"/>
	<path class="st3" d="M367.1,168.8c0,0,4.2,4,4.7,9.3s-1.6,11,3,14.9s12.1-0.5,12.1-0.5c-3-2.3-5.1-5.7-5.8-9.5
		c-0.9-6-2.3-11.4-5.1-13.2S368.2,168.1,367.1,168.8z"/>
	<path class="st5" d="M425,266.6c0,0,4.8-2.7,5.3-2.5s6.1,7.5,6.2,8.2s-0.9,1.2-1.5,0.9s-5.2-3.6-6.4-3.8s-3-0.6-3-0.6L425,266.6z"
		/>
	<path class="st5" d="M377,318.6c-0.1,1.7-0.4,3.4-1,5.1c-0.7,1.5-3.3,3.9-3.3,4.5s0.4,0.7,1.1,0.7c1.8-0.3,3.6-1.1,4.9-2.3
		c0.8-1.1,1.5-2.2,2-3.5c0.4-0.6,2.2-1.3,2.3-2.6s-1.7-3.5-1.7-3.5L377,318.6z"/>
	<path class="st3" d="M369.2,225.7c0,0-3.5,21.7-3,33.4s6.6,40.5,8.1,46.5s2.7,13,2.7,13l4.3-1.6c0,0,1.3-14.3,0.1-23.3
		s-2.8-22.4-2.3-26.7s0.4-11,0.4-11s5.9,20.1,8.4,24.3s3.8,4.6,5.6,4.5s19.1-8.4,21.5-9.8s10.5-6.1,10.5-6.1l-0.7-2.3
		c0,0-12,3.3-16.8,4.9s-11.6,3.6-11.6,3.6s-1.3-16.3-2.9-25.6s-7.8-24.3-10-26.3C383.8,223.2,379.1,226,369.2,225.7z"/>
	<line class="st6" x1="379.9" y1="256.7" x2="376.4" y2="243.7"/>
	<path class="st5" d="M379,197c-1,1.8-1.3,4-0.9,6c0.9,3.2,6.4,19.4,6.4,19.4s-6.2,4.1-9.6,6.4c-2.8,1.8-5.7,3.5-8.7,4.9
		c-1.1-0.5-2.3-0.5-3.4,0c-1.5,0.9-4.5,4.5-3.8,4.9s3.6-1.9,3.6-1.9c1.3,0.2,2.7,0.4,4,0.4s3.6-2.1,3.6-2.1s20.3-9.6,20.9-9.6
		s-6.8-27.4-6.8-27.4s-1.3-2.1-3.2-2.3"/>
	<path class="st4" d="M389.8,218.5l-6,1.3c0.5,1.5,0.9,2.5,0.9,2.5s-6.2,4.1-9.6,6.4c-2.8,1.8-5.7,3.5-8.7,4.9
		c-1.1-0.5-2.3-0.5-3.4,0c-1.5,0.9-4.5,4.5-3.8,4.9s3.6-1.9,3.6-1.9c1.3,0.2,2.7,0.4,4,0.4s3.6-2.1,3.6-2.1s20.3-9.6,20.9-9.6
		C391.4,225.3,390.8,222.4,389.8,218.5z"/>
</g>
<g id="freepik--character-2--inject-106">
	<path class="st2" d="M219.5,219.9c0,1.6-16.3,2.9-36.3,2.9s-36.3-1.3-36.3-2.9s16.3-2.9,36.3-2.9S219.5,218.3,219.5,219.9z"/>
	<polygon class="st5" points="188.9,81.7 176.1,107.8 180,110 191.1,95.5 	"/>
	<path class="st5" d="M223.1,79.8l6.6,30.8l11.4,11.7c0,0,7.3,1.8,8.1,2.3s2.6,3.5,2.6,3.5l-1.2,0.6l-5.2-2.3h-1.8l3.2,2.6l-0.6,0.6
		l-8.1-5.8l-13.7-10.2l-4.7-9.6L223.1,79.8z"/>
	<path class="st4" d="M249.2,124.6c-0.9-0.6-8.1-2.3-8.1-2.3l-11.4-11.6l-0.4-2.1l-5.6,3.4l0.8,1.6l13.7,10.2l8.1,5.8l0.6-0.6
		l-3.2-2.6h1.8l5.2,2.3l1.2-0.6C251.8,128.1,250.1,125.2,249.2,124.6z"/>
	<path class="st5" d="M200.6,77l-11.8,4.6c0,0,3.3,20.4,3.4,24.1s-0.8,13.6,0,14.7s2.8,1.2,2.8,1.2l24.2-0.1c0,0,2.1-1,1.2-4.8
		c-0.5-2.1,0.5-18.4,0.8-21.9s1.9-15.1,1.9-15.1s-9.8-2.8-12.4-3.2S202.6,75.7,200.6,77z"/>
	<path class="st4" d="M203,73.7c-1,0.3-2,0.7-2.9,1.2c-0.5,0.5-0.9,3.1-1.3,4.4s-2.1,3.7-1.6,3.8s4.6-2,4.6-2l4.8,5.4l4.5-5.7
		c0,0,3.5,2.7,3.8,2.3s-1.6-4.8-1.7-6.6s-2.8-2.4-4.4-2.6S203,73.7,203,73.7z"/>
	<polygon class="st4" points="201.9,70.7 201.9,77.8 206.4,86.1 210.7,77.7 210.7,70.3 	"/>
	<path class="st4" d="M200.1,62.6c0,0-1.8-3.2-2.8-1.4s0.4,5.6,1,6.6s1.6-0.6,1.6-0.6"/>
	<path class="st4" d="M213,62.6c0,0,1.8-3.2,2.8-1.4s-0.4,5.6-1,6.6s-1.6-0.6-1.6-0.6"/>
	<path class="st4" d="M213.9,62c0,5.6-3.3,13.4-7.4,13.4s-7.4-7.8-7.4-13.4s3.3-10.2,7.4-10.2S213.9,56.4,213.9,62z"/>
	<path class="st3" d="M212.3,59.2c0,0-0.5,1.5,0.1,2.1s0.5,1.5,0.4,2.8c-0.1,1.3,0.2,2,0.6,1.6s0.8-6.2,0.8-6.6
		S212.3,59.2,212.3,59.2z"/>
	<path class="st3" d="M199.1,61.2l0.2,3.2c0.3,0.1,0.7,0,0.8-0.4l0,0c0.2-0.6-0.3-2.6,0.2-3.6s2.5-1.6,2.6-2.3s-1-2.1-1-2.6
		s0.3-1,2.9,1.5s7.4,3,9.9,2.4s-0.5-4.4-1.1-5.2s1.7-0.2,0.4-2.3s-5.6-3.4-9.9-1.9s-6.9,3.7-6.2,5.9S199.1,61.2,199.1,61.2z"/>
	<path class="st3" d="M226.5,210.6c0,0-2.7-37.1-3.3-52s-3.7-37.9-3.7-37.9l-9.3-1.1h-7.7l-10.2,0.9c0,0-1.7,3.7-2.3,10.8
		c-0.7,7.8-0.2,19.6-0.5,27.4c-0.6,14.9-3.3,52-3.3,52l-2.3,2.3v1.6l6.2,2.5l16.1-75.8l0.1-0.2l0.1,0.2l16.2,75.8l6.2-2.5V213
		L226.5,210.6z"/>
	<polygon class="st5" points="183.8,214.5 177.2,220.1 177.2,221.3 189.4,221.3 190.1,217 	"/>
	<polygon class="st4" points="189.4,221.3 189.6,220.1 177.2,220.1 177.2,221.3 	"/>
	<polygon class="st5" points="228.6,214.5 235.2,220.1 235.2,221.3 223,221.3 222.4,217 	"/>
	<polygon class="st4" points="223,221.3 222.8,220.1 235.2,220.1 235.2,221.3 	"/>
	<polygon class="st4" points="228.6,107.9 222.2,110.4 224.4,114.6 229.7,111.7 	"/>
	<path class="st4" d="M181.9,108.9l-4.9-2.4c0,0-2.1,1.7-1.9,3.5c0.1,1.1,0.7,2.1,1.6,2.7l5.9-0.3L181.9,108.9z"/>
	<path class="st4" d="M193.7,125h-2.6l-9-13.3c0,0-3.4-1.6-5.6,1l12.6,14.8l1.8,2.5l2.4-2.9l3,1l0.8-0.8L193.7,125z"/>
</g>
<g id="freepik--character-1--inject-106">
	<path class="st2" d="M167.7,441.3c0,1.6-16.3,2.9-36.3,2.9S95,442.8,95,441.3s16.3-2.9,36.3-2.9S167.7,439.7,167.7,441.3z"/>
	<polygon class="st5" points="110.3,433.5 117.3,439.4 117.3,440.7 104.4,440.7 105.3,434.4 	"/>
	<path class="st4" d="M126.4,279.5c0,0,0.8-1.7,1.6-0.1c0.6,1.6,0.7,3.4,0.1,5c-0.4,0.7-2.1,1.7-2.1,1S126.4,279.5,126.4,279.5z"/>
	<path class="st4" d="M112.7,282.8c0,0-1.3-1.4-1.5,0.3c-0.1,1.7,0.3,3.4,1.3,4.8c0.6,0.6,2.5,1,2.3,0.4S112.7,282.8,112.7,282.8z"
		/>
	<path class="st4" d="M117.6,296.9c2,0,6.6-0.3,6.6-0.3l11.3-4.9l9.8-13.3l4.9-26.7c-0.8-1.4-1.5-3-2.1-4.5c0-1.4,0.2-2.7,0.6-4
		c0,0,0.6-1.4,0.8-0.2c0.1,1,0.1,2,0,3l0.6,1c0.4-2,0.9-3.9,1.6-5.9c0.6-1.2,2-0.8,2,0s0.6,2.8,0.8,4.4s-2,6.8-2,6.8l-0.7,28.5
		c0,0-14.2,22.8-15,23.6s-0.7,18.2-0.8,20.9s1,7.8,0.7,8.8s-1.9,3.7-6.9,4.9s-14.4,0.3-15.4-0.8s-1-4.6-1-4.6s-5.1-15.1-5.1-16.5
		c0-0.8-1.3-6.4-2.4-11c-0.8-3.3,1.1-6.7,4.4-7.7C112.6,297.8,115.1,297.2,117.6,296.9z"/>
	<path class="st5" d="M124.2,296.5l11.3-4.9l9.8-13.3l4.2-22.6l3,0.1l-0.6,25.1c0,0-14.2,22.8-15,23.6s-0.7,18.2-0.8,20.9
		s1,7.8,0.7,8.8s-1.9,3.7-6.9,4.9s-14.4,0.3-15.4-0.8s-1-4.6-1-4.6s-5.1-15.1-5.1-16.5c0-0.8-1.3-6.3-2.4-10.8
		c-0.8-3.4,1.1-6.9,4.5-7.9c2.4-0.7,4.8-1.3,7.3-1.6C119.6,296.9,124.2,296.5,124.2,296.5z"/>
	<path class="st4" d="M123.5,292.5c1.2,0.7,2.4,1.4,3.6,2.2c0.5,0.5,3,9.1,3,9.1l-5.4-3l-5.9,4.7c0,0-2.2-6.4-2-8.8
		c0.2-1.6,1.1-3,2.4-3.9L123.5,292.5z"/>
	<polygon class="st4" points="124.2,291.8 124.3,305.1 118.3,293 	"/>
	<path class="st4" d="M112.8,283.7c0.9,5.2,5.3,11.9,9,11.2s5.6-8.4,4.7-13.6s-4.7-8.9-8.5-8.3S111.9,278.5,112.8,283.7z"/>
	<path class="st3" d="M126.8,282.7c0,0-1.5,0.5-1.3-0.1c0-0.8-0.1-1.6-0.4-2.3c-0.4-0.2-0.8-0.5-1-1c-0.4-0.7,0.1-1.9,0-2.9
		s-4.6,1.8-5.4,1.9s-5.3-0.2-5.3-0.2s1.3,2.6,0.9,3s-0.5,1.8-0.5,1.8c0.4,0.9,0.7,1.9,0.8,2.9c-0.1,0.5-1,1-1.2,0.5
		s-0.9-4.5-0.9-4.5s-1.1,0.3-1.4-1.8s0-7.2,2-8.5s7-2.2,9.2-1.5s4.5,5.5,4.3,7.2C126.4,279.2,126.5,280.9,126.8,282.7z"/>
	<polygon class="st4" points="117.3,439.4 117.3,440.7 104.4,440.7 104.7,438.8 116.6,438.8 	"/>
	<polygon class="st5" points="141.6,433 149.8,439.4 149.8,440.7 136.1,440.7 137,433.2 	"/>
	<polygon class="st4" points="149.8,439.4 149.8,440.7 136.1,440.7 136.4,438.8 149.1,438.8 	"/>
	<path class="st3" d="M136.7,334.2c0,0,4.4,21.9,5.6,30.6s2.2,32.5,2.2,41.2s-2.8,27.1-2.8,27.1l-4.6,0.2c0,0-4-48-5.3-51.7
		s-4-14.1-4-14.1s-3.2,26-3.6,29.1s-14,37.5-14,37.5l-4.8,0.4c0,0,7.9-38.4,8.1-41s-1.6-39.2-0.6-45.6s1.6-10.7,1.6-10.7
		S128.7,339.1,136.7,334.2z"/>
	<line class="st6" x1="127.7" y1="367.4" x2="129.1" y2="354.5"/>
	<path class="st5" d="M108.4,301.3c0,0-3.7,3.2-1.2,7.5c1.7,2.9,17,24.8,19.5,25.5c2.5,0.7,31.1,0.2,31.1,0.2l6.3-0.4l4.8-2.8
		l-6.4-0.2c0,0,4-2.1,2.1-2s-8.1,3.5-8.1,3.5l-26.7-4.8l-10.5-19.5"/>
	<path class="st4" d="M164.7,329.1c-1.9,0.1-8.1,3.5-8.1,3.5l-0.6-0.1l0.1,2h1.6l6.3-0.4l4.8-2.8l-6.4-0.2
		C162.6,331.2,166.6,329,164.7,329.1z"/>
</g>
<path class="st2" d="M272.1,237.2h79.5c4,0,7.2,3.2,7.2,7.2V324c0,4-3.2,7.2-7.2,7.2h-79.5c-4,0-7.2-3.2-7.2-7.2v-79.5
	C264.9,240.5,268.1,237.2,272.1,237.2z"/>
<path class="st2" d="M156.4,237.2h79.5c4,0,7.2,3.2,7.2,7.2V324c0,4-3.2,7.2-7.2,7.2h-79.5c-4,0-7.2-3.2-7.2-7.2v-79.5
	C149.1,240.5,152.4,237.2,156.4,237.2z"/>
<path class="st2" d="M206.8,214.7v-79.5c0-4,3.2-7.2,7.2-7.2l0,0h79.5c4,0,7.2,3.2,7.2,7.2v79.5c0,4-3.2,7.2-7.2,7.2H214
	C210.1,221.9,206.8,218.7,206.8,214.7L206.8,214.7z"/>
<path class="st7" d="M224.5,182.9c0.1-1.7,1.6-3,3.3-2.9c1.6,0.1,2.8,1.3,2.9,2.9c0.1,1.7-1.2,3.2-2.9,3.3s-3.2-1.2-3.3-2.9
	C224.5,183.1,224.5,183,224.5,182.9z"/>
<path class="st7" d="M232.5,177.2c0-5.1,4-8.8,9.5-8.8c3.6,0,6.4,1.6,7.6,4.3l-3.8,2.1c-0.7-1.4-2.2-2.4-3.8-2.3
	c-2.6,0.2-4.6,2.4-4.4,5c0.2,2.4,2,4.3,4.4,4.4c1.6,0,3.1-0.9,3.8-2.4l3.8,2.1c-1.2,2.7-4,4.3-7.6,4.3
	C236.5,186,232.5,182.4,232.5,177.2z"/>
<path class="st7" d="M250.9,184.2l1.6-3.5c1.8,1.1,3.8,1.6,5.9,1.6c2.3,0,3.1-0.6,3.1-1.6c0-2.8-10.3,0.1-10.3-6.7
	c0-3.2,2.9-5.5,7.9-5.5c2.3,0,4.5,0.5,6.6,1.5l-1.6,3.5c-1.5-0.8-3.2-1.3-4.9-1.3c-2.2,0-3.2,0.7-3.2,1.6c0,2.9,10.3,0.1,10.3,6.8
	c0,3.2-3,5.4-8,5.4C255.7,186.1,253.1,185.4,250.9,184.2z"/>
<path class="st7" d="M267.7,184.2l1.6-3.5c1.8,1.1,3.8,1.6,5.9,1.6c2.3,0,3.1-0.6,3.1-1.6c0-2.8-10.3,0.1-10.3-6.7
	c0-3.2,2.9-5.5,7.9-5.5c2.3,0,4.5,0.5,6.6,1.5l-1.6,3.5c-1.5-0.8-3.2-1.3-4.9-1.3c-2.2,0-3.2,0.7-3.2,1.6c0,2.9,10.3,0.1,10.3,6.8
	c0,3.2-3,5.4-8,5.4C272.5,186.1,269.9,185.4,267.7,184.2z"/>
<path class="st2" d="M206.8,433.5V354c0-4,3.2-7.2,7.2-7.2h79.5c4,0,7.2,3.2,7.2,7.2v79.5c0,4-3.2,7.2-7.2,7.2H214
	C210.1,440.8,206.8,437.5,206.8,433.5L206.8,433.5z"/>
<path class="st7" d="M236.8,399.5c0-1.8,1.5-3.2,3.2-3.2c1.8,0,3.2,1.4,3.2,3.2c0,1.8-1.4,3.2-3.2,3.2
	C238.3,402.8,236.8,401.3,236.8,399.5L236.8,399.5z"/>
<path class="st7" d="M241.7,408.3l1.4-3.8c0.7,0.4,1.4,0.6,2.2,0.6c1.3,0,2.1-0.8,2.1-2.6v-18h5.2v18c0,4.1-2.4,6.8-6.8,6.8
	C244.4,409.4,242.9,409,241.7,408.3z M246.8,379.2c0-1.7,1.4-3,3.1-2.9c0.1,0,0.1,0,0.2,0c1.9,0,3.2,1.2,3.2,2.8
	c-0.1,1.8-1.7,3.2-3.4,3C248.2,382,246.9,380.8,246.8,379.2L246.8,379.2z"/>
<path class="st7" d="M255.7,400.9l1.7-3.7c1.9,1.1,4,1.7,6.3,1.7c2.4,0,3.3-0.6,3.3-1.6c0-2.9-10.9,0.1-10.9-7.1
	c0-3.4,3.1-5.8,8.3-5.8c2.4,0,4.8,0.5,6.9,1.6l-1.7,3.7c-1.6-0.9-3.4-1.4-5.2-1.3c-2.3,0-3.3,0.7-3.3,1.7c0,3.1,10.9,0.1,10.9,7.2
	c0,3.3-3.1,5.7-8.5,5.7C260.8,402.9,258.1,402.2,255.7,400.9z"/>
<g>
	<path class="st7" d="M167.7,283.3l19.7-8.7v4.9l-14.2,5.8v0.1l14.2,5.8v4.9l-19.7-8.7V283.3z"/>
	<path class="st7" d="M190.5,297.6l7.5-29.2h4.6l-7.5,29.2H190.5z"/>
	<path class="st7" d="M224.5,287.5l-19.7,8.5v-4.9l14.6-5.8v-0.1l-14.6-5.8v-4.9l19.7,8.5V287.5z"/>
</g>
<g id="Layer_2_1_">
	<g id="Layer_1-2">
		<path class="st8" d="M316,289.2c-1.1,0-2.1-0.3-3-0.9c-1.6-1.1-2.2-3-2.4-4c-0.7-3.9,0.6-8.1,3.3-10.6c0.7-0.6,1.7-1,2.6-1.2
			c0.2,0,0.4,0,0.7,0c1.5,0,2.9,0.6,3.8,1.6c1.1,1.3,1.5,2.8,1.6,3.9c0.3,2.6-0.2,5.2-1.4,7.4c-0.8,1.5-1.7,2.5-2.7,3.1l0,0
			C317.8,289,317,289.2,316,289.2L316,289.2z M316.6,274.8c-1.2,0.4-2,1.4-2.5,2.4c-1.5,2.4-1.8,5.4-0.7,7.8
			c0.6,1.3,1.5,1.8,2.1,1.9h0c0.1,0,0.3,0,0.4,0c0.8,0,1.5-0.3,2.3-1c1.2-1,2-2.5,2.3-4.5c0.4-2.1,0.1-4.2-1-5.7
			c-0.5-0.7-1.3-1.1-2.1-1.1C317.1,274.7,316.8,274.7,316.6,274.8z"/>
		<path class="st8" d="M304.8,291.9c-0.4,0-0.8-0.3-1.3-0.8l0,0c-2.2-2.4-3.8-5.4-5.1-10l-0.7-2.4l-1.4,2.8c-1,2-2.1,4-3,6.1
			c-0.8,1.5-1.5,2.9-2.6,3.9c-0.3,0.3-0.5,0.4-0.7,0.4c0,0,0,0,0,0c-0.6-0.5-0.8-1.3-1.1-2.2c-0.1-0.3-0.2-0.5-0.3-0.8
			c-1.5-5.2-2.4-10.7-3.3-16.1l-0.1-0.6l0,0c-0.1-0.5,0.1-1.1,0.5-1.3c0.2-0.1,0.5-0.1,0.7-0.1c0.2,0,0.4,0,0.6,0.2
			c0.2,0.2,0.3,0.6,0.3,1c0.8,5.1,1.6,9.2,2.5,13.1l0.6,2.6l1.2-2.3c1.3-2.5,2.6-5,3.9-7.4c0.5-1,1-1.9,1.5-2.9
			c0.2-0.4,0.4-0.7,0.7-0.9c0.1-0.1,0.3-0.1,0.5-0.1c0.2,0,0.3,0,0.5,0.2l0,0c0.3,0.3,0.4,0.8,0.5,1.3c0.5,2.9,1.4,5.7,2.5,8.5
			l0.7,1.5l0.9,1.5l0.3-3.2c0.4-3.9,1-8,2.4-11.7c0.1-0.1,0.1-0.2,0.1-0.4c0.3-0.6,0.5-1.2,0.8-1.6c0.2-0.2,0.4-0.3,0.7-0.3
			c0.4,0,0.9,0.2,1.1,0.5l0,0c0.2,0.3,0.2,0.7,0,1c-1.3,2.5-1.8,5.3-2.4,8.3v0c-0.7,4.1-1.1,7.5-0.9,11c0,0.5-0.2,1.2-0.6,1.2
			C304.9,291.9,304.9,291.9,304.8,291.9z"/>
		<path class="st8" d="M331.7,289.2c-1,0-2-0.3-2.8-0.8c-1.2-0.7-1.9-2-2.2-3c-1.2-3.9-0.2-8.6,2.7-11.5c0.8-0.8,1.8-1.3,2.9-1.4
			c0.2,0,0.5,0,0.7,0c1.5,0,2.8,0.5,3.7,1.5c1,1,1.6,2.5,1.7,4.1c0.3,2.5-0.2,5-1.4,7.2c-0.8,1.6-1.7,2.6-2.8,3.2l0,0
			C333.4,289,332.6,289.2,331.7,289.2L331.7,289.2z M329,285.1c0.5,1.1,1.4,1.7,2.3,1.8h0h0.1c1.1,0,2-0.7,2.6-1.2l0,0
			c1.2-1.2,1.9-2.9,2.2-4.9c0.2-1.9-0.1-3.6-1.1-5c-0.5-0.7-1.3-1.1-2.1-1.1c-0.3,0-0.6,0-0.9,0.1c-1.4,0.5-2.2,1.8-2.7,2.6l0,0
			C328.1,279.9,327.9,282.8,329,285.1z"/>
		<path class="st8" d="M324.5,306.2l-14.3-8.1H284c-4.1,0-7.4-3.3-7.4-7.4v-21.1c0-4.1,3.3-7.4,7.4-7.4h55.7c4.1,0,7.4,3.3,7.4,7.4
			v21.1c0,4.1-3.3,7.4-7.4,7.4h-18.5L324.5,306.2z M284,264.2c-3,0-5.4,2.4-5.4,5.4v21.1c0,3,2.4,5.4,5.4,5.4h26.7l9.8,5.6l-2.2-5.6
			h21.4c3,0,5.4-2.4,5.4-5.4v-21.1c0-3-2.4-5.4-5.4-5.4C339.7,264.2,284,264.2,284,264.2z"/>
	</g>
</g>
</svg>
