<?xml version="1.0" encoding="UTF-8"?>
<svg width="43px" height="48px" viewBox="0 0 43 48" version="1.1" xmlns="http://www.w3.org/2000/svg" xmlns:xlink="http://www.w3.org/1999/xlink">
    <!-- Generator: Sketch 63.1 (92452) - https://sketch.com -->
    <title>ic-why-indianic-4</title>
    <desc>Created with Sketch.</desc>
    <g id="Page-1" stroke="none" stroke-width="1" fill="none" fill-rule="evenodd">
        <g id="Why-IndiaNIC" transform="translate(-990.000000, -1907.000000)" fill="#FDCB6E" fill-rule="nonzero">
            <path d="M1025.15746,1918.34375 C1025.76092,1918.34375 1026.14324,1918.643 1026.41558,1919.12094 L1026.41558,1919.12094 L1032.04058,1930.37094 C1032.30261,1930.92697 1032.20952,1931.48216 1031.84277,1931.92344 L1031.84277,1931.92344 L1012.15527,1954.51719 C1011.88808,1954.82375 1011.50183,1955 1011.09496,1955 C1010.68808,1955 1010.30183,1954.82375 1010.03464,1954.51719 L1010.03464,1954.51719 L990.347143,1931.92344 C989.978049,1931.47991 989.888893,1930.92406 990.149331,1930.37094 L990.149331,1930.37094 L995.774331,1919.12094 C996.051268,1918.6355 996.444456,1918.34375 997.032456,1918.34375 L997.032456,1918.34375 Z M1001.72839,1932.40625 L994.498393,1932.40625 L1008.66121,1948.66062 L1001.72839,1932.40625 Z M1027.69152,1932.40625 L1020.46152,1932.40625 L1013.52871,1948.66062 L1027.69152,1932.40625 Z M1017.40339,1932.40625 L1004.78652,1932.40625 L1011.09496,1947.19719 L1017.40339,1932.40625 Z M1011.09496,1922.09375 L1005.46996,1929.59375 L1016.71996,1929.59375 L1011.09496,1922.09375 Z M997.032456,1922.89438 L993.682768,1929.59375 L1000.38214,1929.59375 L997.032456,1922.89438 Z M1025.15746,1922.89438 L1021.80777,1929.59375 L1028.50714,1929.59375 L1025.15746,1922.89438 Z M1022.88214,1921.15625 L1013.90746,1921.15625 L1019.29246,1928.33562 L1022.88214,1921.15625 Z M1008.28246,1921.15625 L999.307768,1921.15625 L1002.89746,1928.33562 L1008.28246,1921.15625 Z M1001.15127,1911.21256 C1001.70046,1910.66338 1002.59089,1910.66338 1003.13999,1911.21256 L1003.13999,1911.21256 L1005.12871,1913.20128 C1005.67789,1913.75047 1005.67789,1914.64081 1005.12871,1915.19 C1004.57961,1915.73928 1003.68908,1915.73919 1003.13999,1915.19 L1003.13999,1915.19 L1001.15127,1913.20128 C1000.60208,1912.65209 1000.60208,1911.76175 1001.15127,1911.21256 Z M1019.04983,1911.21256 C1019.59902,1910.66338 1020.48946,1910.66338 1021.03855,1911.21256 C1021.58774,1911.76175 1021.58774,1912.65209 1021.03855,1913.20128 L1021.03855,1913.20128 L1019.04983,1915.19 C1018.50074,1915.73928 1017.61021,1915.73919 1017.06111,1915.19 C1016.51192,1914.64081 1016.51192,1913.75047 1017.06111,1913.20128 L1017.06111,1913.20128 Z M1011.09496,1907 C1011.87158,1907 1012.50121,1907.62963 1012.50121,1908.40625 L1012.50121,1908.40625 L1012.50121,1911.3125 C1012.50121,1912.08912 1011.87158,1912.71875 1011.09496,1912.71875 C1010.31833,1912.71875 1009.68871,1912.08912 1009.68871,1911.3125 L1009.68871,1911.3125 L1009.68871,1908.40625 C1009.68871,1907.62963 1010.31833,1907 1011.09496,1907 Z" id="ic-why-indianic-4"></path>
        </g>
    </g>
</svg>