<?xml version="1.0" encoding="UTF-8"?>
<svg width="48px" height="48px" viewBox="0 0 48 48" version="1.1" xmlns="http://www.w3.org/2000/svg" xmlns:xlink="http://www.w3.org/1999/xlink">
    <!-- Generator: Sketch 63.1 (92452) - https://sketch.com -->
    <title>ic-why-indianic-2</title>
    <desc>Created with Sketch.</desc>
    <g id="Page-1" stroke="none" stroke-width="1" fill="none" fill-rule="evenodd">
        <g id="Why-IndiaNIC" transform="translate(-990.000000, -1433.000000)" fill="#00B894" fill-rule="nonzero">
            <path d="M1036.59375,1455.59375 L1032.28125,1455.59375 L1032.28125,1451.375 C1032.28125,1450.59838 1031.65162,1449.96875 1030.875,1449.96875 L1020.54947,1449.96875 L1015.40625,1444.82553 L1015.40625,1441.4375 L1019.625,1441.4375 C1020.40162,1441.4375 1021.03125,1440.80787 1021.03125,1440.03125 L1021.03125,1434.40625 C1021.03125,1433.62963 1020.40162,1433 1019.625,1433 L1008.375,1433 C1007.59838,1433 1006.96875,1433.62963 1006.96875,1434.40625 L1006.96875,1440.03125 C1006.96875,1440.80787 1007.59838,1441.4375 1008.375,1441.4375 L1012.59375,1441.4375 L1012.59375,1444.82553 L1007.45053,1449.96875 L997.125,1449.96875 C996.348375,1449.96875 995.71875,1450.59838 995.71875,1451.375 L995.71875,1455.59375 L991.40625,1455.59375 C990.629625,1455.59375 990,1456.22338 990,1457 L990,1462.625 C990,1463.40162 990.629625,1464.03125 991.40625,1464.03125 L995.71875,1464.03125 L995.71875,1468.34375 C995.71875,1469.12037 996.348375,1469.75 997.125,1469.75 L1012.59375,1469.75 L1012.59375,1472.5625 L1008.375,1472.5625 C1007.59838,1472.5625 1006.96875,1473.19213 1006.96875,1473.96875 L1006.96875,1479.59375 C1006.96875,1480.37037 1007.59838,1481 1008.375,1481 L1019.625,1481 C1020.40162,1481 1021.03125,1480.37037 1021.03125,1479.59375 L1021.03125,1473.96875 C1021.03125,1473.19213 1020.40162,1472.5625 1019.625,1472.5625 L1015.40625,1472.5625 L1015.40625,1469.75 L1030.875,1469.75 C1031.65162,1469.75 1032.28125,1469.12037 1032.28125,1468.34375 L1032.28125,1464.03125 L1036.59375,1464.03125 C1037.37037,1464.03125 1038,1463.40162 1038,1462.625 L1038,1457 C1038,1456.22338 1037.37037,1455.59375 1036.59375,1455.59375 Z M1009.78125,1435.8125 L1018.21875,1435.8125 L1018.21875,1438.625 L1009.78125,1438.625 L1009.78125,1435.8125 Z M1018.21875,1478.1875 L1009.78125,1478.1875 L1009.78125,1475.375 L1018.21875,1475.375 L1018.21875,1478.1875 Z M1014,1447.39681 L1017.97828,1451.375 L1014,1455.35319 L1010.02172,1451.375 L1014,1447.39681 Z M992.8125,1458.40625 L1001.34375,1458.40625 L1001.34375,1461.21875 L992.8125,1461.21875 L992.8125,1458.40625 Z M1029.46875,1466.9375 L998.53125,1466.9375 L998.53125,1464.03125 L1002.75,1464.03125 C1003.52662,1464.03125 1004.15625,1463.40162 1004.15625,1462.625 L1004.15625,1457 C1004.15625,1456.22338 1003.52662,1455.59375 1002.75,1455.59375 L998.53125,1455.59375 L998.53125,1452.78125 L1007.45053,1452.78125 L1013.00559,1458.33631 C1013.28019,1458.61091 1013.64009,1458.74816 1013.99991,1458.74816 C1014.35972,1458.74816 1014.71972,1458.61091 1014.99422,1458.33631 L1020.54947,1452.78125 L1029.46875,1452.78125 L1029.46875,1455.59375 L1025.25,1455.59375 C1024.47338,1455.59375 1023.84375,1456.22338 1023.84375,1457 L1023.84375,1462.625 C1023.84375,1463.40162 1024.47338,1464.03125 1025.25,1464.03125 L1029.46875,1464.03125 L1029.46875,1466.9375 Z M1035.1875,1461.21875 L1026.65625,1461.21875 L1026.65625,1458.40625 L1035.1875,1458.40625 L1035.1875,1461.21875 Z" id="ic-why-indianic-2"></path>
        </g>
    </g>
</svg>