<?xml version="1.0" encoding="UTF-8"?>
<svg width="48px" height="48px" viewBox="0 0 48 48" version="1.1" xmlns="http://www.w3.org/2000/svg" xmlns:xlink="http://www.w3.org/1999/xlink">
    <!-- Generator: Sketch 63.1 (92452) - https://sketch.com -->
    <title>ic-why-indianic-1</title>
    <desc>Created with Sketch.</desc>
    <g id="Page-1" stroke="none" stroke-width="1" fill="none" fill-rule="evenodd">
        <g id="Why-IndiaNIC" transform="translate(-697.000000, -1433.000000)" fill="#FF7675" fill-rule="nonzero">
            <path d="M735.044818,1455.59298 C738.921947,1455.59298 742.076263,1458.74729 742.076263,1462.62442 C742.076263,1464.76155 741.116637,1466.6777 739.607073,1467.96836 C742.75717,1469.62418 744.982609,1472.94218 744.982609,1476.78115 L744.982609,1476.78115 L744.982609,1479.59375 C744.982609,1480.37037 744.352984,1481 743.576358,1481 L743.576358,1481 L698.387408,1481 C697.610782,1481 697,1480.37037 697,1479.59375 L697,1479.59375 L697,1476.78115 C697,1472.90337 699.24119,1469.60599 702.356786,1467.96836 C700.847223,1466.67761 699.887597,1464.76155 699.887597,1462.62442 C699.887597,1458.74729 703.041912,1455.59298 706.919041,1455.59298 C710.79617,1455.59298 713.950485,1458.74729 713.950485,1462.62442 L713.95,1462.622 L713.954406,1462.38797 C714.076927,1458.69836 717.055869,1455.71942 720.745478,1455.5969 L720.98193,1455.59298 C724.858496,1455.59298 728.012436,1458.74635 728.013374,1462.62264 C728.014405,1458.74635 731.168252,1455.59298 735.044818,1455.59298 Z M706.918853,1469.65596 C703.056631,1469.65596 699.793659,1472.91893 699.793659,1476.78115 L699.793659,1476.78115 L699.793659,1478.1874 L711.156545,1478.1874 L711.156545,1476.78115 C711.156545,1475.10499 711.551514,1473.52484 712.280421,1472.13827 C710.950951,1470.57105 709.001137,1469.65596 706.918853,1469.65596 Z M720.981742,1469.65605 C717.104613,1469.65605 713.950298,1472.85237 713.950298,1476.78125 L713.950298,1476.78125 L713.950298,1478.1875 L728.03203,1478.1875 L728.03203,1476.78125 C728.03203,1472.85246 724.858871,1469.65605 720.981742,1469.65605 Z M735.044818,1469.65596 C732.962441,1469.65596 731.012627,1470.57105 729.683251,1472.13827 C730.412064,1473.52493 730.825877,1475.10509 730.825877,1476.78125 L730.825877,1476.78125 L730.825877,1478.1875 L742.188763,1478.1875 L742.188763,1476.78115 C742.188763,1472.91893 738.907041,1469.65596 735.044818,1469.65596 Z M713.95,1462.627 L713.944585,1462.91419 C713.862257,1464.93244 712.923943,1466.73299 711.485233,1467.96489 C712.399671,1468.44368 713.239016,1469.06589 713.968579,1469.81505 C714.685017,1469.07996 715.513674,1468.45689 716.42605,1467.97389 C714.912736,1466.68314 713.950485,1464.76464 713.950485,1462.62442 L713.95,1462.627 Z M728.013374,1462.6277 C728.012343,1464.76661 727.050373,1466.68389 725.537809,1467.97389 C726.450185,1468.45689 727.278748,1469.08005 727.995186,1469.81505 C728.724656,1469.0658 729.564,1468.44368 730.478533,1467.96489 C728.972062,1466.67489 728.014311,1464.76164 728.013374,1462.6277 Z M735.044725,1458.40557 C732.718504,1458.40557 730.825877,1460.2982 730.825877,1462.62442 C730.825877,1464.95064 732.71841,1466.84327 735.044725,1466.84327 C737.370946,1466.84327 739.263572,1464.95073 739.263572,1462.62442 C739.263572,1460.2982 737.371039,1458.40557 735.044725,1458.40557 Z M720.981836,1458.40557 C718.655521,1458.40557 716.762894,1460.2982 716.762988,1462.62442 C716.762988,1464.95064 718.655521,1466.84327 720.981836,1466.84327 C723.308057,1466.84327 725.200684,1464.95073 725.200684,1462.62442 C725.200684,1460.2982 723.308151,1458.40557 720.981836,1458.40557 Z M706.918853,1458.40557 C704.592539,1458.40557 702.700006,1460.2982 702.700006,1462.62442 C702.700006,1464.95064 704.592632,1466.84327 706.918853,1466.84327 C709.245074,1466.84327 711.137701,1464.95073 711.137701,1462.62442 C711.137701,1460.2982 709.245168,1458.40557 706.918853,1458.40557 Z M719.572585,1433.79074 C720.083991,1432.73708 721.590836,1432.73577 722.102899,1433.79074 L722.102899,1433.79074 L724.519121,1438.76915 L729.912001,1439.5528 C731.063721,1439.72015 731.524034,1441.13962 730.691439,1441.95149 L730.691439,1441.95149 L726.784873,1445.75943 L727.706999,1451.13638 C727.904155,1452.28585 726.694779,1453.1595 725.666528,1452.61885 L725.666528,1452.61885 L720.837742,1450.08019 L716.008956,1452.61885 C714.978736,1453.16054 713.771891,1452.28247 713.968485,1451.13638 L713.968485,1451.13638 L714.890611,1445.75943 L710.984232,1441.95149 C710.1507,1441.13905 710.612701,1439.72005 711.763577,1439.5528 L711.763577,1439.5528 L717.156363,1438.76915 Z M720.837648,1437.62549 L719.361272,1440.66759 C719.15774,1441.08693 718.759584,1441.37821 718.298333,1441.44524 L718.298333,1441.44524 L714.987924,1441.92618 L717.383426,1444.26131 C717.714833,1444.58437 717.866052,1445.04984 717.787864,1445.50603 L717.787864,1445.50603 L717.222363,1448.80322 L720.183366,1447.24659 C720.592961,1447.03125 721.082523,1447.03125 721.492118,1447.24659 L721.492118,1447.24659 L724.453121,1448.80322 L723.88762,1445.50603 C723.809432,1445.04984 723.960651,1444.58437 724.292058,1444.26131 L724.292058,1444.26131 L726.68756,1441.92627 L723.376963,1441.44524 C722.915713,1441.37821 722.51765,1441.08693 722.314118,1440.66759 L722.314118,1440.66759 L720.837648,1437.62549 Z" id="ic-why-indianic-1"></path>
        </g>
    </g>
</svg>