<?xml version="1.0" encoding="UTF-8"?>
<svg width="43px" height="48px" viewBox="0 0 43 48" version="1.1" xmlns="http://www.w3.org/2000/svg" xmlns:xlink="http://www.w3.org/1999/xlink">
    <!-- Generator: Sketch 63.1 (92452) - https://sketch.com -->
    <title>ic-why-indianic-5</title>
    <desc>Created with Sketch.</desc>
    <g id="Page-1" stroke="none" stroke-width="1" fill="none" fill-rule="evenodd">
        <g id="Why-IndiaNIC" transform="translate(-1281.000000, -1829.000000)" fill="#A29BFE" fill-rule="nonzero">
            <path d="M1319.21265,1866.91638 C1316.75537,1864.75464 1313.41223,1863.09424 1309.70618,1862.18018 L1309.67834,1859.22375 C1310.15039,1858.69934 1310.56165,1858.13281 1310.90918,1857.53333 C1314.92358,1857.4967 1318.17664,1854.66479 1318.17664,1851.18762 C1318.17664,1849.44299 1317.38416,1847.81995 1315.94458,1846.61731 C1316.03979,1844.90051 1316.18042,1840.9502 1315.61829,1838.86426 C1314.87231,1836.09607 1313.24451,1833.66516 1311.03442,1832.02014 C1308.43359,1830.08362 1305.44788,1829.03918 1302.40027,1829 C1302.39001,1829 1302.37646,1829 1302.36621,1829 C1302.33618,1829 1302.22046,1829 1302.19153,1829 C1302.18018,1829 1302.16809,1829 1302.15637,1829 C1299.10876,1829.03918 1296.12305,1830.08362 1293.52222,1832.02014 C1291.23743,1833.72119 1289.58545,1836.24438 1288.87097,1839.12463 C1288.37585,1841.12048 1288.64429,1844.69946 1288.81165,1846.38074 C1287.24792,1847.54565 1286.25513,1849.26758 1286.25513,1851.18762 C1286.25513,1854.6875 1289.55029,1857.53516 1293.60095,1857.53516 L1293.71082,1857.53516 C1294.06897,1858.15222 1294.49487,1858.73413 1294.9845,1859.27173 L1294.9845,1862.1626 C1291.26233,1863.0697 1287.90381,1864.72644 1285.43408,1866.88855 C1282.57471,1869.3916 1281,1872.48315 1281,1875.59375 C1281,1876.37048 1281.62952,1877 1282.40625,1877 L1322.21301,1877 C1322.98938,1877 1323.61926,1876.37048 1323.61926,1875.59375 C1323.61926,1872.4978 1322.05444,1869.41614 1319.21265,1866.91638 L1319.21265,1866.91638 Z M1297.24329,1841.12305 C1298.2467,1840.55872 1299.72107,1840.81104 1301.62427,1841.87268 C1302.07288,1842.12317 1302.62219,1842.10889 1303.05725,1841.83569 C1304.71875,1840.79272 1306.04846,1840.50525 1307.00977,1840.98169 C1308.71667,1841.82764 1309.35681,1844.99353 1309.44836,1845.88416 L1309.44836,1852.48071 C1309.44836,1853.25342 1309.32642,1854.00745 1309.09607,1854.72266 L1304.18481,1854.72266 C1303.40808,1854.72266 1302.77856,1855.35217 1302.77856,1856.12891 C1302.77856,1856.90527 1303.40808,1857.53516 1304.18481,1857.53516 L1307.40674,1857.53516 C1307.39026,1857.552 1307.37488,1857.56995 1307.35803,1857.58679 C1306.01477,1858.95093 1304.2229,1859.71887 1302.31274,1859.7489 L1302.30652,1859.7489 C1300.396,1859.71887 1298.60449,1858.95093 1297.26123,1857.58679 C1296.67786,1856.99426 1296.20837,1856.31824 1295.86304,1855.58655 C1295.85645,1855.57117 1295.84875,1855.55615 1295.8418,1855.54114 C1295.40271,1854.59412 1295.1709,1853.55481 1295.1709,1852.48071 L1295.1709,1845.8457 C1295.21045,1844.8833 1295.67078,1842.00745 1297.24329,1841.12305 L1297.24329,1841.12305 Z M1309.45149,1845.85531 C1309.4511,1845.83969 1309.45149,1845.82914 1309.45149,1845.82367 L1309.45149,1845.85531 Z M1297.79736,1861.43933 C1299.16626,1862.15051 1300.69116,1862.53833 1302.27539,1862.5614 L1302.29553,1862.5614 L1302.32373,1862.5614 L1302.34424,1862.5614 C1303.953,1862.53796 1305.50061,1862.1377 1306.88635,1861.40527 L1306.9043,1863.30774 C1306.90393,1864.11963 1306.04993,1865.19446 1304.56091,1866.25647 C1303.73511,1866.84534 1302.89465,1867.30457 1302.36292,1867.57373 C1300.34326,1866.56738 1297.79736,1864.71655 1297.79736,1863.29089 L1297.79736,1861.43933 Z M1312.03967,1854.59412 C1312.18542,1853.90674 1312.26086,1853.19958 1312.26086,1852.48108 L1312.26086,1847.83496 C1312.79517,1847.97229 1313.28625,1848.18579 1313.71179,1848.45935 C1313.72388,1848.46704 1313.7356,1848.4751 1313.74768,1848.48279 C1314.73499,1849.13062 1315.3645,1850.10254 1315.3645,1851.18762 C1315.36414,1852.8103 1313.95422,1854.1803 1312.03967,1854.59412 Z M1291.60107,1839.80176 C1292.15918,1837.55176 1293.43799,1835.58923 1295.20203,1834.276 C1297.32056,1832.69836 1299.73352,1831.84692 1302.18018,1831.8125 C1302.22925,1831.81287 1302.32776,1831.81287 1302.37683,1831.8125 C1304.82349,1831.84692 1307.23645,1832.69836 1309.35498,1834.276 C1311.06042,1835.54565 1312.32019,1837.43494 1312.90283,1839.59631 C1313.23572,1840.83154 1313.25,1843.28406 1313.19067,1845.17297 C1312.8512,1845.07483 1312.50256,1844.99866 1312.14697,1844.94446 C1311.87708,1843.34302 1311.01538,1839.9801 1308.45776,1838.5658 C1306.69849,1837.59351 1304.62024,1837.75244 1302.271,1839.03711 C1299.7251,1837.79163 1297.54541,1837.68359 1295.78394,1838.71814 C1293.34644,1840.14929 1292.64001,1843.35144 1292.43823,1844.92029 C1292.12622,1844.9635 1291.8208,1845.02393 1291.52344,1845.1001 C1291.38721,1843.33606 1291.30225,1841.00513 1291.60107,1839.80176 Z M1289.06763,1851.18762 C1289.06763,1850.0249 1289.79126,1848.99182 1290.90564,1848.34729 C1290.95618,1848.32312 1291.00488,1848.29565 1291.05176,1848.26599 C1291.44727,1848.05542 1291.88745,1847.89355 1292.3584,1847.78845 L1292.3584,1852.48071 C1292.3584,1853.21277 1292.4364,1853.93311 1292.58765,1854.63257 C1290.57422,1854.27258 1289.06763,1852.86523 1289.06763,1851.18762 L1289.06763,1851.18762 Z M1283.96338,1874.1875 C1284.82288,1870.16907 1289.28516,1866.5282 1295.34009,1864.9718 C1296.65662,1868.08167 1301.20972,1870.15771 1301.80627,1870.41846 C1302.16553,1870.5752 1302.57385,1870.5752 1302.93311,1870.41846 C1303.52563,1870.15918 1308.04871,1868.09668 1309.36084,1864.99304 C1315.37,1866.56079 1319.79822,1870.19177 1320.65588,1874.1875 L1283.96338,1874.1875 Z" id="ic-why-indianic-5"></path>
        </g>
    </g>
</svg>