<?xml version="1.0" encoding="UTF-8"?>
<svg width="48px" height="48px" viewBox="0 0 48 48" version="1.1" xmlns="http://www.w3.org/2000/svg" xmlns:xlink="http://www.w3.org/1999/xlink">
    <!-- Generator: Sketch 61.2 (89653) - https://sketch.com -->
    <title>ic-hire-model-onsite-team</title>
    <desc>Created with Sketch.</desc>
    <g id="Page-1" stroke="none" stroke-width="1" fill="none" fill-rule="evenodd">
        <g id="Hiring-page" transform="translate(-380.000000, -1604.000000)" fill="#FF7675" fill-rule="nonzero">
            <path d="M424.976511,1636.43155 C425.80063,1633.25867 424.301081,1629.7811 421.135848,1628.30613 L416.034475,1625.92882 C415.73935,1625.79128 415.436063,1625.69219 415.130337,1625.62703 C416.066933,1624.85256 416.664783,1623.68256 416.664783,1622.37569 L416.664783,1616.75049 C416.664783,1613.3137 414.184078,1610.44692 410.918562,1609.83942 C410.323902,1606.57344 407.473025,1604 404,1604 C400.529886,1604 397.676663,1606.57091 397.081441,1609.83942 C393.815924,1610.44682 391.33522,1613.31361 391.33522,1616.75049 L391.33522,1622.37569 C391.33522,1623.68256 391.932976,1624.85256 392.869666,1625.62703 C392.563846,1625.69219 392.260653,1625.79119 391.965434,1625.92872 L386.864061,1628.30604 C383.698264,1629.78138 382.199373,1633.25914 383.023397,1636.43146 C380.27299,1638.37218 379.196711,1642.02328 380.644477,1645.12594 C382.093649,1648.2316 385.609637,1649.88029 388.867555,1649.0536 C390.798253,1651.75998 394.45111,1652.79442 397.568876,1651.34158 L402.670249,1648.96426 C403.188453,1648.72276 403.635363,1648.38085 404.000095,1647.97135 C404.364733,1648.38085 404.811643,1648.72276 405.329848,1648.96426 L410.43122,1651.34158 C413.550206,1652.79508 417.202594,1651.75867 419.132447,1649.0536 C422.354248,1649.87129 425.890124,1648.26666 427.355526,1645.12594 C428.803291,1642.02337 427.727012,1638.37218 424.976511,1636.43155 Z M414.845249,1628.47807 L419.946528,1630.8552 C421.669906,1631.65826 422.59609,1633.48367 422.34149,1635.27458 C419.251492,1634.61514 415.942729,1636.11711 414.511474,1639.17599 L416.887112,1634.0847 C417.215539,1633.38083 416.910752,1632.54401 416.206522,1632.21579 L413.655836,1631.02714 C412.952638,1630.69948 412.647288,1629.86107 412.975246,1629.15823 C413.303768,1628.45398 414.140363,1628.14938 414.845249,1628.47807 Z M404.000001,1606.8126 C406.288396,1606.8126 408.221626,1608.78754 408.221626,1611.12529 C408.221626,1613.45161 406.327796,1615.34424 404.000001,1615.34424 C401.672207,1615.34424 399.778376,1613.45161 399.778376,1611.12529 C399.77847,1608.78754 401.711701,1606.8126 404.000001,1606.8126 Z M394.149605,1616.75049 C394.149605,1614.84952 395.414629,1613.2388 397.147201,1612.71314 C397.86963,1615.82771 400.666848,1618.15683 404.000095,1618.15683 C407.333342,1618.15683 410.130467,1615.82771 410.852989,1612.71314 C412.585655,1613.2388 413.850491,1614.84961 413.850491,1616.75049 L413.850491,1622.37569 C413.850491,1623.15109 413.219245,1623.78203 412.443345,1623.78203 C411.667445,1623.78203 411.036106,1623.15119 411.036106,1622.37569 L411.036106,1619.56309 C411.036106,1618.78646 410.406079,1618.15674 409.62896,1618.15674 L404.000001,1618.15674 L398.37123,1618.15674 C397.594111,1618.15674 396.964085,1618.78637 396.964085,1619.56309 L396.964085,1622.37569 C396.964085,1623.15109 396.332839,1623.78203 395.556845,1623.78203 C394.780851,1623.78203 394.149605,1623.15119 394.149605,1622.37569 L394.149605,1616.75049 L394.149605,1616.75049 Z M388.053475,1630.8552 L393.154847,1628.47788 C393.859733,1628.14948 394.696235,1628.4536 395.024944,1629.15804 C395.353653,1629.86238 395.049241,1630.69854 394.344354,1631.02695 L391.793668,1632.21561 C391.089345,1632.54383 390.784651,1633.38055 391.113079,1634.08452 L393.489935,1639.17843 C392.059619,1636.11824 388.750012,1634.61467 385.6587,1635.27439 C385.403913,1633.48367 386.33019,1631.65826 388.053475,1630.8552 Z M388.899075,1646.07169 C386.785542,1647.05663 384.183073,1646.05482 383.195069,1643.93728 C382.220668,1641.84872 383.178746,1639.33359 385.330929,1638.33074 C387.449246,1637.34355 389.957061,1638.2624 390.941032,1640.3714 C391.927628,1642.48565 390.992533,1645.09613 388.899075,1646.07169 Z M401.480929,1646.41519 L396.379556,1648.79251 C394.655052,1649.59613 392.659063,1649.13067 391.450231,1647.78263 C392.4812,1646.97263 393.270608,1645.88072 393.729525,1644.59888 C394.370058,1642.80956 394.286286,1640.88759 393.493688,1639.18659 L395.870732,1644.28097 C396.198879,1644.98419 397.036318,1645.28944 397.740829,1644.96113 L400.291515,1643.77247 C400.996402,1643.44406 401.832903,1643.74819 402.161612,1644.45263 C402.497451,1645.17253 402.179436,1646.08969 401.480929,1646.41519 Z M404.000001,1642.19634 C402.812745,1640.898 400.845462,1640.41078 399.101914,1641.22331 L397.826571,1641.81759 L394.258331,1634.17039 L395.533674,1633.57611 C397.643361,1632.59305 398.559319,1630.07792 397.57563,1627.96948 C397.301706,1627.38241 396.908643,1626.88816 396.438938,1626.50125 C398.344682,1626.09475 399.77847,1624.39966 399.77847,1622.37569 L399.77847,1620.96934 L408.221626,1620.96934 L408.221626,1622.37569 C408.221626,1624.39966 409.655508,1626.09466 411.561159,1626.50125 C411.09136,1626.88807 410.698391,1627.38232 410.424466,1627.96948 C409.440777,1630.07792 410.356736,1632.59295 412.466422,1633.57611 L413.741859,1634.17039 L410.173619,1641.81759 L408.898276,1641.22331 C407.154916,1640.41106 405.187539,1640.89771 404.000001,1642.19634 Z M411.620634,1648.7926 L406.519261,1646.41529 C405.820754,1646.08979 405.502739,1645.17272 405.838672,1644.45263 C406.166631,1643.74978 407.005571,1643.44472 407.708769,1643.77247 L410.259455,1644.96113 C410.963215,1645.28907 411.801218,1644.98475 412.129552,1644.28097 L414.505658,1639.18874 C413.714092,1640.88937 413.630507,1642.81031 414.270759,1644.59888 C414.729676,1645.88072 415.518991,1646.97263 416.550053,1647.78263 C415.341127,1649.13076 413.345232,1649.59623 411.620634,1648.7926 Z M424.80484,1643.93728 C423.817492,1646.05332 421.215586,1647.05729 419.100833,1646.07169 C417.00747,1645.09622 416.072374,1642.48575 417.058877,1640.37131 C418.045005,1638.25762 420.554227,1637.34524 422.66898,1638.33065 C424.82135,1639.33359 425.779523,1641.84872 424.80484,1643.93728 Z" id="ic-hire-model-onsite-team"></path>
        </g>
    </g>
</svg>