<?xml version="1.0" encoding="UTF-8"?>
<svg width="48px" height="48px" viewBox="0 0 48 48" version="1.1" xmlns="http://www.w3.org/2000/svg" xmlns:xlink="http://www.w3.org/1999/xlink">
    <!-- Generator: Sketch 63.1 (92452) - https://sketch.com -->
    <title>ic-why-indianic-3</title>
    <desc>Created with Sketch.</desc>
    <g id="Page-1" stroke="none" stroke-width="1" fill="none" fill-rule="evenodd">
        <g id="Why-IndiaNIC" transform="translate(-1281.000000, -1433.000000)" fill="#0984E3" fill-rule="nonzero">
            <path d="M1313.34375,1433 C1314.12038,1433 1314.75,1433.62963 1314.75,1434.40625 L1314.75,1434.40625 L1314.75,1439.59344 C1314.89363,1439.70434 1315.03163,1439.82406 1315.16194,1439.95438 L1315.16194,1439.95438 L1319.13919,1443.93191 C1319.93606,1444.72869 1320.37491,1445.78806 1320.37491,1446.91494 L1320.37491,1446.91494 L1320.37491,1455.18031 L1321.78669,1453.75897 C1323.43491,1452.11084 1326.11138,1452.11084 1327.75631,1453.75559 C1329.40125,1455.40053 1329.40125,1458.077 1327.75631,1459.72184 L1327.75631,1459.72184 L1320.375,1467.15331 L1320.375,1479.59375 C1320.375,1480.37037 1319.74538,1481 1318.96875,1481 L1318.96875,1481 L1288.03125,1481 C1287.25463,1481 1286.625,1480.37037 1286.625,1479.59375 L1286.625,1479.59375 L1286.625,1475.28125 L1282.40625,1475.28125 C1281.62963,1475.28125 1281,1474.65162 1281,1473.875 L1281,1473.875 L1281,1434.40625 C1281,1433.62963 1281.62963,1433 1282.40625,1433 L1282.40625,1433 Z M1309.125,1441.53125 L1289.4375,1441.53125 L1289.4375,1478.1875 L1317.56259,1478.1875 L1317.56259,1469.98494 C1317.18009,1470.36997 1314.31491,1473.25456 1313.93241,1473.63969 C1313.74688,1473.82634 1313.51269,1473.95731 1313.25656,1474.01759 L1313.25656,1474.01759 L1308.04069,1475.24394 C1307.02809,1475.48187 1306.10794,1474.56969 1306.35075,1473.54941 L1306.35075,1473.54941 L1307.58909,1468.34562 C1307.64891,1468.094 1307.77716,1467.86375 1307.95941,1467.68019 L1307.95941,1467.68019 L1317.56259,1458.01184 L1317.56259,1449.96875 L1310.53125,1449.96875 C1309.75463,1449.96875 1309.125,1449.33912 1309.125,1448.5625 L1309.125,1448.5625 L1309.125,1441.53125 Z M1303.91194,1464.44319 C1304.46103,1463.89391 1305.35147,1463.89391 1305.90056,1464.44319 C1306.44975,1464.99238 1306.44975,1465.88272 1305.90056,1466.43191 L1305.90056,1466.43191 L1297.46306,1474.86941 C1296.91397,1475.41859 1296.02344,1475.41859 1295.47434,1474.86941 L1295.47434,1474.86941 L1292.66184,1472.05691 C1292.11266,1471.50772 1292.11266,1470.61738 1292.66184,1470.06819 C1293.21103,1469.519 1294.10147,1469.519 1294.65056,1470.06819 L1294.65056,1470.06819 L1296.46875,1471.88628 Z M1311.9375,1435.8125 L1283.8125,1435.8125 L1283.8125,1435.8125 L1283.8125,1472.46875 L1286.625,1472.46875 L1286.625,1440.125 C1286.625,1439.34838 1287.25463,1438.71875 1288.03125,1438.71875 L1288.03125,1438.71875 L1311.9375,1438.71875 L1311.9375,1435.8125 Z M1310.77106,1468.84044 L1310.23359,1469.38156 L1309.614,1471.98472 L1312.22063,1471.37188 L1312.76184,1470.827 C1312.55644,1470.39894 1312.27969,1470.005 1311.94022,1469.66553 C1311.59869,1469.32409 1311.20213,1469.04613 1310.77106,1468.84044 L1310.77106,1468.84044 Z M1320.80588,1458.73756 C1320.2955,1459.25141 1313.33222,1466.26194 1312.82222,1466.77541 C1313.21888,1467.03669 1313.59031,1467.33819 1313.92894,1467.67681 C1314.26081,1468.00878 1314.55734,1468.37206 1314.81506,1468.75991 L1314.81506,1468.75991 L1322.79459,1460.72628 Z M1325.76769,1455.74431 C1325.21963,1455.19625 1324.32722,1455.19606 1323.77897,1455.74441 L1323.77897,1455.74441 L1322.78794,1456.74209 L1324.77666,1458.73081 L1325.76431,1457.7365 C1326.31603,1457.18478 1326.31603,1456.29266 1325.76769,1455.74431 Z M1313.34375,1455.59375 C1314.12038,1455.59375 1314.75,1456.22338 1314.75,1457 C1314.75,1457.77662 1314.12038,1458.40625 1313.34375,1458.40625 L1313.34375,1458.40625 L1293.65625,1458.40625 C1292.87963,1458.40625 1292.25,1457.77662 1292.25,1457 C1292.25,1456.22338 1292.87963,1455.59375 1293.65625,1455.59375 L1293.65625,1455.59375 Z M1304.90625,1449.96875 C1305.68288,1449.96875 1306.3125,1450.59838 1306.3125,1451.375 C1306.3125,1452.15162 1305.68288,1452.78125 1304.90625,1452.78125 L1304.90625,1452.78125 L1293.65625,1452.78125 C1292.87963,1452.78125 1292.25,1452.15162 1292.25,1451.375 C1292.25,1450.59838 1292.87963,1449.96875 1293.65625,1449.96875 L1293.65625,1449.96875 Z M1312.17881,1441.53125 L1311.93759,1441.53125 L1311.93759,1447.15625 L1317.56259,1447.15625 L1317.56259,1446.91494 C1317.56259,1446.53938 1317.41625,1446.18622 1317.15066,1445.92062 L1317.15066,1445.92062 L1313.17322,1441.94309 C1312.90763,1441.6775 1312.55447,1441.53125 1312.17881,1441.53125 L1312.17881,1441.53125 Z M1304.90625,1444.34375 C1305.68288,1444.34375 1306.3125,1444.97338 1306.3125,1445.75 C1306.3125,1446.52662 1305.68288,1447.15625 1304.90625,1447.15625 L1304.90625,1447.15625 L1293.65625,1447.15625 C1292.87963,1447.15625 1292.25,1446.52662 1292.25,1445.75 C1292.25,1444.97338 1292.87963,1444.34375 1293.65625,1444.34375 L1293.65625,1444.34375 Z" id="ic-why-indianic-3"></path>
        </g>
    </g>
</svg>