<?xml version="1.0" encoding="UTF-8"?>
<svg width="48px" height="45px" viewBox="0 0 48 45" version="1.1" xmlns="http://www.w3.org/2000/svg" xmlns:xlink="http://www.w3.org/1999/xlink">
    <!-- Generator: Sketch 61.2 (89653) - https://sketch.com -->
    <title>ic-hire-model-product-developement-team</title>
    <desc>Created with Sketch.</desc>
    <g id="Page-1" stroke="none" stroke-width="1" fill="none" fill-rule="evenodd">
        <g id="Hiring-page" transform="translate(-1160.000000, -1605.000000)" fill="#0984E3" fill-rule="nonzero">
            <path d="M1203.78125,1605 C1206.10742,1605 1208,1606.89258 1208,1609.21875 L1208,1609.21875 L1208,1637.34375 C1208,1639.66992 1206.10742,1641.5625 1203.78125,1641.5625 L1203.78125,1641.5625 L1191.57617,1641.5625 L1193.45117,1647.1875 L1198.0625,1647.1875 C1198.83923,1647.1875 1199.46875,1647.81702 1199.46875,1648.59375 C1199.46875,1649.37048 1198.83923,1650 1198.0625,1650 L1198.0625,1650 L1169.9375,1650 C1169.16077,1650 1168.53125,1649.37048 1168.53125,1648.59375 C1168.53125,1647.81702 1169.16077,1647.1875 1169.9375,1647.1875 L1169.9375,1647.1875 L1174.54883,1647.1875 L1176.42383,1641.5625 L1164.21875,1641.5625 C1161.89258,1641.5625 1160,1639.66992 1160,1637.34375 L1160,1637.34375 L1160,1609.21875 C1160,1606.89258 1161.89258,1605 1164.21875,1605 L1164.21875,1605 Z M1188.61133,1641.5625 L1179.38867,1641.5625 L1177.51367,1647.1875 L1190.48633,1647.1875 L1188.61133,1641.5625 Z M1205.1875,1635.9375 L1162.8125,1635.9375 L1162.8125,1637.34375 C1162.8125,1638.11902 1163.44348,1638.75 1164.21875,1638.75 L1164.21875,1638.75 L1203.78125,1638.75 C1204.55652,1638.75 1205.1875,1638.11902 1205.1875,1637.34375 L1205.1875,1637.34375 L1205.1875,1635.9375 Z M1185.40625,1619.0625 L1182.59375,1619.0625 L1182.59375,1620.86646 C1182.59375,1621.50732 1182.16052,1622.06726 1181.54016,1622.22766 C1180.66675,1622.45398 1179.823,1622.80518 1179.03271,1623.271 C1178.4801,1623.59692 1177.77734,1623.50757 1177.32397,1623.0542 L1177.32397,1623.0542 L1176.0448,1621.77502 L1174.05627,1623.76392 L1175.33545,1625.04272 C1175.78882,1625.49646 1175.87781,1626.19922 1175.55225,1626.75146 C1175.08643,1627.54211 1174.73523,1628.38586 1174.50928,1629.25891 C1174.34851,1629.87927 1173.78857,1630.3125 1173.14771,1630.3125 L1173.14771,1630.3125 L1171.34375,1630.3125 L1171.34375,1633.125 L1177.11084,1633.125 C1177.01709,1632.66431 1176.96875,1632.19299 1176.96875,1631.71875 C1176.96875,1627.84167 1180.12292,1624.6875 1184,1624.6875 C1187.87708,1624.6875 1191.03125,1627.84167 1191.03125,1631.71875 C1191.03125,1632.19299 1190.98291,1632.66431 1190.88916,1633.125 L1190.88916,1633.125 L1196.65625,1633.125 L1196.65625,1630.3125 L1194.85229,1630.3125 C1194.21143,1630.3125 1193.65149,1629.87927 1193.49109,1629.25891 C1193.26477,1628.38586 1192.91394,1627.54211 1192.44775,1626.75146 C1192.12183,1626.19922 1192.21118,1625.49646 1192.66455,1625.04309 L1192.66455,1625.04309 L1193.94373,1623.76392 L1191.95483,1621.77502 L1190.67566,1623.0542 C1190.22229,1623.50757 1189.51953,1623.59692 1188.96692,1623.27136 C1188.17664,1622.80518 1187.33289,1622.45398 1186.45984,1622.22766 C1185.83948,1622.06726 1185.40625,1621.50732 1185.40625,1620.86646 L1185.40625,1620.86646 L1185.40625,1619.0625 Z M1184,1627.5 C1181.67383,1627.5 1179.78125,1629.39258 1179.78125,1631.71875 C1179.78125,1632.20032 1179.86475,1632.67603 1180.02295,1633.125 L1180.02295,1633.125 L1187.97705,1633.125 C1188.13525,1632.67603 1188.21875,1632.20032 1188.21875,1631.71875 C1188.21875,1629.39258 1186.32617,1627.5 1184,1627.5 Z M1203.78125,1607.8125 L1164.21875,1607.8125 C1163.44348,1607.8125 1162.8125,1608.44348 1162.8125,1609.21875 L1162.8125,1609.21875 L1162.8125,1633.125 L1168.53125,1633.125 L1168.53125,1628.90625 C1168.53125,1628.12988 1169.16077,1627.5 1169.9375,1627.5 L1169.9375,1627.5 L1172.11023,1627.5 C1172.25598,1627.09131 1172.42297,1626.68958 1172.61121,1626.29626 L1172.61121,1626.29626 L1171.07349,1624.75818 C1170.52417,1624.20886 1170.52417,1623.3186 1171.07349,1622.76929 L1171.07349,1622.76929 L1175.05054,1618.79187 C1175.31458,1618.5282 1175.672,1618.38025 1176.04517,1618.38025 C1176.41797,1618.38025 1176.77576,1618.5282 1177.03943,1618.79187 L1177.03943,1618.79187 L1178.57715,1620.32996 C1178.97083,1620.14172 1179.37256,1619.97437 1179.78125,1619.82898 L1179.78125,1619.82898 L1179.78125,1617.65625 C1179.78125,1616.87952 1180.41077,1616.25 1181.1875,1616.25 L1181.1875,1616.25 L1186.8125,1616.25 C1187.58923,1616.25 1188.21875,1616.87952 1188.21875,1617.65625 L1188.21875,1617.65625 L1188.21875,1619.82898 C1188.62744,1619.97437 1189.02917,1620.14172 1189.42285,1620.32996 L1189.42285,1620.32996 L1190.96057,1618.79187 C1191.22424,1618.5282 1191.58203,1618.38025 1191.95483,1618.38025 C1192.32764,1618.38025 1192.68542,1618.5282 1192.9491,1618.79187 L1192.9491,1618.79187 L1196.92651,1622.76929 C1197.47583,1623.3186 1197.47583,1624.20886 1196.92688,1624.75818 L1196.92688,1624.75818 L1195.38879,1626.2959 C1195.57703,1626.68958 1195.74438,1627.09131 1195.89014,1627.5 L1195.89014,1627.5 L1198.0625,1627.5 C1198.83923,1627.5 1199.46875,1628.12952 1199.46875,1628.90625 L1199.46875,1628.90625 L1199.46875,1633.125 L1205.1875,1633.125 L1205.1875,1609.21875 C1205.1875,1608.44348 1204.55652,1607.8125 1203.78125,1607.8125 L1203.78125,1607.8125 Z M1198.0625,1610.625 C1200.38867,1610.625 1202.28125,1612.51758 1202.28125,1614.84375 C1202.28125,1617.16992 1200.38867,1619.0625 1198.0625,1619.0625 C1195.73633,1619.0625 1193.84375,1617.16992 1193.84375,1614.84375 C1193.84375,1612.51758 1195.73633,1610.625 1198.0625,1610.625 Z M1198.0625,1613.4375 C1197.28723,1613.4375 1196.65625,1614.06848 1196.65625,1614.84375 C1196.65625,1615.61902 1197.28723,1616.25 1198.0625,1616.25 C1198.83777,1616.25 1199.46875,1615.61902 1199.46875,1614.84375 C1199.46875,1614.06848 1198.83777,1613.4375 1198.0625,1613.4375 Z" id="ic-hire-model-product-developement-team"></path>
        </g>
    </g>
</svg>