<?xml version="1.0" encoding="UTF-8"?>
<svg width="48px" height="48px" viewBox="0 0 48 48" version="1.1" xmlns="http://www.w3.org/2000/svg" xmlns:xlink="http://www.w3.org/1999/xlink">
    <!-- Generator: Sketch 61.2 (89653) - https://sketch.com -->
    <title>ic-hire-model-offsite-team</title>
    <desc>Created with Sketch.</desc>
    <g id="Page-1" stroke="none" stroke-width="1" fill="none" fill-rule="evenodd">
        <g id="Hiring-page" transform="translate(-770.000000, -1604.000000)" fill="#00B894" fill-rule="nonzero">
            <path d="M818,1621.97497 C818,1618.56706 816.082437,1615.59894 813.269937,1614.09172 C814.330812,1613.02053 814.987437,1611.54819 814.987437,1609.925 C814.987437,1606.65791 812.329438,1604 809.062437,1604 C807.141313,1604 805.431687,1604.91969 804.348406,1606.34122 C801.135313,1604.80662 797.585656,1604 793.999812,1604 C793.968781,1604 793.937375,1604 793.905875,1604.00113 C787.5305,1604.02541 781.54025,1606.51869 777.029469,1611.02947 C772.496469,1615.56247 770,1621.58947 770,1628.00009 C770,1630.71612 770.460219,1633.40056 771.347656,1635.93772 C771.357406,1635.97025 771.369312,1636.00175 771.381406,1636.03325 C771.861219,1637.38663 772.463,1638.69734 773.182063,1639.94788 C773.441,1641.00866 773.985312,1641.95862 774.730063,1642.71059 C771.917469,1644.21772 770,1647.18584 770,1650.59375 C770,1651.37037 770.629625,1652 771.40625,1652 L786.468687,1652 C787.037187,1652 787.525813,1651.66194 787.747438,1651.17641 C789.77675,1651.72297 791.872062,1652 793.999812,1652 C794.030938,1652 794.06225,1652 794.09375,1651.99887 C800.469313,1651.97459 806.459656,1649.48131 810.970438,1644.97053 C815.503531,1640.43753 818,1634.41062 818,1628.00009 C818,1626.33313 817.82825,1624.67712 817.489625,1623.05881 C817.801344,1622.80091 818,1622.41119 818,1621.97497 Z M809.062437,1606.8125 C810.778719,1606.8125 812.174937,1608.20881 812.174937,1609.925 C812.174937,1611.64119 810.778625,1613.03741 809.062437,1613.03741 C807.34625,1613.03741 805.950031,1611.64119 805.950031,1609.925 C805.950031,1608.20881 807.34625,1606.8125 809.062437,1606.8125 Z M809.062437,1615.84991 C811.956031,1615.84991 814.387438,1617.86703 815.024656,1620.56872 L803.100312,1620.56872 C803.737531,1617.86694 806.168844,1615.84991 809.062437,1615.84991 Z M803.224156,1608.92319 C803.168375,1609.24916 803.137719,1609.58356 803.137719,1609.92519 C803.137531,1611.54819 803.794062,1613.02063 804.855031,1614.09181 C803.710438,1614.70522 802.714156,1615.5605 801.935,1616.58912 C801.591969,1614.77975 801.16475,1613.09516 800.659531,1611.57922 C800.066469,1609.80003 799.425125,1608.4205 798.767656,1607.35653 C800.306844,1607.71081 801.803188,1608.23619 803.224156,1608.92319 Z M800.124875,1628.00009 C800.124875,1630.10478 800.027563,1632.16147 799.84025,1634.12469 L788.159562,1634.12469 C787.972344,1632.16147 787.874937,1630.10478 787.874937,1628.00009 C787.874937,1625.89513 787.972344,1623.83825 788.159656,1621.87484 L799.840156,1621.87484 C800.027469,1623.83825 800.124875,1625.89513 800.124875,1628.00009 Z M793.999812,1606.8125 C794.971344,1606.8125 796.599687,1608.29375 797.991219,1612.46853 C798.63425,1614.39781 799.142187,1616.63037 799.500875,1619.06234 L788.498844,1619.06234 C788.857625,1616.63047 789.365563,1614.39781 790.008687,1612.46853 C791.400313,1608.29375 793.028469,1606.8125 793.999812,1606.8125 Z M789.234594,1607.35297 C788.576375,1608.41741 787.934281,1609.79797 787.340563,1611.57912 C786.611469,1613.76641 786.045219,1616.30469 785.659437,1619.06234 L774.792875,1619.06234 C777.518469,1613.22837 782.824438,1608.83188 789.234594,1607.35297 Z M773.714563,1634.12469 C773.119719,1632.14937 772.8125,1630.08547 772.8125,1628.00009 C772.8125,1625.87103 773.129469,1623.81491 773.716437,1621.87484 L785.335906,1621.87484 C785.155719,1623.84847 785.062437,1625.90403 785.062437,1628.00009 C785.062437,1630.09587 785.155719,1632.15125 785.335906,1634.12469 L782.878719,1634.12469 C781.830687,1633.18897 780.449656,1632.61878 778.937469,1632.61878 C777.425281,1632.61878 776.04425,1633.18897 774.996219,1634.12469 L773.714563,1634.12469 Z M782.049969,1638.54378 C782.049969,1640.25997 780.653656,1641.65619 778.937469,1641.65619 C777.221281,1641.65619 775.824969,1640.25997 775.824969,1638.54378 C775.824969,1636.8275 777.221281,1635.43128 778.937469,1635.43128 C780.653656,1635.43128 782.049969,1636.82759 782.049969,1638.54378 Z M772.975344,1649.1875 C773.612562,1646.48572 776.043875,1644.46869 778.937469,1644.46869 C781.831063,1644.46869 784.262375,1646.48572 784.899594,1649.1875 L772.975344,1649.1875 Z M787.545031,1648.18559 C786.8825,1645.82047 785.269156,1643.84891 783.144969,1642.71059 C784.205938,1641.63941 784.862469,1640.16697 784.862469,1638.54378 C784.862469,1637.98691 784.783625,1637.4485 784.639344,1636.93719 L785.659344,1636.93719 C786.045125,1639.69503 786.611375,1642.2335 787.340563,1644.42088 C787.934656,1646.20325 788.577219,1647.58437 789.235906,1648.64909 C788.666469,1648.51831 788.102562,1648.36381 787.545031,1648.18559 Z M793.999812,1649.1875 C793.028469,1649.1875 791.400313,1647.70616 790.008687,1643.53147 C789.365563,1641.60209 788.857531,1639.36934 788.49875,1636.93728 L799.500969,1636.93728 C799.142187,1639.36944 798.63425,1641.60219 797.991219,1643.53156 C796.599687,1647.70625 794.971344,1649.1875 793.999812,1649.1875 Z M798.765406,1648.64694 C799.423625,1647.5825 800.065719,1646.20194 800.659437,1644.42078 C801.388531,1642.2335 801.954781,1639.69503 802.340469,1636.93719 L813.207406,1636.93719 C810.481813,1642.77144 805.175656,1647.16803 798.765406,1648.64694 Z M814.283656,1634.12469 L802.663812,1634.12469 C802.844,1632.15125 802.937281,1630.09597 802.937281,1628.00009 C802.937281,1626.43203 802.884969,1624.88675 802.783344,1623.38122 L814.68275,1623.38122 C815.017906,1624.8905 815.1875,1626.43962 815.1875,1628.00009 C815.1875,1630.12897 814.870531,1632.18481 814.283656,1634.12469 Z" id="ic-hire-model-offsite-team"></path>
        </g>
    </g>
</svg>