<?xml version="1.0" encoding="UTF-8"?>
<svg width="48px" height="48px" viewBox="0 0 48 48" version="1.1" xmlns="http://www.w3.org/2000/svg" xmlns:xlink="http://www.w3.org/1999/xlink">
    <!-- Generator: Sketch 51.3 (57544) - http://www.bohemiancoding.com/sketch -->
    <title>ic-methodology-discovery-process-1</title>
    <desc>Created with Sketch.</desc>
    <defs></defs>
    <g id="Page-1" stroke="none" stroke-width="1" fill="none" fill-rule="evenodd">
        <g id="ic-methodology-discovery-process-1" fill="#FF7675" fill-rule="nonzero">
            <path d="M18.610145,21.3973388 C19.395586,21.3973388 20.032419,22.029419 20.032419,22.8094482 C20.032419,24.703125 19.232598,26.4140625 17.952662,27.6298828 L17.952662,32.3613281 C17.952662,33.2358398 17.776398,34.0697021 17.458166,34.8310547 C20.644547,36.2208252 22.875493,39.3841552 22.875493,43.0554199 L22.875493,46.5878906 C22.875493,47.3675537 22.239028,48 21.453587,48 L1.421905,48 C0.636465,48 0,47.3675537 0,46.5878906 L0,43.0554199 C0,39.3841552 2.230946,36.2208252 5.417327,34.8310547 C5.099463,34.0697021 4.922831,33.2358398 4.922831,32.3613281 L4.922831,27.8671875 C4.922831,24.2995605 7.845555,21.3973388 11.437931,21.3973388 L18.610145,21.3973388 Z M15.750847,37.2044677 C14.60108,38.2155761 13.090674,38.8311768 11.437931,38.8311768 C9.784818,38.8311768 8.274413,38.2155761 7.124646,37.2044677 C4.642949,38.0079346 2.844179,40.3264161 2.844179,43.0557862 L2.844179,45.1757812 L20.031682,45.1757812 L20.031682,43.0554199 C20.031682,40.3264161 18.232544,38.0075683 15.750847,37.2044677 Z M36.562069,16.4377442 C40.154445,16.4377442 43.077169,19.340332 43.077169,22.9079589 L43.077169,27.4020996 C43.077169,28.2762451 42.900537,29.1101074 42.582673,29.8718261 C45.769054,31.2615967 48,34.4245605 48,38.0961914 L48,41.6282959 C48,42.4083252 47.363535,43.0404053 46.578095,43.0404053 L26.546413,43.0404053 C25.761341,43.0404053 25.124507,42.4083252 25.124507,41.6282959 L25.124507,38.0961914 C25.124507,34.4245605 27.355453,31.2615967 30.541834,29.8718261 C30.22397,29.1104737 30.047338,28.2762451 30.047338,27.4020996 L30.047338,22.6706542 C28.767402,21.4544678 27.967581,19.7438964 27.967581,17.8502198 C27.967581,17.0701904 28.604414,16.4377442 29.389855,16.4377442 L36.562069,16.4377442 Z M40.875354,32.2452393 C39.725587,33.2563477 38.215182,33.8719482 36.562438,33.8719482 C34.909326,33.8719482 33.399289,33.2563477 32.249153,32.2452393 C29.767456,33.0483398 27.968318,35.3671875 27.968318,38.0961914 L27.968318,40.2161865 L45.156189,40.2161865 L45.156189,38.0961914 C45.156189,35.3671875 43.357051,33.0483398 40.875354,32.2452393 Z M15.108482,29.2397461 C14.53618,29.3979492 13.93364,29.4840088 13.311188,29.4840088 L7.766642,29.4840088 L7.766642,32.3613281 C7.766642,34.3714599 9.413486,36.006958 11.437562,36.006958 C13.462007,36.006958 15.108482,34.3714599 15.108482,32.3613281 L15.108482,29.2397461 Z M32.891518,24.2805176 L32.891518,27.4020996 C32.891518,29.4122315 34.537993,31.0477295 36.562438,31.0477295 C38.586514,31.0477295 40.233358,29.4122315 40.233358,27.4020996 L40.233358,24.5247803 L34.688812,24.5247803 C34.06636,24.5247803 33.46382,24.4387208 32.891518,24.2805176 Z M16.918314,24.2215576 L11.437931,24.2215576 C9.839762,24.2215576 8.476857,25.2410888 7.97388,26.6597901 L13.311188,26.6597901 C14.947338,26.6597901 16.350068,25.6479492 16.918314,24.2215576 Z M36.562438,19.2623291 L31.082055,19.2623291 C31.649932,20.6887208 33.052662,21.7001953 34.688812,21.7001953 L40.026489,21.7001953 C39.523512,20.2818604 38.160607,19.2623291 36.562438,19.2623291 Z M24.904732,0 C26.590294,0 27.961312,1.3619385 27.961312,3.0355224 L27.961312,13.7746583 C27.961312,15.4486084 26.590294,16.8105469 24.904732,16.8105469 L23.330901,16.8105469 L23.330901,20.1166992 C23.330901,20.6901855 22.982062,21.206543 22.447372,21.423706 C22.273322,21.494751 22.090421,21.5291748 21.909364,21.5291748 C21.535081,21.5291748 21.167436,21.3823242 20.894929,21.1065674 L16.643225,16.8105469 L8.049105,16.8105469 C6.363543,16.8105469 4.992525,15.4486084 4.992525,13.7746583 L4.992525,3.0355224 C4.992525,1.3619385 6.363543,0 8.049105,0 L24.904732,0 Z M24.904732,2.8242188 L8.049105,2.8242188 C7.931843,2.8242188 7.836336,2.9190674 7.836336,3.0355224 L7.836336,13.7746583 C7.836336,13.8914795 7.931843,13.9859619 8.049105,13.9859619 L17.239128,13.9859619 C17.620785,13.9859619 17.986218,14.1383057 18.253563,14.4085693 L20.486721,16.6651612 L20.486721,15.3984375 C20.486721,14.6184083 21.123555,13.9859619 21.908995,13.9859619 L24.904732,13.9859619 C25.021994,13.9859619 25.117501,13.8914795 25.117501,13.7746583 L25.117501,3.0355224 C25.117501,2.9190674 25.021994,2.8242188 24.904732,2.8242188 Z M18.096475,3.7994385 C19.890819,3.7994385 21.350706,5.2492676 21.350706,7.03125 C21.350706,10.1839599 17.586491,12.3112792 17.157265,12.543457 C16.945233,12.658081 16.711076,12.7155761 16.476918,12.7155761 C16.242761,12.7155761 16.008604,12.658081 15.796941,12.543457 C15.367714,12.3112792 11.603131,10.1839599 11.603131,7.03125 C11.603131,5.2489013 13.063018,3.7994385 14.857362,3.7994385 C15.437777,3.7994385 15.993485,3.9510498 16.476918,4.2268067 C16.96072,3.9510498 17.516429,3.7994385 18.096475,3.7994385 Z M18.096475,6.6236573 C17.914311,6.6236573 17.789305,6.7364502 17.733254,6.8415527 C17.48656,7.3033448 17.003127,7.5922852 16.476918,7.5922852 C15.95071,7.5922852 15.467277,7.3033448 15.220951,6.8415527 C15.164532,6.7364502 15.039526,6.6236573 14.857362,6.6236573 C14.631318,6.6236573 14.447311,6.8063964 14.447311,7.03125 C14.447311,7.9475098 15.566103,8.9904786 16.476918,9.6331787 C17.387734,8.9904786 18.506526,7.9475098 18.506526,7.03125 C18.506526,6.8063964 18.322519,6.6236573 18.096475,6.6236573 Z" id="Shape"></path>
        </g>
    </g>
</svg>