<?xml version="1.0" encoding="UTF-8"?>
<svg width="48px" height="48px" viewBox="0 0 48 48" version="1.1" xmlns="http://www.w3.org/2000/svg" xmlns:xlink="http://www.w3.org/1999/xlink">
    <!-- Generator: Sketch 51.3 (57544) - http://www.bohemiancoding.com/sketch -->
    <title>ic-methodology-discovery-process-2</title>
    <desc>Created with Sketch.</desc>
    <defs></defs>
    <g id="Page-1" stroke="none" stroke-width="1" fill="none" fill-rule="evenodd">
        <g id="ic-methodology-discovery-process-2" fill="#00B894" fill-rule="nonzero">
            <path d="M16.792236,0 C12.306885,0 8.089966,1.7469061 4.918213,4.9184381 C1.746826,8.0903362 0,12.3074482 0,16.7926388 C0,21.278562 1.746826,25.4953077 4.918213,28.6672058 C8.0896,31.8387377 12.306519,33.5856439 16.79187,33.5856439 C20.661843,33.5856439 24.331931,32.285138 27.303357,29.8910017 L27.630615,29.6204966 L31.024292,33.0146949 C30.688477,33.662918 30.510498,34.3869501 30.510498,35.1380831 C30.510498,36.2917004 30.929678,37.3805556 31.695983,38.2307588 L31.865479,38.409229 L40.103027,46.6471549 C41.005005,47.5488075 42.189331,48 43.374023,48 C44.558716,48 45.743042,47.5488075 46.64502,46.6471549 C47.518799,45.7733356 48,44.6116614 48,43.3760091 C48,42.2227336 47.58082,41.1339013 46.814515,40.2834018 L46.64502,40.1048632 L38.407837,31.8669373 C37.006728,30.4657642 34.923036,30.153184 33.217438,30.928871 L33.014648,31.0271772 L29.619507,27.6318801 C32.185547,24.6050082 33.584106,20.8064944 33.584106,16.7930051 C33.584106,12.3074482 31.837646,8.0903362 28.665894,4.9184381 C25.494141,1.7469061 21.277588,0 16.792236,0 Z M33.85437,33.8559199 C34.522237,33.1880223 35.585679,33.1509169 36.29719,33.7446037 L36.418945,33.8559199 L44.656494,42.0934796 C44.998901,42.4362687 45.1875,42.8914898 45.1875,43.3760091 C45.1875,43.8605283 44.998901,44.3157494 44.656494,44.6585385 C43.988627,45.3260902 42.925186,45.3631764 42.213674,44.7697971 L42.091919,44.6585385 L33.85437,36.4206126 C33.147217,35.7134268 33.147217,34.5631056 33.85437,33.8559199 Z M16.792236,2.8126288 C20.526123,2.8126288 24.036621,4.266919 26.677002,6.9074207 C29.317383,9.5479225 30.771606,13.0585812 30.771606,16.7930051 C30.771606,20.5270627 29.317383,24.0377215 26.677002,26.6782233 C24.036621,29.3187249 20.526123,30.7730152 16.792236,30.7730152 C13.057983,30.7730152 9.547485,29.3187249 6.907104,26.6782233 C4.266724,24.0377215 2.8125,20.5270627 2.8125,16.7926388 C2.8125,13.0585812 4.266724,9.5479225 6.907104,6.9074207 C9.547485,4.266919 13.057983,2.8126288 16.792236,2.8126288 Z M9.854736,16.8863931 C9.123693,16.8863931 8.523057,17.4440527 8.454923,18.1572571 L8.448486,18.2927075 L8.448486,22.7932798 C8.448486,23.5700487 9.078003,24.1995942 9.854736,24.1995942 C10.585435,24.1995942 11.186376,23.6419345 11.254546,22.9287302 L11.260986,22.7932798 L11.260986,18.2927075 C11.260986,17.5159386 10.631104,16.8863931 9.854736,16.8863931 Z M14.542236,12.1986785 C13.811193,12.1986785 13.210557,12.7563381 13.142423,13.4695425 L13.135986,13.6049929 L13.135986,22.7932798 C13.135986,23.5700487 13.765503,24.1995942 14.542236,24.1995942 C15.272935,24.1995942 15.873876,23.6419345 15.942046,22.9287302 L15.948486,22.7932798 L15.948486,13.6049929 C15.948486,12.828224 15.318604,12.1986785 14.542236,12.1986785 Z M19.229736,14.0737644 C18.498693,14.0737644 17.898057,14.631424 17.829923,15.3446283 L17.823486,15.4800787 L17.823486,22.7932798 C17.823486,23.5700487 18.453003,24.1995942 19.229736,24.1995942 C19.960435,24.1995942 20.561376,23.6419345 20.629546,22.9287302 L20.635986,22.7932798 L20.635986,15.4800787 C20.635986,14.7033098 20.006104,14.0737644 19.229736,14.0737644 Z M23.917236,9.3860498 C23.186193,9.3860498 22.585557,9.9437094 22.517423,10.6569137 L22.510986,10.7923641 L22.510986,22.7932798 C22.510986,23.5700487 23.140503,24.1995942 23.917236,24.1995942 C24.647935,24.1995942 25.248876,23.6419345 25.317046,22.9287302 L25.323486,22.7932798 L25.323486,10.7923641 C25.323486,10.0155952 24.693604,9.3860498 23.917236,9.3860498 Z" id="Shape"></path>
        </g>
    </g>
</svg>