<?xml version="1.0" encoding="UTF-8"?>
<svg width="48px" height="43px" viewBox="0 0 48 43" version="1.1" xmlns="http://www.w3.org/2000/svg" xmlns:xlink="http://www.w3.org/1999/xlink">
    <!-- Generator: Sketch 51.3 (57544) - http://www.bohemiancoding.com/sketch -->
    <title>ic-methodology-discovery-process-3</title>
    <desc>Created with Sketch.</desc>
    <defs></defs>
    <g id="Page-1" stroke="none" stroke-width="1" fill="none" fill-rule="evenodd">
        <g id="ic-methodology-discovery-process-3" fill="#0984E3" fill-rule="nonzero">
            <path d="M3.889573,15.3932952 C4.292771,15.3932952 4.676194,15.5663975 4.943528,15.8683201 L7.426436,18.6774811 C7.940595,19.2590023 7.885664,20.1472038 7.303389,20.6610211 C6.72148,21.1752045 5.832687,21.1199435 5.318527,20.5384222 L5.295456,20.5124386 L5.295456,21.4972552 C5.295456,31.803978 13.68644,40.189375 24.000029,40.189375 C27.018337,40.189375 30.016869,39.4545137 32.670797,38.0642059 C35.24123,36.7174481 37.497819,34.7580619 39.196304,32.3979421 C39.650039,31.7677473 40.528578,31.6246543 41.159193,32.0777212 C41.789808,32.530788 41.932996,33.4087423 41.479627,34.0389372 C39.526992,36.7522149 36.93239,39.0051065 33.976704,40.553512 C30.921409,42.1538848 27.471339,43 24.000029,43 C18.25272,43 12.849282,40.7635769 8.785443,36.7020775 C4.721238,32.6405781 2.482959,27.241104 2.482959,21.4972552 L2.482959,20.5124386 L2.460254,20.5384222 C2.1823,20.8527877 1.794849,21.0134472 1.405933,21.0134472 C1.074879,21.0134472 0.742726,20.8974357 0.475392,20.6610211 C-0.106883,20.1472038 -0.161814,19.2593683 0.352345,18.6774811 L2.835619,15.8683201 C3.102221,15.5663975 3.486376,15.3932952 3.889573,15.3932952 Z M26.812526,7.2670025 C27.589259,7.2670025 28.218775,7.8964654 28.218775,8.672315 L28.218775,11.0737891 C29.182275,11.4646417 30.092675,11.99017 30.915184,12.6302459 L32.996725,11.4291429 C33.669088,11.041218 34.529316,11.2714112 34.917499,11.9433262 L37.729997,16.8114164 C37.916398,17.1341992 37.966935,17.5177324 37.870622,17.8778437 C37.773942,18.237955 37.538469,18.5450011 37.215471,18.7312783 L35.140522,19.9283557 C35.213398,20.4472965 35.250019,20.9717269 35.250019,21.4972552 C35.250019,22.0165621 35.21413,22.535869 35.143085,23.0489544 L37.215471,24.244568 C37.538103,24.430845 37.773942,24.7378912 37.870622,25.0980025 C37.966935,25.4577479 37.916398,25.8412811 37.729997,26.1640638 L34.917499,31.03252 C34.731098,31.3553028 34.423848,31.5906193 34.063496,31.6872346 C33.703511,31.7834839 33.319356,31.7329805 32.996725,31.5467033 L30.928734,30.3536516 C30.102929,30.9984851 29.187768,31.527673 28.218775,31.9207214 L28.218775,34.3035312 C28.218775,35.0793808 27.588893,35.7088437 26.812526,35.7088437 L21.187531,35.7088437 C20.410799,35.7088437 19.781283,35.0793808 19.781283,34.3035312 L19.781283,31.9207214 C18.812289,31.527673 17.897129,30.9984851 17.071324,30.3536516 L15.003333,31.5467033 C14.680335,31.7333464 14.296547,31.7834839 13.936195,31.6872346 C13.57621,31.5906193 13.26896,31.3553028 13.082558,31.03252 L10.270061,26.1640638 C10.083294,25.8412811 10.032756,25.4577479 10.129436,25.0980025 C10.226116,24.7378912 10.461589,24.430845 10.784953,24.244568 L12.856973,23.0489544 C12.785928,22.535503 12.750039,22.0165621 12.750039,21.4972552 C12.750039,20.9717269 12.78666,20.4472965 12.859536,19.9283557 L10.784587,18.7312783 C10.461589,18.5450011 10.226116,18.237955 10.129436,17.8778437 C10.033123,17.5180983 10.08366,17.1341992 10.270061,16.8114164 L13.082558,11.9433262 C13.470742,11.2714112 14.33097,11.0408521 15.003333,11.4291429 L17.08524,12.6302459 C17.907383,11.99017 18.818149,11.4646417 19.781283,11.0737891 L19.781283,8.672315 C19.781283,7.8964654 20.410799,7.2670025 21.187531,7.2670025 L26.812526,7.2670025 Z M25.406278,10.0776275 L22.59378,10.0776275 L22.59378,12.0681209 C22.59378,12.6898985 22.184723,13.2377508 21.588532,13.4152446 C20.334261,13.7881648 19.165683,14.4626416 18.208774,15.3658477 C17.756871,15.792199 17.078282,15.8716137 16.539953,15.5612739 L14.815101,14.5658442 L13.408852,16.9998894 L15.127845,17.9916593 C15.66654,18.3023652 15.936804,18.9299983 15.792517,19.5345753 C15.639807,20.1750172 15.562537,20.8352213 15.562537,21.4972552 C15.562537,22.1545316 15.638708,22.8103441 15.789221,23.4460284 C15.932043,24.0502396 15.661413,24.6760428 15.123816,24.9863827 L13.408852,25.9759569 L14.815101,28.410002 L16.527868,27.4218916 C17.06693,27.1111858 17.74625,27.1909666 18.198154,27.6187818 C19.156894,28.5271114 20.3295,29.2048818 21.588898,29.5796318 C22.185089,29.7567598 22.59378,30.3046121 22.59378,30.9263896 L22.59378,32.8982187 L25.406278,32.8982187 L25.406278,30.9263896 C25.406278,30.3046121 25.814969,29.7567598 26.411526,29.5796318 C27.670558,29.2048818 28.843164,28.5267454 29.801904,27.6187818 C30.253807,27.1909666 30.933494,27.1108199 31.472556,27.4218916 L33.184957,28.410002 L34.591206,25.9759569 L32.876242,24.9863827 C32.338278,24.6760428 32.068015,24.0502396 32.210837,23.4460284 C32.360983,22.8103441 32.437521,22.1545316 32.437521,21.4972552 C32.437521,20.8352213 32.359885,20.1750172 32.207175,19.5345753 C32.063254,18.9299983 32.333517,18.3023652 32.872213,17.9916593 L34.591206,16.9998894 L33.184957,14.5658442 L31.459739,15.5612739 C30.921776,15.8716137 30.243187,15.792199 29.791283,15.3658477 C28.834375,14.4630076 27.665797,13.7881648 26.41116,13.4152446 C25.814969,13.2377508 25.406278,12.6898985 25.406278,12.0681209 L25.406278,10.0776275 Z M24.000029,0 C29.747338,0 35.150776,2.2364231 39.214615,6.2975565 C43.27882,10.3590559 45.517099,15.758896 45.517099,21.5023788 L45.517099,22.4871955 L45.539804,22.4615778 C46.053964,21.8800565 46.942757,21.8247955 47.524666,22.3386129 C48.106941,22.8524303 48.161872,23.7406317 47.647346,24.3225189 L45.164438,27.1316799 C44.897471,27.4336025 44.513682,27.6063389 44.110484,27.6063389 C43.707287,27.6063389 43.323498,27.4336025 43.05653,27.1316799 L40.573622,24.3225189 C40.059463,23.7409977 40.114394,22.8527962 40.696669,22.3389789 C41.278578,21.8251615 42.167371,21.8800565 42.681531,22.4619437 L42.704602,22.4875614 L42.704602,21.5027448 C42.704602,11.196022 34.313618,2.810625 24.000029,2.810625 C20.981355,2.810625 17.983189,3.5454863 15.32926,4.9357941 C12.758828,6.282186 10.502238,8.2415721 8.803754,10.6020579 C8.350385,11.2322527 7.471479,11.3757117 6.840865,10.9222788 C6.21025,10.469212 6.066696,9.5908917 6.520064,8.9610629 C8.472699,6.2474191 11.067301,3.9948935 14.023353,2.446488 C17.078648,0.8461152 20.528352,0 24.000029,0 Z M24.000029,15.8760053 C27.101467,15.8760053 29.625024,18.3978825 29.625024,21.4972552 C29.625024,24.596994 27.101467,27.1185051 24.000029,27.1185051 C20.898225,27.1185051 18.375034,24.596994 18.375034,21.4972552 C18.375034,18.3978825 20.898225,15.8760053 24.000029,15.8760053 Z M24.000029,18.6866303 C22.449127,18.6866303 21.187531,19.9473859 21.187531,21.4972552 C21.187531,23.0471246 22.449127,24.3078802 24.000029,24.3078802 C25.550931,24.3078802 26.812526,23.0471246 26.812526,21.4972552 C26.812526,19.9473859 25.550931,18.6866303 24.000029,18.6866303 Z" id="Shape"></path>
        </g>
    </g>
</svg>