<?xml version="1.0" encoding="UTF-8"?>
<svg width="38px" height="40px" viewBox="0 0 38 40" version="1.1" xmlns="http://www.w3.org/2000/svg" xmlns:xlink="http://www.w3.org/1999/xlink">
    <!-- Generator: Sketch 63.1 (92452) - https://sketch.com -->
    <title>ic-menu-project-execution copy</title>
    <desc>Created with Sketch.</desc>
    <g id="Page-1" stroke="none" stroke-width="1" fill="none" fill-rule="evenodd">
        <g id="Methodology-6" transform="translate(-996.000000, -2935.000000)" fill="#F13C31">
            <g id="menu/project-review" transform="translate(990.000000, 2931.000000)">
                <g id="hand" transform="translate(6.000000, 4.000000)">
                    <path d="M34.2835221,1.98951966e-13 C36.2250907,1.98951966e-13 37.804777,1.57952941 37.804777,3.52117647 L37.804777,3.52117647 L37.804777,31.0948235 C37.804777,33.0364706 36.2252475,34.616 34.2836005,34.616 L34.2836005,34.616 L23.1201495,34.616 L19.8788946,39.4778824 C19.4148162,40.1738039 18.3901103,40.1743529 17.9257181,39.4778824 L17.9257181,39.4778824 L14.6844632,34.616 L3.52101225,34.616 C1.5793652,34.616 -0.000164215687,33.0363922 -0.000164215687,31.0948235 L-0.000164215687,31.0948235 L-0.000164215687,3.52117647 C-0.000164215687,1.57952941 1.57944363,1.98951966e-13 3.52101225,1.98951966e-13 L3.52101225,1.98951966e-13 Z M34.2835221,2.34745098 L3.52101225,2.34745098 C2.873875,2.34745098 2.34728676,2.87396078 2.34728676,3.52117647 L2.34728676,3.52117647 L2.34728676,31.0948235 C2.34728676,31.7419608 2.873875,32.268549 3.52101225,32.268549 L3.52101225,32.268549 L15.3126201,32.268549 C15.7050907,32.268549 16.0715221,32.4647059 16.2891691,32.7912157 L16.2891691,32.7912157 L18.9022672,36.7108235 L21.5154436,32.7912157 C21.7330123,32.4647059 22.0995221,32.268549 22.4919926,32.268549 L22.4919926,32.268549 L34.2835221,32.268549 C34.9306593,32.268549 35.4572475,31.7419608 35.4572475,31.0948235 L35.4572475,31.0948235 L35.4572475,3.52117647 C35.4572475,2.87396078 34.9306593,2.34745098 34.2835221,2.34745098 L34.2835221,2.34745098 Z M17.4465025,22.9419608 C18.177875,21.8260392 19.8158358,21.825098 20.5479926,22.9419608 L20.5479926,22.9419608 L21.0363064,23.6867451 L21.9152083,23.9312157 C23.2079926,24.2906667 23.7034436,25.8643137 22.8471299,26.899451 L22.8471299,26.899451 L22.2963848,27.5654118 L22.3450907,28.463451 C22.4185809,29.8151373 21.0641495,30.7890196 19.8050123,30.2855686 L19.8050123,30.2855686 L18.9972475,29.9624314 L18.1895613,30.2854902 C16.9325417,30.788549 15.5759926,29.8169412 15.6492475,28.4635294 L15.6492475,28.4635294 L15.6980319,27.5653333 L15.1472083,26.8993725 C14.2920711,25.8654902 14.7850123,24.2911373 16.0792868,23.9311373 L16.0792868,23.9311373 L16.9581887,23.6867451 Z M7.97442402,23.3329412 C8.66822794,22.2749804 10.2176397,22.2771765 10.9095613,23.3330196 L10.9095613,23.3330196 L11.2911299,23.9149804 L11.9796005,24.1065098 C13.2028946,24.4467451 13.6719142,25.9361569 12.8614828,26.9156863 L12.8614828,26.9156863 L12.4340319,27.432549 L12.4719142,28.1323922 C12.541326,29.4117647 11.2590515,30.3332549 10.0679142,29.8567059 L10.0679142,29.8567059 L9.44203186,29.6063529 L8.81599265,29.8567059 C7.62611029,30.3329412 6.34265931,29.4121569 6.41207108,28.1323922 L6.41207108,28.1323922 L6.44995343,27.4324706 L6.02242402,26.9156078 C5.21316912,25.937098 5.67975735,24.4471373 6.90446324,24.1065098 L6.90446324,24.1065098 L7.59285539,23.9149804 Z M26.894973,23.3329412 C27.5870515,22.2770196 29.1370907,22.276 29.8300319,23.3328627 L29.8300319,23.3328627 L30.2116789,23.9149804 L30.9000711,24.1065098 C32.1232868,24.4467451 32.5923848,25.936 31.7821103,26.9155294 L31.7821103,26.9155294 L31.3545809,27.4324706 L31.3924632,28.1323922 C31.461875,29.4117647 30.1796005,30.3332549 28.9884632,29.8567059 L28.9884632,29.8567059 L28.3625025,29.6063529 L27.7364632,29.8567059 C26.5466593,30.3329412 25.2632083,29.4121569 25.3326201,28.1323922 L25.3326201,28.1323922 L25.3705025,27.432549 L24.942973,26.9155294 C24.1335613,25.9373333 24.6000711,24.4471373 25.8249338,24.1065098 L25.8249338,24.1065098 L26.5134044,23.9149804 Z M18.9972475,24.8581961 C18.5479926,25.5435294 18.3977181,25.7230588 17.4406201,25.9891765 C18.0604632,26.7384314 18.0791299,27.0072157 18.0351299,27.8189804 C18.7692475,27.5253333 19.0536397,27.4567059 19.9592868,27.8189804 C19.9155221,27.0105882 19.9337181,26.7388235 20.5537966,25.9891765 C19.7574044,25.7676078 19.5369338,25.6813333 18.9972475,24.8581961 Z M9.441875,25.3760784 L9.433875,25.3883922 C9.20077696,25.7441569 8.84650245,26.002902 8.43654167,26.1169412 L8.43654167,26.1169412 L8.41348284,26.1233725 C8.69089461,26.4630588 8.83042402,26.8905882 8.80650245,27.3286275 L8.80650245,27.3286275 C9.21693382,27.1727843 9.66697304,27.1727843 10.0776397,27.3324706 L10.0776397,27.3324706 C10.0537966,26.8901176 10.193326,26.4627451 10.470424,26.1233725 L10.470424,26.1233725 L10.4473652,26.1169412 C10.0376397,26.0029804 9.68344363,25.7443137 9.45018873,25.3887843 L9.45018873,25.3887843 L9.441875,25.3760784 Z M28.3625809,25.3760784 C28.1061887,25.7654902 27.7552868,26.0061176 27.3339534,26.1232941 C27.6016397,26.4510588 27.7507377,26.8711373 27.7268946,27.3323922 C28.1375613,27.1727059 28.5879926,27.1727843 28.9981887,27.3323922 C28.9802279,26.8478431 29.1265025,26.4472941 29.3910515,26.1232941 C28.9379534,25.9973333 28.5956789,25.7346667 28.3625809,25.3760784 Z M21.3757574,2.91937255 C24.0671299,2.91937255 24.7250907,6.20478431 23.7476789,8.73482353 L23.7476789,8.73482353 L26.8546593,8.73482353 C28.4131691,8.73482353 29.7388946,9.89788235 29.7388946,11.5423529 C29.7388946,12.9342745 28.7206201,14.0927843 27.3897966,14.3118431 L27.3897966,14.3118431 L27.0117574,18.1413333 C26.8490907,19.7863529 25.4800711,21.0268235 23.8273652,21.0266667 C20.2076789,21.0266667 18.145875,21.2327059 14.9852475,19.9494118 C14.649326,20.6716863 13.9172475,21.1738824 13.0696397,21.1738824 L13.0696397,21.1738824 L10.1777966,21.1738824 C9.01332598,21.1738824 8.06603186,20.2265882 8.06603186,19.0621176 L8.06603186,19.0621176 L8.06603186,9.23960784 C8.06603186,8.07521569 9.01332598,7.12792157 10.1777966,7.12792157 L10.1777966,7.12792157 L13.0696397,7.12792157 C13.8659534,7.12792157 14.5605417,7.57113725 14.9202279,8.22368627 L14.9202279,8.22368627 L17.2412475,7.33027451 C18.0541887,7.01741176 18.4501887,6.43560784 18.6079926,5.32203922 C18.8023456,3.95215686 19.9922279,2.91937255 21.3757574,2.91937255 Z M12.833875,9.47545098 L10.4134828,9.47545098 L10.4134828,18.8265098 L12.833875,18.8265098 L12.833875,9.47545098 Z M21.3758358,5.2667451 C21.1540319,5.2667451 20.9633652,5.43215686 20.9322279,5.65152941 C20.6562279,7.59803922 19.6981887,8.9 18.0844632,9.52101961 L18.0844632,9.52101961 L15.181326,10.6385882 L15.181326,17.495451 C18.5233652,18.8526275 19.2152868,18.6792941 23.8272868,18.6792941 C24.2676005,18.6792941 24.6323848,18.3487843 24.6756005,17.9105098 L24.6756005,17.9105098 L25.1545025,13.0600784 C25.2137966,12.4593725 25.718973,12.0016471 26.3226593,12.0014902 L26.3226593,12.0014902 L26.9322279,12.0014902 C27.1854044,12.0014902 27.3915221,11.7955294 27.3915221,11.5421961 C27.3915221,11.2283137 27.1372475,11.0821176 26.8547377,11.0821176 L26.8547377,11.0821176 L21.9204632,11.0821176 C21.0606985,11.0821176 20.4928554,10.1861176 20.8582672,9.40901961 C21.4654828,8.11623529 21.8233652,7.55184314 21.8233652,6.5014902 C21.8233652,6.12290196 21.7641495,5.2667451 21.3758358,5.2667451 Z" id="Combined-Shape" fill-rule="nonzero"></path>
                </g>
            </g>
        </g>
    </g>
</svg>